<svg width="96" height="96" viewBox="0 0 96 96" fill="none" xmlns="http://www.w3.org/2000/svg">
<g filter="url(#filter0_i_857_4828)">
<path d="M24 48C24 34.7452 34.7452 24 48 24C61.2548 24 72 34.7452 72 48C72 61.2548 61.2548 72 48 72C34.7452 72 24 61.2548 24 48Z" fill="white"/>
<path d="M40 47.7255C40 47.3458 40.2822 47.0321 40.6482 46.9824L40.75 46.9755L53.934 46.9761L49.171 42.2326C48.8775 41.9404 48.8765 41.4655 49.1687 41.172C49.4344 40.9051 49.851 40.88 50.1451 41.0972L50.2294 41.1697L56.2794 47.1937C56.3181 47.2322 56.3517 47.2739 56.3802 47.3179C56.3883 47.3312 56.3965 47.3447 56.4042 47.3586C56.4114 47.3704 56.4178 47.3827 56.4239 47.3952C56.4324 47.4133 56.4407 47.432 56.4482 47.4511C56.4543 47.4658 56.4594 47.4801 56.464 47.4946C56.4696 47.5124 56.4749 47.5315 56.4796 47.5509C56.483 47.5644 56.4857 47.5774 56.4881 47.5905C56.4914 47.6099 56.4943 47.63 56.4963 47.6503C56.498 47.6659 56.4991 47.6812 56.4997 47.6966C56.4998 47.706 56.5 47.7157 56.5 47.7255L56.4996 47.7546C56.4991 47.7693 56.498 47.784 56.4966 47.7987L56.5 47.7255C56.5 47.7729 56.4956 47.8192 56.4872 47.8641C56.4853 47.8748 56.483 47.8858 56.4804 47.8968C56.4751 47.9193 56.4689 47.9411 56.4618 47.9624C56.4584 47.973 56.4543 47.9843 56.45 47.9955C56.4412 48.0181 56.4317 48.0396 56.4212 48.0606C56.4163 48.0704 56.4109 48.0807 56.4052 48.091C56.3958 48.1076 56.3861 48.1234 56.3759 48.1389C56.3687 48.1498 56.3607 48.1612 56.3524 48.1723L56.3459 48.181C56.3257 48.2074 56.3038 48.2324 56.2803 48.2559L56.2794 48.2566L50.2294 54.2816C49.9359 54.5739 49.4611 54.5729 49.1688 54.2794C48.9031 54.0126 48.8797 53.5958 49.0982 53.3027L49.171 53.2187L53.932 48.4761L40.75 48.4755C40.3358 48.4755 40 48.1398 40 47.7255Z" fill="black"/>
</g>
<defs>
<filter id="filter0_i_857_4828" x="24" y="24" width="48" height="48" filterUnits="userSpaceOnUse" color-interpolation-filters="sRGB">
<feFlood flood-opacity="0" result="BackgroundImageFix"/>
<feBlend mode="normal" in="SourceGraphic" in2="BackgroundImageFix" result="shape"/>
<feColorMatrix in="SourceAlpha" type="matrix" values="0 0 0 0 0 0 0 0 0 0 0 0 0 0 0 0 0 0 127 0" result="hardAlpha"/>
<feOffset/>
<feGaussianBlur stdDeviation="12"/>
<feComposite in2="hardAlpha" operator="arithmetic" k2="-1" k3="1"/>
<feColorMatrix type="matrix" values="0 0 0 0 0.227451 0 0 0 0 0.0470588 0 0 0 0 0.639216 0 0 0 0.3 0"/>
<feBlend mode="normal" in2="shape" result="effect1_innerShadow_857_4828"/>
</filter>
</defs>
</svg>
