<svg width="48" height="48" viewBox="0 0 48 48" fill="none" xmlns="http://www.w3.org/2000/svg">
<path d="M0 24C0 10.7452 10.7452 0 24 0C37.2548 0 48 10.7452 48 24C48 37.2548 37.2548 48 24 48C10.7452 48 0 37.2548 0 24Z" fill="white"/>
<path d="M16 23.7258C16 23.3461 16.2822 23.0323 16.6482 22.9827L16.75 22.9758L29.934 22.9764L25.171 18.2329C24.8775 17.9406 24.8765 17.4657 25.1687 17.1722C25.4344 16.9054 25.851 16.8803 26.1451 17.0975L26.2294 17.1699L32.2794 23.1939C32.3181 23.2325 32.3517 23.2742 32.3802 23.3182C32.3883 23.3314 32.3965 23.345 32.4042 23.3588C32.4114 23.3707 32.4178 23.383 32.4239 23.3954C32.4324 23.4135 32.4407 23.4323 32.4482 23.4513C32.4543 23.4661 32.4594 23.4804 32.464 23.4948C32.4696 23.5127 32.4749 23.5318 32.4796 23.5511C32.483 23.5647 32.4857 23.5777 32.4881 23.5907C32.4914 23.6102 32.4943 23.6303 32.4963 23.6506C32.498 23.6661 32.4991 23.6815 32.4997 23.6969C32.4998 23.7062 32.5 23.716 32.5 23.7258L32.4996 23.7549C32.4991 23.7696 32.498 23.7843 32.4966 23.799L32.5 23.7258C32.5 23.7731 32.4956 23.8194 32.4872 23.8643C32.4853 23.8751 32.483 23.8861 32.4804 23.897C32.4751 23.9196 32.4689 23.9413 32.4618 23.9627C32.4584 23.9733 32.4543 23.9846 32.45 23.9958C32.4412 24.0184 32.4317 24.0399 32.4212 24.0608C32.4163 24.0707 32.4109 24.081 32.4052 24.0912C32.3958 24.1079 32.3861 24.1237 32.3759 24.1391C32.3687 24.1501 32.3607 24.1614 32.3524 24.1726L32.3459 24.1813C32.3257 24.2076 32.3038 24.2327 32.2803 24.2561L32.2794 24.2568L26.2294 30.2818C25.9359 30.5741 25.4611 30.5731 25.1688 30.2796C24.9031 30.0128 24.8797 29.5961 25.0982 29.3029L25.171 29.219L29.932 24.4764L16.75 24.4758C16.3358 24.4758 16 24.14 16 23.7258Z" fill="black"/>
</svg>
