<svg width="279" height="143" viewBox="0 0 279 143" fill="none" xmlns="http://www.w3.org/2000/svg">
<path d="M30.0459 21.9999H33.3858V17.7087H35.6528C38.8172 17.7087 40.7941 15.833 40.7941 12.9655C40.7941 10.1249 38.8577 8.18171 35.754 8.18171H30.0459V21.9999ZM33.3858 15.0773V10.8738H35.0321C36.5299 10.8738 37.3328 11.6835 37.3328 12.9655C37.3328 14.2407 36.5299 15.0773 35.0321 15.0773H33.3858ZM47.6441 22.1956C50.9029 22.1956 52.8798 20.0432 52.8798 16.8518C52.8798 13.6537 50.9029 11.5013 47.6441 11.5013C44.3852 11.5013 42.4083 13.6537 42.4083 16.8518C42.4083 20.0432 44.3852 22.1956 47.6441 22.1956ZM47.6643 19.7059C46.4431 19.7059 45.7683 18.5454 45.7683 16.8316C45.7683 15.1111 46.4431 13.9438 47.6643 13.9438C48.845 13.9438 49.5198 15.1111 49.5198 16.8316C49.5198 18.5454 48.845 19.7059 47.6643 19.7059ZM55.14 21.9999H58.4394V16.3728C58.4394 15.138 59.3165 14.3081 60.4973 14.3081C60.8886 14.3081 61.4756 14.3756 61.7927 14.4836V11.616C61.5161 11.5418 61.172 11.4946 60.8683 11.4946C59.7348 11.4946 58.8307 12.1558 58.4529 13.5255H58.3449V11.6363H55.14V21.9999ZM70.0207 11.6363H68.1518V9.1533H64.8524V11.6363H63.4827V14.0652H64.8524V19.1054C64.8322 21.2037 66.1951 22.2563 68.5229 22.1483C69.319 22.1079 69.8925 21.9459 70.2097 21.8515L69.7104 19.4697C69.5687 19.5035 69.2381 19.5709 68.9884 19.5709C68.4554 19.5709 68.1518 19.355 68.1518 18.741V14.0652H70.0207V11.6363ZM78.1644 11.6363H76.1875V11.056C76.1875 10.4623 76.4304 10.0979 77.1996 10.0979C77.5099 10.0979 77.8878 10.1654 78.1307 10.2396L78.657 7.82411C78.2656 7.71615 77.3683 7.53398 76.4574 7.53398C74.3455 7.53398 72.8949 8.70799 72.8949 11.11V11.6363H71.4982V14.0652H72.8949V21.9999H76.1875V14.0652H78.1644V11.6363ZM84.8069 22.1956C88.0657 22.1956 90.0427 20.0432 90.0427 16.8518C90.0427 13.6537 88.0657 11.5013 84.8069 11.5013C81.548 11.5013 79.5711 13.6537 79.5711 16.8518C79.5711 20.0432 81.548 22.1956 84.8069 22.1956ZM84.8271 19.7059C83.6059 19.7059 82.9312 18.5454 82.9312 16.8316C82.9312 15.1111 83.6059 13.9438 84.8271 13.9438C86.0079 13.9438 86.6826 15.1111 86.6826 16.8316C86.6826 18.5454 86.0079 19.7059 84.8271 19.7059ZM95.6022 8.18171H92.3028V21.9999H95.6022V8.18171ZM98.2722 21.9999H101.571V11.6363H98.2722V21.9999ZM99.9253 10.4285C100.863 10.4285 101.619 9.72006 101.619 8.84968C101.619 7.97929 100.863 7.27759 99.9253 7.27759C98.9942 7.27759 98.2318 7.97929 98.2318 8.84968C98.2318 9.72006 98.9942 10.4285 99.9253 10.4285ZM109.079 22.1956C112.338 22.1956 114.315 20.0432 114.315 16.8518C114.315 13.6537 112.338 11.5013 109.079 11.5013C105.82 11.5013 103.843 13.6537 103.843 16.8518C103.843 20.0432 105.82 22.1956 109.079 22.1956ZM109.1 19.7059C107.878 19.7059 107.204 18.5454 107.204 16.8316C107.204 15.1111 107.878 13.9438 109.1 13.9438C110.28 13.9438 110.955 15.1111 110.955 16.8316C110.955 18.5454 110.28 19.7059 109.1 19.7059ZM121.227 8.18171V21.9999H124.479V13.4647H124.594L127.914 21.9122H129.992L133.311 13.512H133.426V21.9999H136.678V8.18171H132.542L129.034 16.7371H128.872L125.363 8.18171H121.227ZM142.253 22.1753C143.697 22.1753 144.695 21.6153 145.262 20.556H145.343V21.9999H148.447V14.9559C148.447 12.763 146.497 11.5013 143.859 11.5013C141.072 11.5013 139.493 12.9047 139.23 14.7939L142.273 14.9019C142.415 14.2407 142.961 13.8358 143.832 13.8358C144.641 13.8358 145.154 14.2272 145.154 14.9221V14.9559C145.154 15.5901 144.466 15.725 142.698 15.8802C140.6 16.0557 138.846 16.8316 138.846 19.1256C138.846 21.1767 140.269 22.1753 142.253 22.1753ZM143.272 20.0162C142.509 20.0162 141.97 19.6519 141.97 18.9637C141.97 18.2957 142.496 17.8909 143.434 17.7492C144.048 17.6615 144.803 17.5265 145.174 17.3309V18.316C145.174 19.328 144.324 20.0162 143.272 20.0162ZM154.334 16.0894C154.34 14.9086 155.029 14.2069 156.074 14.2069C157.12 14.2069 157.741 14.8951 157.734 16.0422V21.9999H161.034V15.3944C161.04 13.0599 159.617 11.5013 157.437 11.5013C155.906 11.5013 154.745 12.2772 154.286 13.539H154.172V11.6363H151.034V21.9999H154.334V16.0894ZM166.568 22.1753C168.012 22.1753 169.01 21.6153 169.577 20.556H169.658V21.9999H172.762V14.9559C172.762 12.763 170.812 11.5013 168.174 11.5013C165.387 11.5013 163.808 12.9047 163.545 14.7939L166.588 14.9019C166.73 14.2407 167.276 13.8358 168.147 13.8358C168.956 13.8358 169.469 14.2272 169.469 14.9221V14.9559C169.469 15.5901 168.781 15.725 167.013 15.8802C164.915 16.0557 163.16 16.8316 163.16 19.1256C163.16 21.1767 164.584 22.1753 166.568 22.1753ZM167.587 20.0162C166.824 20.0162 166.284 19.6519 166.284 18.9637C166.284 18.2957 166.811 17.8909 167.749 17.7492C168.363 17.6615 169.118 17.5265 169.489 17.3309V18.316C169.489 19.328 168.639 20.0162 167.587 20.0162ZM180.18 26.1022C183.304 26.1022 185.436 24.6785 185.436 22.0404V11.6363H182.15V13.4108H182.056C181.658 12.4594 180.754 11.5013 179.121 11.5013C176.955 11.5013 174.991 13.1679 174.991 16.8046C174.991 20.3266 176.86 21.8582 179.134 21.8582C180.659 21.8582 181.678 21.1498 182.069 20.1917H182.184V22.0134C182.184 23.3358 181.374 23.8149 180.268 23.8149C179.208 23.8149 178.574 23.4101 178.399 22.7691L175.275 22.9445C175.518 24.7595 177.225 26.1022 180.18 26.1022ZM180.281 19.4562C179.06 19.4562 178.379 18.4644 178.379 16.8046C178.379 15.1515 179.053 14.0787 180.281 14.0787C181.489 14.0787 182.191 15.1245 182.191 16.8046C182.191 18.4711 181.482 19.4562 180.281 19.4562ZM192.954 22.1956C195.673 22.1956 197.461 20.8799 197.839 18.8422L194.809 18.7545C194.553 19.4427 193.878 19.8138 193.015 19.8138C191.746 19.8138 190.964 18.9704 190.964 17.702V17.6142H197.873V16.7911C197.873 13.377 195.794 11.5013 192.853 11.5013C189.722 11.5013 187.711 13.6469 187.711 16.8586C187.711 20.1782 189.695 22.1956 192.954 22.1956ZM190.964 15.6981C191.011 14.6657 191.827 13.8831 192.92 13.8831C194.007 13.8831 194.789 14.6387 194.803 15.6981H190.964ZM200.128 21.9999H203.427V15.8667C203.427 14.8412 204.028 14.1867 204.891 14.1867C205.748 14.1867 206.315 14.7872 206.315 15.7453V21.9999H209.486V15.8128C209.486 14.8209 210.033 14.1867 210.943 14.1867C211.78 14.1867 212.374 14.7467 212.374 15.779V21.9999H215.673V15.0233C215.673 12.8305 214.324 11.5013 212.367 11.5013C210.835 11.5013 209.628 12.3042 209.243 13.539H209.135C208.859 12.2975 207.745 11.5013 206.308 11.5013C204.891 11.5013 203.812 12.2772 203.38 13.539H203.265V11.6363H200.128V21.9999ZM223.132 22.1956C225.851 22.1956 227.639 20.8799 228.017 18.8422L224.987 18.7545C224.731 19.4427 224.056 19.8138 223.193 19.8138C221.924 19.8138 221.142 18.9704 221.142 17.702V17.6142H228.051V16.7911C228.051 13.377 225.973 11.5013 223.031 11.5013C219.9 11.5013 217.889 13.6469 217.889 16.8586C217.889 20.1782 219.873 22.1956 223.132 22.1956ZM221.142 15.6981C221.189 14.6657 222.005 13.8831 223.098 13.8831C224.185 13.8831 224.967 14.6387 224.981 15.6981H221.142ZM233.605 16.0894C233.612 14.9086 234.3 14.2069 235.346 14.2069C236.392 14.2069 237.012 14.8951 237.006 16.0422V21.9999H240.305V15.3944C240.312 13.0599 238.888 11.5013 236.709 11.5013C235.177 11.5013 234.017 12.2772 233.558 13.539H233.443V11.6363H230.306V21.9999H233.605V16.0894ZM248.768 11.6363H246.899V9.1533H243.599V11.6363H242.23V14.0652H243.599V19.1054C243.579 21.2037 244.942 22.2563 247.27 22.1483C248.066 22.1079 248.639 21.9459 248.957 21.8515L248.457 19.4697C248.316 19.5035 247.985 19.5709 247.735 19.5709C247.202 19.5709 246.899 19.355 246.899 18.741V14.0652H248.768V11.6363Z" fill="#3700B3"/>
<path d="M18.1539 46.3635V57.9999H16.046V46.3635H18.1539ZM22.4025 52.8863V57.9999H20.3457V49.2726H22.3116V50.7556H22.4139C22.6146 50.2669 22.9347 49.8787 23.3741 49.5908C23.8173 49.3029 24.3646 49.159 25.0161 49.159C25.6184 49.159 26.143 49.2878 26.59 49.5454C27.0408 49.8029 27.3892 50.176 27.6355 50.6647C27.8855 51.1533 28.0086 51.7461 28.0048 52.4431V57.9999H25.948V52.7613C25.948 52.1779 25.7964 51.7215 25.4934 51.3919C25.1942 51.0624 24.7794 50.8976 24.2491 50.8976C23.8892 50.8976 23.5692 50.9772 23.2889 51.1363C23.0123 51.2916 22.7945 51.5169 22.6355 51.8124C22.4802 52.1079 22.4025 52.4658 22.4025 52.8863ZM37.5786 49.2726L34.4707 57.9999H32.198L29.09 49.2726H31.2832L33.2889 55.7556H33.3798L35.3911 49.2726H37.5786ZM42.5687 58.1704C41.6937 58.1704 40.938 57.9885 40.3016 57.6249C39.6691 57.2575 39.1823 56.7385 38.8414 56.0681C38.5005 55.3938 38.3301 54.6003 38.3301 53.6874C38.3301 52.7897 38.5005 52.0018 38.8414 51.3238C39.1861 50.6419 39.6672 50.1116 40.2846 49.7329C40.902 49.3503 41.6274 49.159 42.4607 49.159C42.9986 49.159 43.5062 49.2461 43.9835 49.4204C44.4645 49.5908 44.8888 49.856 45.2562 50.2158C45.6274 50.5757 45.9191 51.034 46.1312 51.5908C46.3433 52.1438 46.4494 52.8029 46.4494 53.5681V54.1988H39.296V52.8124H44.4778C44.474 52.4185 44.3888 52.0681 44.2221 51.7613C44.0554 51.4507 43.8225 51.2063 43.5232 51.0283C43.2278 50.8503 42.8831 50.7613 42.4891 50.7613C42.0687 50.7613 41.6994 50.8635 41.3812 51.0681C41.063 51.2688 40.8149 51.534 40.6369 51.8635C40.4626 52.1893 40.3736 52.5472 40.3698 52.9374V54.1476C40.3698 54.6552 40.4626 55.0908 40.6482 55.4544C40.8338 55.8143 41.0933 56.0908 41.4266 56.284C41.76 56.4734 42.1501 56.5681 42.5971 56.5681C42.8963 56.5681 43.1672 56.5264 43.4096 56.4431C43.652 56.356 43.8623 56.2291 44.0403 56.0624C44.2183 55.8957 44.3528 55.6893 44.4437 55.4431L46.3641 55.659C46.2429 56.1666 46.0119 56.6097 45.671 56.9885C45.3338 57.3635 44.902 57.6552 44.3755 57.8635C43.849 58.0681 43.2467 58.1704 42.5687 58.1704ZM55.0872 51.5794L53.2122 51.784C53.1591 51.5946 53.0663 51.4166 52.9337 51.2499C52.805 51.0832 52.6307 50.9488 52.411 50.8465C52.1913 50.7442 51.9224 50.6931 51.6042 50.6931C51.1762 50.6931 50.8163 50.7859 50.5247 50.9715C50.2368 51.1571 50.0947 51.3976 50.0985 51.6931C50.0947 51.9469 50.1875 52.1533 50.3769 52.3124C50.5701 52.4715 50.8883 52.6022 51.3315 52.7044L52.8201 53.0226C53.6459 53.2007 54.2595 53.4829 54.661 53.8692C55.0663 54.2556 55.2709 54.7613 55.2747 55.3863C55.2709 55.9355 55.1099 56.4204 54.7917 56.8408C54.4773 57.2575 54.0398 57.5832 53.4792 57.8181C52.9186 58.0529 52.2747 58.1704 51.5474 58.1704C50.4792 58.1704 49.6194 57.9469 48.9678 57.4999C48.3163 57.0491 47.9281 56.4222 47.8031 55.6192L49.8087 55.426C49.8997 55.82 50.0928 56.1173 50.3883 56.3181C50.6837 56.5188 51.0682 56.6192 51.5417 56.6192C52.0303 56.6192 52.4224 56.5188 52.7178 56.3181C53.0171 56.1173 53.1667 55.8692 53.1667 55.5738C53.1667 55.3238 53.0701 55.1173 52.8769 54.9544C52.6875 54.7916 52.3921 54.6666 51.9906 54.5794L50.5019 54.2669C49.6648 54.0927 49.0455 53.7991 48.644 53.3863C48.2425 52.9696 48.0436 52.4431 48.0474 51.8067C48.0436 51.2688 48.1894 50.8029 48.4849 50.409C48.7841 50.0113 49.1989 49.7044 49.7292 49.4885C50.2633 49.2688 50.8788 49.159 51.5758 49.159C52.5985 49.159 53.4034 49.3768 53.9906 49.8124C54.5815 50.248 54.947 50.837 55.0872 51.5794ZM61.3286 49.2726V50.8635H56.3116V49.2726H61.3286ZM57.5502 47.1817H59.607V55.3749C59.607 55.6514 59.6487 55.8635 59.732 56.0113C59.8192 56.1552 59.9328 56.2537 60.073 56.3067C60.2131 56.3597 60.3684 56.3863 60.5389 56.3863C60.6677 56.3863 60.7851 56.3768 60.8911 56.3579C61.001 56.3389 61.0843 56.3219 61.1411 56.3067L61.4877 57.9147C61.3779 57.9526 61.2207 57.9942 61.0161 58.0397C60.8154 58.0851 60.5692 58.1116 60.2775 58.1192C59.7623 58.1344 59.2983 58.0567 58.8855 57.8863C58.4726 57.712 58.1449 57.4431 57.9025 57.0794C57.6639 56.7158 57.5464 56.2613 57.5502 55.7158V47.1817ZM70.4948 58.1704C69.6994 58.1704 69.0157 58.0264 68.4437 57.7385C67.8717 57.4507 67.4304 57.0624 67.1198 56.5738C66.813 56.0813 66.6596 55.5264 66.6596 54.909C66.6596 54.4431 66.7543 54.0302 66.9437 53.6704C67.1369 53.3105 67.402 52.9772 67.7391 52.6704C68.0801 52.3635 68.474 52.0586 68.921 51.7556L70.9835 50.3522C71.2865 50.1552 71.5157 49.9469 71.671 49.7272C71.8301 49.5075 71.9096 49.2499 71.9096 48.9544C71.9096 48.7044 71.8035 48.4677 71.5914 48.2442C71.3831 48.0207 71.0952 47.909 70.7278 47.909C70.4816 47.909 70.2638 47.9677 70.0744 48.0851C69.8888 48.1988 69.7429 48.3484 69.6369 48.534C69.5346 48.7196 69.4835 48.9166 69.4835 49.1249C69.4835 49.3787 69.5535 49.6363 69.6937 49.8976C69.8376 50.159 70.0232 50.4298 70.2505 50.7101C70.4816 50.9904 70.7278 51.2878 70.9891 51.6022L76.4494 57.9999H74.2221L69.688 52.8067C69.3509 52.4128 69.0251 52.0245 68.7107 51.6419C68.4001 51.2594 68.1444 50.8616 67.9437 50.4488C67.7467 50.0321 67.6482 49.5813 67.6482 49.0965C67.6482 48.5472 67.7751 48.0567 68.0289 47.6249C68.2827 47.1893 68.6369 46.8465 69.0914 46.5965C69.5498 46.3465 70.0857 46.2215 70.6994 46.2215C71.313 46.2215 71.8395 46.3427 72.2789 46.5851C72.7183 46.8276 73.0573 47.1495 73.296 47.551C73.5346 47.9526 73.6539 48.3901 73.6539 48.8635C73.6539 49.4128 73.5176 49.9052 73.2448 50.3408C72.9721 50.7726 72.5933 51.1647 72.1085 51.5169L69.7562 53.2385C69.3698 53.5188 69.0933 53.8029 68.9266 54.0908C68.76 54.3749 68.6766 54.6173 68.6766 54.8181C68.6766 55.1249 68.7543 55.4033 68.9096 55.6533C69.0649 55.9033 69.2827 56.1041 69.563 56.2556C69.8471 56.4033 70.1785 56.4772 70.5573 56.4772C70.974 56.4772 71.385 56.3844 71.7903 56.1988C72.1956 56.0094 72.5649 55.7404 72.8982 55.3919C73.2316 55.0435 73.4967 54.6268 73.6937 54.1419C73.8907 53.6533 73.9891 53.1116 73.9891 52.5169H75.7562C75.7562 53.2518 75.6748 53.8919 75.5119 54.4374C75.349 54.9791 75.1388 55.4374 74.8812 55.8124C74.6236 56.1836 74.3509 56.481 74.063 56.7044C73.9721 56.7688 73.885 56.8332 73.8016 56.8976C73.7183 56.962 73.6312 57.0264 73.5403 57.0908C73.1312 57.462 72.652 57.7347 72.1028 57.909C71.5573 58.0832 71.0213 58.1704 70.4948 58.1704ZM85.3911 61.4544C84.6525 61.4544 84.018 61.3541 83.4877 61.1533C82.9574 60.9563 82.5313 60.6912 82.2093 60.3579C81.8873 60.0245 81.6639 59.6552 81.5389 59.2499L83.3911 58.801C83.4745 58.9715 83.5957 59.1401 83.7548 59.3067C83.9139 59.4772 84.1279 59.6173 84.3968 59.7272C84.6695 59.8408 85.0123 59.8976 85.4252 59.8976C86.0086 59.8976 86.4915 59.7556 86.8741 59.4715C87.2567 59.1912 87.448 58.7291 87.448 58.0851V56.4317H87.3457C87.2396 56.6438 87.0843 56.8616 86.8798 57.0851C86.679 57.3086 86.412 57.4961 86.0786 57.6476C85.7491 57.7991 85.3343 57.8749 84.8343 57.8749C84.1639 57.8749 83.5559 57.7177 83.0105 57.4033C82.4688 57.0851 82.037 56.6116 81.715 55.9829C81.3968 55.3503 81.2377 54.5586 81.2377 53.6079C81.2377 52.6495 81.3968 51.8408 81.715 51.1817C82.037 50.5188 82.4707 50.0169 83.0161 49.676C83.5616 49.3313 84.1695 49.159 84.84 49.159C85.3514 49.159 85.7718 49.2461 86.1014 49.4204C86.4347 49.5908 86.6998 49.7972 86.8968 50.0397C87.0938 50.2783 87.2434 50.5037 87.3457 50.7158H87.4593V49.2726H89.4877V58.1419C89.4877 58.8882 89.3097 59.5056 88.9536 59.9942C88.5976 60.4829 88.1108 60.8484 87.4934 61.0908C86.876 61.3332 86.1752 61.4544 85.3911 61.4544ZM85.4082 56.2613C85.8438 56.2613 86.215 56.1552 86.5218 55.9431C86.8286 55.731 87.0616 55.426 87.2207 55.0283C87.3798 54.6306 87.4593 54.1533 87.4593 53.5965C87.4593 53.0472 87.3798 52.5662 87.2207 52.1533C87.0654 51.7404 86.8343 51.4204 86.5275 51.1931C86.2245 50.962 85.8514 50.8465 85.4082 50.8465C84.9498 50.8465 84.5673 50.9658 84.2605 51.2044C83.9536 51.4431 83.7226 51.7707 83.5673 52.1874C83.412 52.6003 83.3343 53.07 83.3343 53.5965C83.3343 54.1306 83.412 54.5984 83.5673 54.9999C83.7264 55.3976 83.9593 55.7082 84.2661 55.9317C84.5767 56.1514 84.9574 56.2613 85.4082 56.2613ZM91.5957 57.9999V49.2726H93.59V50.7272H93.6809C93.84 50.2234 94.1127 49.8351 94.4991 49.5624C94.8892 49.2859 95.3343 49.1476 95.8343 49.1476C95.948 49.1476 96.0748 49.1533 96.215 49.1647C96.3589 49.1722 96.4783 49.1855 96.573 49.2044V51.0965C96.4858 51.0662 96.3476 51.0397 96.1582 51.0169C95.9726 50.9904 95.7927 50.9772 95.6184 50.9772C95.2434 50.9772 94.9063 51.0586 94.607 51.2215C94.3116 51.3806 94.0786 51.6022 93.9082 51.8863C93.7377 52.1704 93.6525 52.498 93.6525 52.8692V57.9999H91.5957ZM101.387 58.1704C100.535 58.1704 99.796 57.9829 99.171 57.6079C98.546 57.2329 98.0611 56.7082 97.7164 56.034C97.3755 55.3597 97.2051 54.5719 97.2051 53.6704C97.2051 52.7688 97.3755 51.9791 97.7164 51.301C98.0611 50.623 98.546 50.0965 99.171 49.7215C99.796 49.3465 100.535 49.159 101.387 49.159C102.239 49.159 102.978 49.3465 103.603 49.7215C104.228 50.0965 104.711 50.623 105.052 51.301C105.397 51.9791 105.569 52.7688 105.569 53.6704C105.569 54.5719 105.397 55.3597 105.052 56.034C104.711 56.7082 104.228 57.2329 103.603 57.6079C102.978 57.9829 102.239 58.1704 101.387 58.1704ZM101.398 56.5226C101.861 56.5226 102.247 56.3957 102.558 56.1419C102.868 55.8844 103.099 55.5397 103.251 55.1079C103.406 54.676 103.484 54.195 103.484 53.6647C103.484 53.1306 103.406 52.6476 103.251 52.2158C103.099 51.7802 102.868 51.4336 102.558 51.176C102.247 50.9185 101.861 50.7897 101.398 50.7897C100.925 50.7897 100.531 50.9185 100.217 51.176C99.9058 51.4336 99.6729 51.7802 99.5176 52.2158C99.366 52.6476 99.2903 53.1306 99.2903 53.6647C99.2903 54.195 99.366 54.676 99.5176 55.1079C99.6729 55.5397 99.9058 55.8844 100.217 56.1419C100.531 56.3957 100.925 56.5226 101.398 56.5226ZM108.866 57.9999L106.4 49.2726H108.496L110.031 55.409H110.11L111.678 49.2726H113.752L115.32 55.3749H115.406L116.917 49.2726H119.019L116.548 57.9999H114.406L112.769 52.1022H112.65L111.013 57.9999H108.866ZM125.702 61.2726C125.422 61.2726 125.163 61.2499 124.924 61.2044C124.689 61.1628 124.502 61.1135 124.362 61.0567L124.839 59.4544C125.138 59.5416 125.405 59.5832 125.64 59.5794C125.875 59.5757 126.081 59.5018 126.259 59.3579C126.441 59.2177 126.594 58.9829 126.719 58.6533L126.896 58.1817L123.731 49.2726H125.913L127.924 55.8635H128.015L130.032 49.2726H132.219L128.725 59.0567C128.562 59.5188 128.346 59.9147 128.077 60.2442C127.808 60.5776 127.479 60.8313 127.089 61.0056C126.702 61.1836 126.24 61.2726 125.702 61.2726ZM137.153 58.1704C136.3 58.1704 135.562 57.9829 134.937 57.6079C134.312 57.2329 133.827 56.7082 133.482 56.034C133.141 55.3597 132.971 54.5719 132.971 53.6704C132.971 52.7688 133.141 51.9791 133.482 51.301C133.827 50.623 134.312 50.0965 134.937 49.7215C135.562 49.3465 136.3 49.159 137.153 49.159C138.005 49.159 138.744 49.3465 139.369 49.7215C139.994 50.0965 140.477 50.623 140.817 51.301C141.162 51.9791 141.335 52.7688 141.335 53.6704C141.335 54.5719 141.162 55.3597 140.817 56.034C140.477 56.7082 139.994 57.2329 139.369 57.6079C138.744 57.9829 138.005 58.1704 137.153 58.1704ZM137.164 56.5226C137.626 56.5226 138.013 56.3957 138.323 56.1419C138.634 55.8844 138.865 55.5397 139.016 55.1079C139.172 54.676 139.249 54.195 139.249 53.6647C139.249 53.1306 139.172 52.6476 139.016 52.2158C138.865 51.7802 138.634 51.4336 138.323 51.176C138.013 50.9185 137.626 50.7897 137.164 50.7897C136.691 50.7897 136.297 50.9185 135.982 51.176C135.672 51.4336 135.439 51.7802 135.283 52.2158C135.132 52.6476 135.056 53.1306 135.056 53.6647C135.056 54.195 135.132 54.676 135.283 55.1079C135.439 55.5397 135.672 55.8844 135.982 56.1419C136.297 56.3957 136.691 56.5226 137.164 56.5226ZM148.643 54.3294V49.2726H150.7V57.9999H148.705V56.4488H148.614C148.417 56.9374 148.094 57.337 147.643 57.6476C147.196 57.9582 146.645 58.1135 145.989 58.1135C145.417 58.1135 144.912 57.9866 144.472 57.7329C144.037 57.4753 143.696 57.1022 143.45 56.6135C143.203 56.1211 143.08 55.5264 143.08 54.8294V49.2726H145.137V54.5113C145.137 55.0643 145.289 55.5037 145.592 55.8294C145.895 56.1552 146.292 56.3181 146.785 56.3181C147.088 56.3181 147.381 56.2442 147.665 56.0965C147.95 55.9488 148.183 55.7291 148.364 55.4374C148.55 55.1419 148.643 54.7726 148.643 54.3294ZM152.815 57.9999V49.2726H154.809V50.7272H154.9C155.059 50.2234 155.332 49.8351 155.718 49.5624C156.108 49.2859 156.553 49.1476 157.053 49.1476C157.167 49.1476 157.294 49.1533 157.434 49.1647C157.578 49.1722 157.697 49.1855 157.792 49.2044V51.0965C157.705 51.0662 157.567 51.0397 157.377 51.0169C157.192 50.9904 157.012 50.9772 156.837 50.9772C156.462 50.9772 156.125 51.0586 155.826 51.2215C155.531 51.3806 155.298 51.6022 155.127 51.8863C154.957 52.1704 154.871 52.498 154.871 52.8692V57.9999H152.815ZM163.127 61.2726V49.2726H165.15V50.7158H165.269C165.375 50.5037 165.525 50.2783 165.718 50.0397C165.911 49.7972 166.173 49.5908 166.502 49.4204C166.832 49.2461 167.252 49.159 167.763 49.159C168.438 49.159 169.046 49.3313 169.587 49.676C170.133 50.0169 170.565 50.5226 170.883 51.1931C171.205 51.8597 171.366 52.6779 171.366 53.6476C171.366 54.606 171.209 55.4204 170.894 56.0908C170.58 56.7613 170.152 57.2726 169.61 57.6249C169.068 57.9772 168.455 58.1533 167.769 58.1533C167.269 58.1533 166.854 58.07 166.525 57.9033C166.195 57.7366 165.93 57.5359 165.729 57.301C165.532 57.0624 165.379 56.837 165.269 56.6249H165.184V61.2726H163.127ZM165.144 53.6363C165.144 54.2007 165.224 54.695 165.383 55.1192C165.546 55.5435 165.779 55.8749 166.082 56.1135C166.388 56.3484 166.76 56.4658 167.195 56.4658C167.65 56.4658 168.031 56.3446 168.337 56.1022C168.644 55.856 168.875 55.5207 169.031 55.0965C169.19 54.6685 169.269 54.1817 169.269 53.6363C169.269 53.0946 169.192 52.6135 169.036 52.1931C168.881 51.7726 168.65 51.4431 168.343 51.2044C168.036 50.9658 167.654 50.8465 167.195 50.8465C166.756 50.8465 166.383 50.962 166.076 51.1931C165.769 51.4241 165.536 51.748 165.377 52.1647C165.222 52.5813 165.144 53.0719 165.144 53.6363ZM176.934 58.1704C176.082 58.1704 175.343 57.9829 174.718 57.6079C174.093 57.2329 173.608 56.7082 173.263 56.034C172.923 55.3597 172.752 54.5719 172.752 53.6704C172.752 52.7688 172.923 51.9791 173.263 51.301C173.608 50.623 174.093 50.0965 174.718 49.7215C175.343 49.3465 176.082 49.159 176.934 49.159C177.786 49.159 178.525 49.3465 179.15 49.7215C179.775 50.0965 180.258 50.623 180.599 51.301C180.943 51.9791 181.116 52.7688 181.116 53.6704C181.116 54.5719 180.943 55.3597 180.599 56.034C180.258 56.7082 179.775 57.2329 179.15 57.6079C178.525 57.9829 177.786 58.1704 176.934 58.1704ZM176.945 56.5226C177.407 56.5226 177.794 56.3957 178.104 56.1419C178.415 55.8844 178.646 55.5397 178.798 55.1079C178.953 54.676 179.031 54.195 179.031 53.6647C179.031 53.1306 178.953 52.6476 178.798 52.2158C178.646 51.7802 178.415 51.4336 178.104 51.176C177.794 50.9185 177.407 50.7897 176.945 50.7897C176.472 50.7897 176.078 50.9185 175.763 51.176C175.453 51.4336 175.22 51.7802 175.065 52.2158C174.913 52.6476 174.837 53.1306 174.837 53.6647C174.837 54.195 174.913 54.676 175.065 55.1079C175.22 55.5397 175.453 55.8844 175.763 56.1419C176.078 56.3957 176.472 56.5226 176.945 56.5226ZM182.862 57.9999V49.2726H184.856V50.7272H184.947C185.106 50.2234 185.379 49.8351 185.765 49.5624C186.155 49.2859 186.6 49.1476 187.1 49.1476C187.214 49.1476 187.341 49.1533 187.481 49.1647C187.625 49.1722 187.744 49.1855 187.839 49.2044V51.0965C187.752 51.0662 187.613 51.0397 187.424 51.0169C187.238 50.9904 187.058 50.9772 186.884 50.9772C186.509 50.9772 186.172 51.0586 185.873 51.2215C185.577 51.3806 185.344 51.6022 185.174 51.8863C185.004 52.1704 184.918 52.498 184.918 52.8692V57.9999H182.862ZM194.032 49.2726V50.8635H189.015V49.2726H194.032ZM190.254 47.1817H192.31V55.3749C192.31 55.6514 192.352 55.8635 192.435 56.0113C192.522 56.1552 192.636 56.2537 192.776 56.3067C192.916 56.3597 193.072 56.3863 193.242 56.3863C193.371 56.3863 193.488 56.3768 193.594 56.3579C193.704 56.3389 193.788 56.3219 193.844 56.3067L194.191 57.9147C194.081 57.9526 193.924 57.9942 193.719 58.0397C193.519 58.0851 193.272 58.1116 192.981 58.1192C192.466 58.1344 192.002 58.0567 191.589 57.8863C191.176 57.712 190.848 57.4431 190.606 57.0794C190.367 56.7158 190.25 56.2613 190.254 55.7158V47.1817ZM200.173 49.2726V50.8635H195.013V49.2726H200.173ZM196.303 57.9999V48.4488C196.303 47.8616 196.424 47.373 196.667 46.9829C196.913 46.5927 197.243 46.301 197.656 46.1079C198.068 45.9147 198.527 45.8181 199.031 45.8181C199.387 45.8181 199.703 45.8465 199.979 45.9033C200.256 45.9601 200.46 46.0113 200.593 46.0567L200.184 47.6476C200.097 47.6211 199.987 47.5946 199.854 47.5681C199.722 47.5378 199.574 47.5226 199.411 47.5226C199.029 47.5226 198.758 47.6154 198.599 47.801C198.443 47.9829 198.366 48.2442 198.366 48.5851V57.9999H196.303ZM205.262 58.1704C204.41 58.1704 203.671 57.9829 203.046 57.6079C202.421 57.2329 201.936 56.7082 201.592 56.034C201.251 55.3597 201.08 54.5719 201.08 53.6704C201.08 52.7688 201.251 51.9791 201.592 51.301C201.936 50.623 202.421 50.0965 203.046 49.7215C203.671 49.3465 204.41 49.159 205.262 49.159C206.114 49.159 206.853 49.3465 207.478 49.7215C208.103 50.0965 208.586 50.623 208.927 51.301C209.272 51.9791 209.444 52.7688 209.444 53.6704C209.444 54.5719 209.272 55.3597 208.927 56.034C208.586 56.7082 208.103 57.2329 207.478 57.6079C206.853 57.9829 206.114 58.1704 205.262 58.1704ZM205.273 56.5226C205.736 56.5226 206.122 56.3957 206.433 56.1419C206.743 55.8844 206.974 55.5397 207.126 55.1079C207.281 54.676 207.359 54.195 207.359 53.6647C207.359 53.1306 207.281 52.6476 207.126 52.2158C206.974 51.7802 206.743 51.4336 206.433 51.176C206.122 50.9185 205.736 50.7897 205.273 50.7897C204.8 50.7897 204.406 50.9185 204.092 51.176C203.781 51.4336 203.548 51.7802 203.393 52.2158C203.241 52.6476 203.165 53.1306 203.165 53.6647C203.165 54.195 203.241 54.676 203.393 55.1079C203.548 55.5397 203.781 55.8844 204.092 56.1419C204.406 56.3957 204.8 56.5226 205.273 56.5226ZM213.246 46.3635V57.9999H211.19V46.3635H213.246ZM215.362 57.9999V49.2726H217.418V57.9999H215.362ZM216.396 48.034C216.07 48.034 215.79 47.926 215.555 47.7101C215.32 47.4904 215.202 47.2272 215.202 46.9204C215.202 46.6097 215.32 46.3465 215.555 46.1306C215.79 45.9109 216.07 45.801 216.396 45.801C216.725 45.801 217.005 45.9109 217.237 46.1306C217.471 46.3465 217.589 46.6097 217.589 46.9204C217.589 47.2272 217.471 47.4904 217.237 47.7101C217.005 47.926 216.725 48.034 216.396 48.034ZM223.34 58.1704C222.488 58.1704 221.749 57.9829 221.124 57.6079C220.499 57.2329 220.014 56.7082 219.67 56.034C219.329 55.3597 219.158 54.5719 219.158 53.6704C219.158 52.7688 219.329 51.9791 219.67 51.301C220.014 50.623 220.499 50.0965 221.124 49.7215C221.749 49.3465 222.488 49.159 223.34 49.159C224.192 49.159 224.931 49.3465 225.556 49.7215C226.181 50.0965 226.664 50.623 227.005 51.301C227.35 51.9791 227.522 52.7688 227.522 53.6704C227.522 54.5719 227.35 55.3597 227.005 56.034C226.664 56.7082 226.181 57.2329 225.556 57.6079C224.931 57.9829 224.192 58.1704 223.34 58.1704ZM223.352 56.5226C223.814 56.5226 224.2 56.3957 224.511 56.1419C224.821 55.8844 225.052 55.5397 225.204 55.1079C225.359 54.676 225.437 54.195 225.437 53.6647C225.437 53.1306 225.359 52.6476 225.204 52.2158C225.052 51.7802 224.821 51.4336 224.511 51.176C224.2 50.9185 223.814 50.7897 223.352 50.7897C222.878 50.7897 222.484 50.9185 222.17 51.176C221.859 51.4336 221.626 51.7802 221.471 52.2158C221.319 52.6476 221.244 53.1306 221.244 53.6647C221.244 54.195 221.319 54.676 221.471 55.1079C221.626 55.5397 221.859 55.8844 222.17 56.1419C222.484 56.3957 222.878 56.5226 223.352 56.5226ZM230.535 58.1249C230.19 58.1249 229.895 58.0037 229.648 57.7613C229.402 57.5188 229.281 57.2234 229.285 56.8749C229.281 56.534 229.402 56.2423 229.648 55.9999C229.895 55.7575 230.19 55.6363 230.535 55.6363C230.868 55.6363 231.158 55.7575 231.404 55.9999C231.654 56.2423 231.781 56.534 231.785 56.8749C231.781 57.106 231.72 57.3162 231.603 57.5056C231.489 57.695 231.338 57.8465 231.148 57.9601C230.963 58.07 230.758 58.1249 230.535 58.1249ZM245.404 50.0794C245.309 49.7726 245.179 49.498 245.012 49.2556C244.849 49.0094 244.652 48.7991 244.421 48.6249C244.194 48.4507 243.933 48.32 243.637 48.2329C243.342 48.1419 243.02 48.0965 242.671 48.0965C242.046 48.0965 241.489 48.2537 241.001 48.5681C240.512 48.8825 240.128 49.3446 239.847 49.9544C239.571 50.5605 239.433 51.2991 239.433 52.1704C239.433 53.0491 239.571 53.7935 239.847 54.4033C240.124 55.0132 240.508 55.4772 241.001 55.7954C241.493 56.1097 242.065 56.2669 242.717 56.2669C243.308 56.2669 243.819 56.1533 244.251 55.926C244.686 55.6988 245.022 55.3768 245.256 54.9601C245.491 54.5397 245.609 54.0472 245.609 53.4829L246.086 53.5567H242.927V51.909H247.648V53.3067C247.648 54.3029 247.436 55.1647 247.012 55.8919C246.588 56.6192 246.004 57.1798 245.262 57.5738C244.52 57.9639 243.667 58.159 242.705 58.159C241.633 58.159 240.692 57.9185 239.881 57.4374C239.075 56.9526 238.444 56.2651 237.989 55.3749C237.539 54.481 237.313 53.4204 237.313 52.1931C237.313 51.2537 237.446 50.4147 237.711 49.676C237.98 48.9374 238.355 48.3105 238.836 47.7954C239.317 47.2764 239.881 46.8825 240.529 46.6135C241.177 46.3408 241.881 46.2044 242.643 46.2044C243.287 46.2044 243.887 46.2991 244.444 46.4885C245.001 46.6741 245.495 46.9393 245.927 47.284C246.362 47.6287 246.72 48.0378 247.001 48.5113C247.281 48.9847 247.465 49.5075 247.552 50.0794H245.404ZM253.46 58.1704C252.585 58.1704 251.829 57.9885 251.192 57.6249C250.56 57.2575 250.073 56.7385 249.732 56.0681C249.391 55.3938 249.221 54.6003 249.221 53.6874C249.221 52.7897 249.391 52.0018 249.732 51.3238C250.077 50.6419 250.558 50.1116 251.175 49.7329C251.793 49.3503 252.518 49.159 253.352 49.159C253.889 49.159 254.397 49.2461 254.874 49.4204C255.355 49.5908 255.78 49.856 256.147 50.2158C256.518 50.5757 256.81 51.034 257.022 51.5908C257.234 52.1438 257.34 52.8029 257.34 53.5681V54.1988H250.187V52.8124H255.369C255.365 52.4185 255.28 52.0681 255.113 51.7613C254.946 51.4507 254.713 51.2063 254.414 51.0283C254.119 50.8503 253.774 50.7613 253.38 50.7613C252.96 50.7613 252.59 50.8635 252.272 51.0681C251.954 51.2688 251.706 51.534 251.528 51.8635C251.353 52.1893 251.264 52.5472 251.261 52.9374V54.1476C251.261 54.6552 251.353 55.0908 251.539 55.4544C251.725 55.8143 251.984 56.0908 252.317 56.284C252.651 56.4734 253.041 56.5681 253.488 56.5681C253.787 56.5681 254.058 56.5264 254.3 56.4431C254.543 56.356 254.753 56.2291 254.931 56.0624C255.109 55.8957 255.244 55.6893 255.335 55.4431L257.255 55.659C257.134 56.1666 256.903 56.6097 256.562 56.9885C256.225 57.3635 255.793 57.6552 255.266 57.8635C254.74 58.0681 254.138 58.1704 253.46 58.1704ZM263.438 49.2726V50.8635H258.421V49.2726H263.438ZM259.66 47.1817H261.717V55.3749C261.717 55.6514 261.758 55.8635 261.842 56.0113C261.929 56.1552 262.042 56.2537 262.183 56.3067C262.323 56.3597 262.478 56.3863 262.648 56.3863C262.777 56.3863 262.895 56.3768 263.001 56.3579C263.111 56.3389 263.194 56.3219 263.251 56.3067L263.597 57.9147C263.487 57.9526 263.33 57.9942 263.126 58.0397C262.925 58.0851 262.679 58.1116 262.387 58.1192C261.872 58.1344 261.408 58.0567 260.995 57.8863C260.582 57.712 260.254 57.4431 260.012 57.0794C259.773 56.7158 259.656 56.2613 259.66 55.7158V47.1817ZM11.8144 82.3294V77.2726H13.8712V85.9999H11.8769V84.4488H11.786C11.5891 84.9374 11.2652 85.337 10.8144 85.6476C10.3675 85.9582 9.81634 86.1135 9.16104 86.1135C8.58907 86.1135 8.08339 85.9866 7.644 85.7329C7.20839 85.4753 6.86748 85.1022 6.62127 84.6135C6.37506 84.1211 6.25195 83.5264 6.25195 82.8294V77.2726H8.30877V82.5113C8.30877 83.0643 8.46028 83.5037 8.76331 83.8294C9.06634 84.1552 9.46407 84.3181 9.9565 84.3181C10.2595 84.3181 10.5531 84.2442 10.8372 84.0965C11.1212 83.9488 11.3542 83.7291 11.536 83.4374C11.7216 83.1419 11.8144 82.7726 11.8144 82.3294ZM15.9863 89.2726V77.2726H18.009V78.7158H18.1284C18.2344 78.5037 18.384 78.2783 18.5772 78.0397C18.7704 77.7972 19.0318 77.5908 19.3613 77.4204C19.6909 77.2461 20.1113 77.159 20.6227 77.159C21.2969 77.159 21.9049 77.3313 22.4465 77.676C22.992 78.0169 23.4238 78.5226 23.742 79.1931C24.064 79.8597 24.2249 80.6779 24.2249 81.6476C24.2249 82.606 24.0677 83.4204 23.7534 84.0908C23.439 84.7613 23.0109 85.2726 22.4693 85.6249C21.9276 85.9772 21.314 86.1533 20.6284 86.1533C20.1284 86.1533 19.7136 86.07 19.384 85.9033C19.0545 85.7366 18.7893 85.5359 18.5886 85.301C18.3916 85.0624 18.2382 84.837 18.1284 84.6249H18.0431V89.2726H15.9863ZM18.0034 81.6363C18.0034 82.2007 18.0829 82.695 18.242 83.1192C18.4049 83.5435 18.6378 83.8749 18.9409 84.1135C19.2477 84.3484 19.6189 84.4658 20.0545 84.4658C20.509 84.4658 20.8897 84.3446 21.1965 84.1022C21.5034 83.856 21.7344 83.5207 21.8897 83.0965C22.0488 82.6685 22.1284 82.1817 22.1284 81.6363C22.1284 81.0946 22.0507 80.6135 21.8954 80.1931C21.7401 79.7726 21.509 79.4431 21.2022 79.2044C20.8954 78.9658 20.5128 78.8465 20.0545 78.8465C19.6151 78.8465 19.242 78.962 18.9352 79.1931C18.6284 79.4241 18.3954 79.748 18.2363 80.1647C18.081 80.5813 18.0034 81.0719 18.0034 81.6363ZM29.2249 86.1533C28.5393 86.1533 27.9257 85.9772 27.384 85.6249C26.8424 85.2726 26.4143 84.7613 26.0999 84.0908C25.7855 83.4204 25.6284 82.606 25.6284 81.6476C25.6284 80.6779 25.7874 79.8597 26.1056 79.1931C26.4276 78.5226 26.8613 78.0169 27.4068 77.676C27.9522 77.3313 28.5602 77.159 29.2306 77.159C29.742 77.159 30.1624 77.2461 30.492 77.4204C30.8215 77.5908 31.0829 77.7972 31.2761 78.0397C31.4693 78.2783 31.6189 78.5037 31.7249 78.7158H31.8102V74.3635H33.8727V85.9999H31.8499V84.6249H31.7249C31.6189 84.837 31.4655 85.0624 31.2647 85.301C31.064 85.5359 30.7988 85.7366 30.4693 85.9033C30.1397 86.07 29.7249 86.1533 29.2249 86.1533ZM29.7988 84.4658C30.2344 84.4658 30.6056 84.3484 30.9124 84.1135C31.2193 83.8749 31.4522 83.5435 31.6113 83.1192C31.7704 82.695 31.8499 82.2007 31.8499 81.6363C31.8499 81.0719 31.7704 80.5813 31.6113 80.1647C31.456 79.748 31.2249 79.4241 30.9181 79.1931C30.6151 78.962 30.242 78.8465 29.7988 78.8465C29.3405 78.8465 28.9579 78.9658 28.6511 79.2044C28.3443 79.4431 28.1132 79.7726 27.9579 80.1931C27.8026 80.6135 27.7249 81.0946 27.7249 81.6363C27.7249 82.1817 27.8026 82.6685 27.9579 83.0965C28.117 83.5207 28.3499 83.856 28.6568 84.1022C28.9674 84.3446 29.348 84.4658 29.7988 84.4658ZM38.5758 86.176C38.0228 86.176 37.5247 86.0776 37.0815 85.8806C36.6421 85.6798 36.2936 85.3844 36.036 84.9942C35.7822 84.6041 35.6553 84.123 35.6553 83.551C35.6553 83.0586 35.7462 82.6514 35.9281 82.3294C36.1099 82.0075 36.358 81.7499 36.6724 81.5567C36.9868 81.3635 37.3409 81.2177 37.7349 81.1192C38.1326 81.0169 38.5436 80.9431 38.9678 80.8976C39.4792 80.8446 39.894 80.7972 40.2122 80.7556C40.5303 80.7101 40.7614 80.6419 40.9053 80.551C41.0531 80.4563 41.1269 80.3105 41.1269 80.1135V80.0794C41.1269 79.6514 41 79.32 40.7462 79.0851C40.4925 78.8503 40.1269 78.7329 39.6497 78.7329C39.1459 78.7329 38.7462 78.8427 38.4508 79.0624C38.1591 79.2821 37.9622 79.5416 37.8599 79.8408L35.9394 79.5681C36.0909 79.0378 36.3409 78.5946 36.6894 78.2385C37.0379 77.8787 37.4641 77.6097 37.9678 77.4317C38.4716 77.2499 39.0284 77.159 39.6383 77.159C40.0587 77.159 40.4773 77.2082 40.894 77.3067C41.3106 77.4052 41.6913 77.5681 42.036 77.7954C42.3807 78.0188 42.6572 78.3238 42.8656 78.7101C43.0777 79.0965 43.1837 79.5794 43.1837 80.159V85.9999H41.2065V84.801H41.1383C41.0133 85.0435 40.8372 85.2707 40.6099 85.4829C40.3864 85.6912 40.1042 85.8597 39.7633 85.9885C39.4262 86.1135 39.0303 86.176 38.5758 86.176ZM39.1099 84.6647C39.5228 84.6647 39.8807 84.5832 40.1837 84.4204C40.4868 84.2537 40.7197 84.034 40.8826 83.7613C41.0493 83.4885 41.1326 83.1912 41.1326 82.8692V81.8408C41.0682 81.8938 40.9584 81.9431 40.8031 81.9885C40.6516 82.034 40.4811 82.0738 40.2917 82.1079C40.1023 82.1419 39.9148 82.1722 39.7292 82.1988C39.5436 82.2253 39.3826 82.248 39.2462 82.2669C38.9394 82.3086 38.6648 82.3768 38.4224 82.4715C38.18 82.5662 37.9887 82.6988 37.8485 82.8692C37.7084 83.0359 37.6383 83.2518 37.6383 83.5169C37.6383 83.8957 37.7766 84.1817 38.0531 84.3749C38.3296 84.5681 38.6819 84.6647 39.1099 84.6647ZM49.6099 77.2726V78.8635H44.5928V77.2726H49.6099ZM45.8315 75.1817H47.8883V83.3749C47.8883 83.6514 47.93 83.8635 48.0133 84.0113C48.1004 84.1552 48.2141 84.2537 48.3542 84.3067C48.4944 84.3597 48.6497 84.3863 48.8201 84.3863C48.9489 84.3863 49.0663 84.3768 49.1724 84.3579C49.2822 84.3389 49.3656 84.3219 49.4224 84.3067L49.769 85.9147C49.6591 85.9526 49.5019 85.9942 49.2974 86.0397C49.0966 86.0851 48.8504 86.1116 48.5587 86.1192C48.0436 86.1344 47.5796 86.0567 47.1667 85.8863C46.7538 85.712 46.4262 85.4431 46.1837 85.0794C45.9451 84.7158 45.8277 84.2613 45.8315 83.7158V75.1817ZM55.0999 86.1704C54.2249 86.1704 53.4693 85.9885 52.8329 85.6249C52.2003 85.2575 51.7136 84.7385 51.3727 84.0681C51.0318 83.3938 50.8613 82.6003 50.8613 81.6874C50.8613 80.7897 51.0318 80.0018 51.3727 79.3238C51.7174 78.6419 52.1984 78.1116 52.8159 77.7329C53.4333 77.3503 54.1587 77.159 54.992 77.159C55.5299 77.159 56.0374 77.2461 56.5147 77.4204C56.9958 77.5908 57.42 77.856 57.7874 78.2158C58.1587 78.5757 58.4503 79.034 58.6624 79.5908C58.8746 80.1438 58.9806 80.8029 58.9806 81.5681V82.1988H51.8272V80.8124H57.009C57.0052 80.4185 56.92 80.0681 56.7534 79.7613C56.5867 79.4507 56.3537 79.2063 56.0545 79.0283C55.759 78.8503 55.4143 78.7613 55.0204 78.7613C54.5999 78.7613 54.2306 78.8635 53.9124 79.0681C53.5943 79.2688 53.3462 79.534 53.1681 79.8635C52.9939 80.1893 52.9049 80.5472 52.9011 80.9374V82.1476C52.9011 82.6552 52.9939 83.0908 53.1795 83.4544C53.3651 83.8143 53.6246 84.0908 53.9579 84.284C54.2912 84.4734 54.6814 84.5681 55.1284 84.5681C55.4276 84.5681 55.6984 84.5264 55.9409 84.4431C56.1833 84.356 56.3935 84.2291 56.5715 84.0624C56.7496 83.8957 56.884 83.6893 56.9749 83.4431L58.8954 83.659C58.7742 84.1666 58.5431 84.6097 58.2022 84.9885C57.8651 85.3635 57.4333 85.6552 56.9068 85.8635C56.3802 86.0681 55.778 86.1704 55.0999 86.1704ZM67.6184 79.5794L65.7434 79.784C65.6904 79.5946 65.5976 79.4166 65.465 79.2499C65.3362 79.0832 65.162 78.9488 64.9423 78.8465C64.7226 78.7442 64.4536 78.6931 64.1355 78.6931C63.7074 78.6931 63.3476 78.7859 63.0559 78.9715C62.768 79.1571 62.626 79.3976 62.6298 79.6931C62.626 79.9469 62.7188 80.1533 62.9082 80.3124C63.1014 80.4715 63.4195 80.6022 63.8627 80.7044L65.3514 81.0226C66.1771 81.2007 66.7908 81.4829 67.1923 81.8692C67.5976 82.2556 67.8021 82.7613 67.8059 83.3863C67.8021 83.9355 67.6411 84.4204 67.323 84.8408C67.0086 85.2575 66.5711 85.5832 66.0105 85.8181C65.4498 86.0529 64.8059 86.1704 64.0786 86.1704C63.0105 86.1704 62.1506 85.9469 61.4991 85.4999C60.8476 85.0491 60.4593 84.4222 60.3343 83.6192L62.34 83.426C62.4309 83.82 62.6241 84.1173 62.9195 84.3181C63.215 84.5188 63.5995 84.6192 64.073 84.6192C64.5616 84.6192 64.9536 84.5188 65.2491 84.3181C65.5483 84.1173 65.698 83.8692 65.698 83.5738C65.698 83.3238 65.6014 83.1173 65.4082 82.9544C65.2188 82.7916 64.9233 82.6666 64.5218 82.5794L63.0332 82.2669C62.1961 82.0927 61.5767 81.7991 61.1752 81.3863C60.7737 80.9696 60.5748 80.4431 60.5786 79.8067C60.5748 79.2688 60.7207 78.8029 61.0161 78.409C61.3154 78.0113 61.7302 77.7044 62.2605 77.4885C62.7945 77.2688 63.4101 77.159 64.107 77.159C65.1298 77.159 65.9347 77.3768 66.5218 77.8124C67.1127 78.248 67.4783 78.837 67.6184 79.5794ZM77.2775 86.1704C76.4252 86.1704 75.6866 85.9829 75.0616 85.6079C74.4366 85.2329 73.9517 84.7082 73.607 84.034C73.2661 83.3597 73.0957 82.5719 73.0957 81.6704C73.0957 80.7688 73.2661 79.9791 73.607 79.301C73.9517 78.623 74.4366 78.0965 75.0616 77.7215C75.6866 77.3465 76.4252 77.159 77.2775 77.159C78.1298 77.159 78.8684 77.3465 79.4934 77.7215C80.1184 78.0965 80.6014 78.623 80.9423 79.301C81.287 79.9791 81.4593 80.7688 81.4593 81.6704C81.4593 82.5719 81.287 83.3597 80.9423 84.034C80.6014 84.7082 80.1184 85.2329 79.4934 85.6079C78.8684 85.9829 78.1298 86.1704 77.2775 86.1704ZM77.2889 84.5226C77.751 84.5226 78.1373 84.3957 78.448 84.1419C78.7586 83.8844 78.9896 83.5397 79.1411 83.1079C79.2964 82.676 79.3741 82.195 79.3741 81.6647C79.3741 81.1306 79.2964 80.6476 79.1411 80.2158C78.9896 79.7802 78.7586 79.4336 78.448 79.176C78.1373 78.9185 77.751 78.7897 77.2889 78.7897C76.8154 78.7897 76.4214 78.9185 76.107 79.176C75.7964 79.4336 75.5635 79.7802 75.4082 80.2158C75.2567 80.6476 75.1809 81.1306 75.1809 81.6647C75.1809 82.195 75.2567 82.676 75.4082 83.1079C75.5635 83.5397 75.7964 83.8844 76.107 84.1419C76.4214 84.3957 76.8154 84.5226 77.2889 84.5226ZM85.2619 80.8863V85.9999H83.2051V77.2726H85.171V78.7556H85.2732C85.474 78.2669 85.7941 77.8787 86.2335 77.5908C86.6766 77.3029 87.224 77.159 87.8755 77.159C88.4778 77.159 89.0024 77.2878 89.4494 77.5454C89.9001 77.8029 90.2486 78.176 90.4948 78.6647C90.7448 79.1533 90.8679 79.7461 90.8641 80.4431V85.9999H88.8073V80.7613C88.8073 80.1779 88.6558 79.7215 88.3528 79.3919C88.0535 79.0624 87.6388 78.8976 87.1085 78.8976C86.7486 78.8976 86.4285 78.9772 86.1482 79.1363C85.8717 79.2916 85.6539 79.5169 85.4948 79.8124C85.3395 80.1079 85.2619 80.4658 85.2619 80.8863ZM101.282 77.2726V78.8635H96.2647V77.2726H101.282ZM97.5034 75.1817H99.5602V83.3749C99.5602 83.6514 99.6018 83.8635 99.6852 84.0113C99.7723 84.1552 99.8859 84.2537 100.026 84.3067C100.166 84.3597 100.322 84.3863 100.492 84.3863C100.621 84.3863 100.738 84.3768 100.844 84.3579C100.954 84.3389 101.038 84.3219 101.094 84.3067L101.441 85.9147C101.331 85.9526 101.174 85.9942 100.969 86.0397C100.769 86.0851 100.522 86.1116 100.231 86.1192C99.7155 86.1344 99.2515 86.0567 98.8386 85.8863C98.4257 85.712 98.098 85.4431 97.8556 85.0794C97.617 84.7158 97.4996 84.2613 97.5034 83.7158V75.1817ZM105.246 80.8863V85.9999H103.19V74.3635H105.201V78.7556H105.303C105.508 78.2632 105.824 77.8749 106.252 77.5908C106.684 77.3029 107.233 77.159 107.9 77.159C108.506 77.159 109.034 77.2859 109.485 77.5397C109.936 77.7935 110.284 78.1647 110.531 78.6533C110.781 79.1419 110.906 79.7385 110.906 80.4431V85.9999H108.849V80.7613C108.849 80.1741 108.697 79.7177 108.394 79.3919C108.095 79.0624 107.674 78.8976 107.133 78.8976C106.769 78.8976 106.443 78.9772 106.156 79.1363C105.871 79.2916 105.648 79.5169 105.485 79.8124C105.326 80.1079 105.246 80.4658 105.246 80.8863ZM116.866 86.1704C115.991 86.1704 115.235 85.9885 114.599 85.6249C113.966 85.2575 113.479 84.7385 113.138 84.0681C112.798 83.3938 112.627 82.6003 112.627 81.6874C112.627 80.7897 112.798 80.0018 113.138 79.3238C113.483 78.6419 113.964 78.1116 114.582 77.7329C115.199 77.3503 115.924 77.159 116.758 77.159C117.296 77.159 117.803 77.2461 118.281 77.4204C118.762 77.5908 119.186 77.856 119.553 78.2158C119.924 78.5757 120.216 79.034 120.428 79.5908C120.64 80.1438 120.746 80.8029 120.746 81.5681V82.1988H113.593V80.8124H118.775C118.771 80.4185 118.686 80.0681 118.519 79.7613C118.353 79.4507 118.12 79.2063 117.82 79.0283C117.525 78.8503 117.18 78.7613 116.786 78.7613C116.366 78.7613 115.996 78.8635 115.678 79.0681C115.36 79.2688 115.112 79.534 114.934 79.8635C114.76 80.1893 114.671 80.5472 114.667 80.9374V82.1476C114.667 82.6552 114.76 83.0908 114.945 83.4544C115.131 83.8143 115.39 84.0908 115.724 84.284C116.057 84.4734 116.447 84.5681 116.894 84.5681C117.193 84.5681 117.464 84.5264 117.707 84.4431C117.949 84.356 118.159 84.2291 118.337 84.0624C118.515 83.8957 118.65 83.6893 118.741 83.4431L120.661 83.659C120.54 84.1666 120.309 84.6097 119.968 84.9885C119.631 85.3635 119.199 85.6552 118.673 85.8635C118.146 86.0681 117.544 86.1704 116.866 86.1704ZM128.512 74.3635V85.9999H126.455V74.3635H128.512ZM133.138 86.176C132.585 86.176 132.087 86.0776 131.644 85.8806C131.205 85.6798 130.856 85.3844 130.599 84.9942C130.345 84.6041 130.218 84.123 130.218 83.551C130.218 83.0586 130.309 82.6514 130.491 82.3294C130.673 82.0075 130.921 81.7499 131.235 81.5567C131.549 81.3635 131.904 81.2177 132.298 81.1192C132.695 81.0169 133.106 80.9431 133.531 80.8976C134.042 80.8446 134.457 80.7972 134.775 80.7556C135.093 80.7101 135.324 80.6419 135.468 80.551C135.616 80.4563 135.69 80.3105 135.69 80.1135V80.0794C135.69 79.6514 135.563 79.32 135.309 79.0851C135.055 78.8503 134.69 78.7329 134.212 78.7329C133.709 78.7329 133.309 78.8427 133.013 79.0624C132.722 79.2821 132.525 79.5416 132.423 79.8408L130.502 79.5681C130.654 79.0378 130.904 78.5946 131.252 78.2385C131.601 77.8787 132.027 77.6097 132.531 77.4317C133.034 77.2499 133.591 77.159 134.201 77.159C134.621 77.159 135.04 77.2082 135.457 77.3067C135.873 77.4052 136.254 77.5681 136.599 77.7954C136.943 78.0188 137.22 78.3238 137.428 78.7101C137.64 79.0965 137.746 79.5794 137.746 80.159V85.9999H135.769V84.801H135.701C135.576 85.0435 135.4 85.2707 135.173 85.4829C134.949 85.6912 134.667 85.8597 134.326 85.9885C133.989 86.1135 133.593 86.176 133.138 86.176ZM133.673 84.6647C134.085 84.6647 134.443 84.5832 134.746 84.4204C135.049 84.2537 135.282 84.034 135.445 83.7613C135.612 83.4885 135.695 83.1912 135.695 82.8692V81.8408C135.631 81.8938 135.521 81.9431 135.366 81.9885C135.214 82.034 135.044 82.0738 134.854 82.1079C134.665 82.1419 134.478 82.1722 134.292 82.1988C134.106 82.2253 133.945 82.248 133.809 82.2669C133.502 82.3086 133.228 82.3768 132.985 82.4715C132.743 82.5662 132.551 82.6988 132.411 82.8692C132.271 83.0359 132.201 83.2518 132.201 83.5169C132.201 83.8957 132.339 84.1817 132.616 84.3749C132.892 84.5681 133.245 84.6647 133.673 84.6647ZM144.173 77.2726V78.8635H139.156V77.2726H144.173ZM140.394 75.1817H142.451V83.3749C142.451 83.6514 142.493 83.8635 142.576 84.0113C142.663 84.1552 142.777 84.2537 142.917 84.3067C143.057 84.3597 143.212 84.3863 143.383 84.3863C143.512 84.3863 143.629 84.3768 143.735 84.3579C143.845 84.3389 143.928 84.3219 143.985 84.3067L144.332 85.9147C144.222 85.9526 144.065 85.9942 143.86 86.0397C143.659 86.0851 143.413 86.1116 143.121 86.1192C142.606 86.1344 142.142 86.0567 141.729 85.8863C141.317 85.712 140.989 85.4431 140.746 85.0794C140.508 84.7158 140.39 84.2613 140.394 83.7158V75.1817ZM149.663 86.1704C148.788 86.1704 148.032 85.9885 147.396 85.6249C146.763 85.2575 146.276 84.7385 145.935 84.0681C145.594 83.3938 145.424 82.6003 145.424 81.6874C145.424 80.7897 145.594 80.0018 145.935 79.3238C146.28 78.6419 146.761 78.1116 147.379 77.7329C147.996 77.3503 148.721 77.159 149.555 77.159C150.093 77.159 150.6 77.2461 151.077 77.4204C151.558 77.5908 151.983 77.856 152.35 78.2158C152.721 78.5757 153.013 79.034 153.225 79.5908C153.437 80.1438 153.543 80.8029 153.543 81.5681V82.1988H146.39V80.8124H151.572C151.568 80.4185 151.483 80.0681 151.316 79.7613C151.149 79.4507 150.916 79.2063 150.617 79.0283C150.322 78.8503 149.977 78.7613 149.583 78.7613C149.163 78.7613 148.793 78.8635 148.475 79.0681C148.157 79.2688 147.909 79.534 147.731 79.8635C147.557 80.1893 147.468 80.5472 147.464 80.9374V82.1476C147.464 82.6552 147.557 83.0908 147.742 83.4544C147.928 83.8143 148.187 84.0908 148.521 84.284C148.854 84.4734 149.244 84.5681 149.691 84.5681C149.99 84.5681 150.261 84.5264 150.504 84.4431C150.746 84.356 150.956 84.2291 151.134 84.0624C151.312 83.8957 151.447 83.6893 151.538 83.4431L153.458 83.659C153.337 84.1666 153.106 84.6097 152.765 84.9885C152.428 85.3635 151.996 85.6552 151.469 85.8635C150.943 86.0681 150.341 86.1704 149.663 86.1704ZM162.181 79.5794L160.306 79.784C160.253 79.5946 160.16 79.4166 160.028 79.2499C159.899 79.0832 159.725 78.9488 159.505 78.8465C159.285 78.7442 159.016 78.6931 158.698 78.6931C158.27 78.6931 157.91 78.7859 157.619 78.9715C157.331 79.1571 157.189 79.3976 157.192 79.6931C157.189 79.9469 157.281 80.1533 157.471 80.3124C157.664 80.4715 157.982 80.6022 158.425 80.7044L159.914 81.0226C160.74 81.2007 161.353 81.4829 161.755 81.8692C162.16 82.2556 162.365 82.7613 162.369 83.3863C162.365 83.9355 162.204 84.4204 161.886 84.8408C161.571 85.2575 161.134 85.5832 160.573 85.8181C160.013 86.0529 159.369 86.1704 158.641 86.1704C157.573 86.1704 156.713 85.9469 156.062 85.4999C155.41 85.0491 155.022 84.4222 154.897 83.6192L156.903 83.426C156.994 83.82 157.187 84.1173 157.482 84.3181C157.778 84.5188 158.162 84.6192 158.636 84.6192C159.124 84.6192 159.516 84.5188 159.812 84.3181C160.111 84.1173 160.261 83.8692 160.261 83.5738C160.261 83.3238 160.164 83.1173 159.971 82.9544C159.781 82.7916 159.486 82.6666 159.085 82.5794L157.596 82.2669C156.759 82.0927 156.139 81.7991 155.738 81.3863C155.336 80.9696 155.138 80.4431 155.141 79.8067C155.138 79.2688 155.283 78.8029 155.579 78.409C155.878 78.0113 156.293 77.7044 156.823 77.4885C157.357 77.2688 157.973 77.159 158.67 77.159C159.692 77.159 160.497 77.3768 161.085 77.8124C161.675 78.248 162.041 78.837 162.181 79.5794ZM168.423 77.2726V78.8635H163.406V77.2726H168.423ZM164.644 75.1817H166.701V83.3749C166.701 83.6514 166.743 83.8635 166.826 84.0113C166.913 84.1552 167.027 84.2537 167.167 84.3067C167.307 84.3597 167.462 84.3863 167.633 84.3863C167.762 84.3863 167.879 84.3768 167.985 84.3579C168.095 84.3389 168.178 84.3219 168.235 84.3067L168.582 85.9147C168.472 85.9526 168.315 85.9942 168.11 86.0397C167.909 86.0851 167.663 86.1116 167.371 86.1192C166.856 86.1344 166.392 86.0567 165.979 85.8863C165.567 85.712 165.239 85.4431 164.996 85.0794C164.758 84.7158 164.64 84.2613 164.644 83.7158V75.1817ZM177.918 86.1704C177.047 86.1704 176.299 85.9791 175.674 85.5965C175.053 85.2139 174.574 84.6855 174.237 84.0113C173.903 83.3332 173.737 82.5529 173.737 81.6704C173.737 80.784 173.907 80.0018 174.248 79.3238C174.589 78.6419 175.07 78.1116 175.691 77.7329C176.316 77.3503 177.055 77.159 177.907 77.159C178.615 77.159 179.242 77.2897 179.788 77.551C180.337 77.8086 180.774 78.1741 181.1 78.6476C181.426 79.1173 181.612 79.6666 181.657 80.2954H179.691C179.612 79.8749 179.422 79.5245 179.123 79.2442C178.827 78.9601 178.432 78.8181 177.935 78.8181C177.515 78.8181 177.146 78.9317 176.827 79.159C176.509 79.3825 176.261 79.7044 176.083 80.1249C175.909 80.5454 175.822 81.0491 175.822 81.6363C175.822 82.231 175.909 82.7423 176.083 83.1704C176.257 83.5946 176.502 83.9222 176.816 84.1533C177.134 84.3806 177.507 84.4942 177.935 84.4942C178.238 84.4942 178.509 84.4374 178.748 84.3238C178.99 84.2063 179.193 84.0378 179.356 83.8181C179.519 83.5984 179.63 83.3313 179.691 83.0169H181.657C181.608 83.6344 181.426 84.1817 181.112 84.659C180.797 85.1325 180.369 85.5037 179.827 85.7726C179.286 86.0378 178.649 86.1704 177.918 86.1704ZM183.346 85.9999V77.2726H185.34V78.7272H185.431C185.59 78.2234 185.863 77.8351 186.249 77.5624C186.639 77.2859 187.085 77.1476 187.585 77.1476C187.698 77.1476 187.825 77.1533 187.965 77.1647C188.109 77.1722 188.228 77.1855 188.323 77.2044V79.0965C188.236 79.0662 188.098 79.0397 187.908 79.0169C187.723 78.9904 187.543 78.9772 187.369 78.9772C186.994 78.9772 186.656 79.0586 186.357 79.2215C186.062 79.3806 185.829 79.6022 185.658 79.8863C185.488 80.1704 185.403 80.498 185.403 80.8692V85.9999H183.346ZM191.234 89.2726C190.953 89.2726 190.694 89.2499 190.455 89.2044C190.22 89.1628 190.033 89.1135 189.893 89.0567L190.37 87.4544C190.669 87.5416 190.936 87.5832 191.171 87.5794C191.406 87.5757 191.612 87.5018 191.79 87.3579C191.972 87.2177 192.126 86.9829 192.251 86.6533L192.427 86.1817L189.262 77.2726H191.444L193.455 83.8635H193.546L195.563 77.2726H197.751L194.256 87.0567C194.094 87.5188 193.878 87.9147 193.609 88.2442C193.34 88.5776 193.01 88.8313 192.62 89.0056C192.234 89.1836 191.772 89.2726 191.234 89.2726ZM199.174 89.2726V77.2726H201.197V78.7158H201.316C201.422 78.5037 201.572 78.2783 201.765 78.0397C201.958 77.7972 202.219 77.5908 202.549 77.4204C202.879 77.2461 203.299 77.159 203.81 77.159C204.485 77.159 205.093 77.3313 205.634 77.676C206.18 78.0169 206.612 78.5226 206.93 79.1931C207.252 79.8597 207.413 80.6779 207.413 81.6476C207.413 82.606 207.255 83.4204 206.941 84.0908C206.627 84.7613 206.199 85.2726 205.657 85.6249C205.115 85.9772 204.502 86.1533 203.816 86.1533C203.316 86.1533 202.901 86.07 202.572 85.9033C202.242 85.7366 201.977 85.5359 201.776 85.301C201.579 85.0624 201.426 84.837 201.316 84.6249H201.231V89.2726H199.174ZM201.191 81.6363C201.191 82.2007 201.271 82.695 201.43 83.1192C201.593 83.5435 201.826 83.8749 202.129 84.1135C202.435 84.3484 202.807 84.4658 203.242 84.4658C203.697 84.4658 204.077 84.3446 204.384 84.1022C204.691 83.856 204.922 83.5207 205.077 83.0965C205.237 82.6685 205.316 82.1817 205.316 81.6363C205.316 81.0946 205.238 80.6135 205.083 80.1931C204.928 79.7726 204.697 79.4431 204.39 79.2044C204.083 78.9658 203.701 78.8465 203.242 78.8465C202.803 78.8465 202.43 78.962 202.123 79.1931C201.816 79.4241 201.583 79.748 201.424 80.1647C201.269 80.5813 201.191 81.0719 201.191 81.6363ZM213.532 77.2726V78.8635H208.515V77.2726H213.532ZM209.754 75.1817H211.81V83.3749C211.81 83.6514 211.852 83.8635 211.935 84.0113C212.022 84.1552 212.136 84.2537 212.276 84.3067C212.416 84.3597 212.572 84.3863 212.742 84.3863C212.871 84.3863 212.988 84.3768 213.094 84.3579C213.204 84.3389 213.288 84.3219 213.344 84.3067L213.691 85.9147C213.581 85.9526 213.424 85.9942 213.219 86.0397C213.019 86.0851 212.772 86.1116 212.481 86.1192C211.966 86.1344 211.502 86.0567 211.089 85.8863C210.676 85.712 210.348 85.4431 210.106 85.0794C209.867 84.7158 209.75 84.2613 209.754 83.7158V75.1817ZM218.965 86.1704C218.113 86.1704 217.374 85.9829 216.749 85.6079C216.124 85.2329 215.639 84.7082 215.295 84.034C214.954 83.3597 214.783 82.5719 214.783 81.6704C214.783 80.7688 214.954 79.9791 215.295 79.301C215.639 78.623 216.124 78.0965 216.749 77.7215C217.374 77.3465 218.113 77.159 218.965 77.159C219.817 77.159 220.556 77.3465 221.181 77.7215C221.806 78.0965 222.289 78.623 222.63 79.301C222.975 79.9791 223.147 80.7688 223.147 81.6704C223.147 82.5719 222.975 83.3597 222.63 84.034C222.289 84.7082 221.806 85.2329 221.181 85.6079C220.556 85.9829 219.817 86.1704 218.965 86.1704ZM218.977 84.5226C219.439 84.5226 219.825 84.3957 220.136 84.1419C220.446 83.8844 220.677 83.5397 220.829 83.1079C220.984 82.676 221.062 82.195 221.062 81.6647C221.062 81.1306 220.984 80.6476 220.829 80.2158C220.677 79.7802 220.446 79.4336 220.136 79.176C219.825 78.9185 219.439 78.7897 218.977 78.7897C218.503 78.7897 218.109 78.9185 217.795 79.176C217.484 79.4336 217.251 79.7802 217.096 80.2158C216.944 80.6476 216.869 81.1306 216.869 81.6647C216.869 82.195 216.944 82.676 217.096 83.1079C217.251 83.5397 217.484 83.8844 217.795 84.1419C218.109 84.3957 218.503 84.5226 218.977 84.5226ZM230.918 80.8863V85.9999H228.862V77.2726H230.827V78.7556H230.93C231.13 78.2669 231.451 77.8787 231.89 77.5908C232.333 77.3029 232.88 77.159 233.532 77.159C234.134 77.159 234.659 77.2878 235.106 77.5454C235.557 77.8029 235.905 78.176 236.151 78.6647C236.401 79.1533 236.524 79.7461 236.521 80.4431V85.9999H234.464V80.7613C234.464 80.1779 234.312 79.7215 234.009 79.3919C233.71 79.0624 233.295 78.8976 232.765 78.8976C232.405 78.8976 232.085 78.9772 231.805 79.1363C231.528 79.2916 231.31 79.5169 231.151 79.8124C230.996 80.1079 230.918 80.4658 230.918 80.8863ZM242.475 86.1704C241.6 86.1704 240.844 85.9885 240.208 85.6249C239.576 85.2575 239.089 84.7385 238.748 84.0681C238.407 83.3938 238.237 82.6003 238.237 81.6874C238.237 80.7897 238.407 80.0018 238.748 79.3238C239.093 78.6419 239.574 78.1116 240.191 77.7329C240.808 77.3503 241.534 77.159 242.367 77.159C242.905 77.159 243.413 77.2461 243.89 77.4204C244.371 77.5908 244.795 77.856 245.163 78.2158C245.534 78.5757 245.826 79.034 246.038 79.5908C246.25 80.1438 246.356 80.8029 246.356 81.5681V82.1988H239.202V80.8124H244.384C244.38 80.4185 244.295 80.0681 244.129 79.7613C243.962 79.4507 243.729 79.2063 243.43 79.0283C243.134 78.8503 242.79 78.7613 242.396 78.7613C241.975 78.7613 241.606 78.8635 241.288 79.0681C240.969 79.2688 240.721 79.534 240.543 79.8635C240.369 80.1893 240.28 80.5472 240.276 80.9374V82.1476C240.276 82.6552 240.369 83.0908 240.555 83.4544C240.74 83.8143 241 84.0908 241.333 84.284C241.666 84.4734 242.057 84.5681 242.504 84.5681C242.803 84.5681 243.074 84.5264 243.316 84.4431C243.558 84.356 243.769 84.2291 243.947 84.0624C244.125 83.8957 244.259 83.6893 244.35 83.4431L246.271 83.659C246.149 84.1666 245.918 84.6097 245.577 84.9885C245.24 85.3635 244.808 85.6552 244.282 85.8635C243.755 86.0681 243.153 86.1704 242.475 86.1704ZM249.85 85.9999L247.384 77.2726H249.481L251.015 83.409H251.094L252.663 77.2726H254.737L256.305 83.3749H256.39L257.901 77.2726H260.004L257.532 85.9999H255.39L253.754 80.1022H253.634L251.998 85.9999H249.85ZM268.337 79.5794L266.462 79.784C266.409 79.5946 266.317 79.4166 266.184 79.2499C266.055 79.0832 265.881 78.9488 265.661 78.8465C265.442 78.7442 265.173 78.6931 264.854 78.6931C264.426 78.6931 264.067 78.7859 263.775 78.9715C263.487 79.1571 263.345 79.3976 263.349 79.6931C263.345 79.9469 263.438 80.1533 263.627 80.3124C263.82 80.4715 264.138 80.6022 264.582 80.7044L266.07 81.0226C266.896 81.2007 267.51 81.4829 267.911 81.8692C268.317 82.2556 268.521 82.7613 268.525 83.3863C268.521 83.9355 268.36 84.4204 268.042 84.8408C267.728 85.2575 267.29 85.5832 266.729 85.8181C266.169 86.0529 265.525 86.1704 264.798 86.1704C263.729 86.1704 262.87 85.9469 262.218 85.4999C261.567 85.0491 261.178 84.4222 261.053 83.6192L263.059 83.426C263.15 83.82 263.343 84.1173 263.638 84.3181C263.934 84.5188 264.318 84.6192 264.792 84.6192C265.281 84.6192 265.673 84.5188 265.968 84.3181C266.267 84.1173 266.417 83.8692 266.417 83.5738C266.417 83.3238 266.32 83.1173 266.127 82.9544C265.938 82.7916 265.642 82.6666 265.241 82.5794L263.752 82.2669C262.915 82.0927 262.296 81.7991 261.894 81.3863C261.493 80.9696 261.294 80.4431 261.298 79.8067C261.294 79.2688 261.44 78.8029 261.735 78.409C262.034 78.0113 262.449 77.7044 262.979 77.4885C263.513 77.2688 264.129 77.159 264.826 77.159C265.849 77.159 266.654 77.3768 267.241 77.8124C267.832 78.248 268.197 78.837 268.337 79.5794ZM271.488 86.1249C271.143 86.1249 270.848 86.0037 270.602 85.7613C270.355 85.5188 270.234 85.2234 270.238 84.8749C270.234 84.534 270.355 84.2423 270.602 83.9999C270.848 83.7575 271.143 83.6363 271.488 83.6363C271.821 83.6363 272.111 83.7575 272.357 83.9999C272.607 84.2423 272.734 84.534 272.738 84.8749C272.734 85.106 272.674 85.3162 272.556 85.5056C272.442 85.695 272.291 85.8465 272.102 85.9601C271.916 86.07 271.711 86.1249 271.488 86.1249Z" fill="#333333"/>
<path opacity="0.3" d="M140 139C140 137.895 139.105 137 138 137C136.895 137 136 137.895 136 139C136 140.105 136.895 141 138 141C139.105 141 140 140.105 140 139Z" fill="#707070"/>
<path d="M153 139C153 136.791 151.209 135 149 135C146.791 135 145 136.791 145 139C145 141.209 146.791 143 149 143C151.209 143 153 141.209 153 139Z" fill="#3700B3"/>
<path opacity="0.3" d="M131 139C131 137.895 130.105 137 129 137C127.895 137 127 137.895 127 139C127 140.105 127.895 141 129 141C130.105 141 131 140.105 131 139Z" fill="#707070"/>
</svg>
