<svg width="279" height="162" viewBox="0 0 279 162" fill="none" xmlns="http://www.w3.org/2000/svg">
<path d="M19.5147 12.3245H22.7129C22.6859 9.7403 20.628 7.99279 17.4163 7.99279C14.2587 7.99279 11.9849 9.71331 12.0051 12.284C11.9984 14.3824 13.4693 15.5631 15.8578 16.1096L17.3016 16.447C18.8198 16.7978 19.5012 17.2094 19.5147 17.9853C19.5012 18.8287 18.7118 19.4157 17.3691 19.4157C15.8915 19.4157 14.9199 18.7275 14.8457 17.3983H11.6475C11.688 20.6302 13.9348 22.1753 17.4096 22.1753C20.8507 22.1753 22.8883 20.6167 22.9018 17.9921C22.8883 15.7858 21.3972 14.4363 18.6713 13.8358L17.4838 13.566C16.2288 13.2961 15.4327 12.8777 15.4597 12.0546C15.4664 11.2989 16.1141 10.7524 17.4096 10.7524C18.7118 10.7524 19.427 11.3394 19.5147 12.3245ZM30.003 22.1956C32.7221 22.1956 34.5101 20.8799 34.888 18.8422L31.8585 18.7545C31.6021 19.4427 30.9274 19.8138 30.0638 19.8138C28.7953 19.8138 28.0126 18.9704 28.0126 17.702V17.6142H34.9217V16.7911C34.9217 13.377 32.8436 11.5013 29.9018 11.5013C26.7711 11.5013 24.7605 13.6469 24.7605 16.8586C24.7605 20.1782 26.7442 22.1956 30.003 22.1956ZM28.0126 15.6981C28.0599 14.6657 28.8763 13.8831 29.9693 13.8831C31.0556 13.8831 31.8383 14.6387 31.8518 15.6981H28.0126ZM40.4762 16.0894C40.4829 14.9086 41.1711 14.2069 42.2169 14.2069C43.2628 14.2069 43.8835 14.8951 43.8767 16.0422V21.9999H47.1761V15.3944C47.1829 13.0599 45.7592 11.5013 43.5799 11.5013C42.0483 11.5013 40.8878 12.2772 40.429 13.539H40.3142V11.6363H37.1768V21.9999H40.4762V16.0894ZM53.574 22.1483C55.1393 22.1483 56.0704 21.278 56.4887 20.3199H56.5899V21.9999H59.8556V8.18171H56.5562V13.4108H56.4887C56.0974 12.4594 55.1933 11.5013 53.5605 11.5013C51.3946 11.5013 49.4312 13.1679 49.4312 16.8248C49.4312 20.3536 51.2867 22.1483 53.574 22.1483ZM54.721 19.5777C53.4997 19.5777 52.8183 18.4914 52.8183 16.8181C52.8183 15.1515 53.493 14.0787 54.721 14.0787C55.9287 14.0787 56.6304 15.1245 56.6304 16.8181C56.6304 18.4981 55.922 19.5777 54.721 19.5777ZM70.1532 21.9999L71.064 19.0986H75.8343L76.7451 21.9999H80.3346L75.6723 8.18171H71.226L66.5637 21.9999H70.1532ZM71.8602 16.5617L73.3918 11.6633H73.4997L75.0381 16.5617H71.8602ZM85.6917 16.0894C85.6985 14.9086 86.3867 14.2069 87.4325 14.2069C88.4783 14.2069 89.099 14.8951 89.0923 16.0422V21.9999H92.3917V15.3944C92.3984 13.0599 90.9748 11.5013 88.7954 11.5013C87.2638 11.5013 86.1033 12.2772 85.6445 13.539H85.5298V11.6363H82.3924V21.9999H85.6917V16.0894ZM98.7895 22.1483C100.355 22.1483 101.286 21.278 101.704 20.3199H101.806V21.9999H105.071V8.18171H101.772V13.4108H101.704C101.313 12.4594 100.409 11.5013 98.776 11.5013C96.6102 11.5013 94.6468 13.1679 94.6468 16.8248C94.6468 20.3536 96.5022 22.1483 98.7895 22.1483ZM99.9365 19.5777C98.7153 19.5777 98.0338 18.4914 98.0338 16.8181C98.0338 15.1515 98.7085 14.0787 99.9365 14.0787C101.144 14.0787 101.846 15.1245 101.846 16.8181C101.846 18.4981 101.138 19.5777 99.9365 19.5777ZM112.38 21.9999H115.72V17.2701H117.434L119.957 21.9999H123.6L120.733 16.7371C122.251 16.0489 123.128 14.6927 123.128 12.7833C123.128 9.94272 121.192 8.18171 118.088 8.18171H112.38V21.9999ZM115.72 14.6387V10.8738H117.366C118.864 10.8738 119.667 11.5013 119.667 12.7833C119.667 14.0652 118.864 14.6387 117.366 14.6387H115.72ZM130.17 22.1956C132.889 22.1956 134.677 20.8799 135.055 18.8422L132.026 18.7545C131.769 19.4427 131.095 19.8138 130.231 19.8138C128.963 19.8138 128.18 18.9704 128.18 17.702V17.6142H135.089V16.7911C135.089 13.377 133.011 11.5013 130.069 11.5013C126.938 11.5013 124.928 13.6469 124.928 16.8586C124.928 20.1782 126.911 22.1956 130.17 22.1956ZM128.18 15.6981C128.227 14.6657 129.044 13.8831 130.137 13.8831C131.223 13.8831 132.006 14.6387 132.019 15.6981H128.18ZM142.182 22.1956C145.097 22.1956 146.905 20.502 146.993 17.9381H143.909C143.788 19.0379 143.126 19.6384 142.222 19.6384C141.062 19.6384 140.306 18.6601 140.306 16.8181C140.306 14.9896 141.069 14.0113 142.222 14.0113C143.167 14.0113 143.781 14.6522 143.909 15.7115H146.993C146.918 13.1611 145.056 11.5013 142.175 11.5013C138.916 11.5013 136.946 13.6739 136.946 16.8518C136.946 20.0162 138.903 22.1956 142.182 22.1956ZM154.096 22.1956C156.815 22.1956 158.603 20.8799 158.98 18.8422L155.951 18.7545C155.695 19.4427 155.02 19.8138 154.156 19.8138C152.888 19.8138 152.105 18.9704 152.105 17.702V17.6142H159.014V16.7911C159.014 13.377 156.936 11.5013 153.994 11.5013C150.864 11.5013 148.853 13.6469 148.853 16.8586C148.853 20.1782 150.837 22.1956 154.096 22.1956ZM152.105 15.6981C152.152 14.6657 152.969 13.8831 154.062 13.8831C155.148 13.8831 155.931 14.6387 155.944 15.6981H152.105ZM161.269 21.9999H164.569V11.6363H161.269V21.9999ZM162.922 10.4285C163.86 10.4285 164.616 9.72006 164.616 8.84968C164.616 7.97929 163.86 7.27759 162.922 7.27759C161.991 7.27759 161.229 7.97929 161.229 8.84968C161.229 9.72006 161.991 10.4285 162.922 10.4285ZM177.292 11.6363H173.817L171.901 18.7748H171.793L169.884 11.6363H166.409L169.958 21.9999H173.736L177.292 11.6363ZM183.638 22.1956C186.357 22.1956 188.145 20.8799 188.522 18.8422L185.493 18.7545C185.237 19.4427 184.562 19.8138 183.698 19.8138C182.43 19.8138 181.647 18.9704 181.647 17.702V17.6142H188.556V16.7911C188.556 13.377 186.478 11.5013 183.536 11.5013C180.406 11.5013 178.395 13.6469 178.395 16.8586C178.395 20.1782 180.379 22.1956 183.638 22.1956ZM181.647 15.6981C181.694 14.6657 182.511 13.8831 183.604 13.8831C184.69 13.8831 185.473 14.6387 185.486 15.6981H181.647ZM195.463 8.18171V21.9999H198.715V13.4647H198.83L202.15 21.9122H204.228L207.548 13.512H207.662V21.9999H210.914V8.18171H206.778L203.27 16.7371H203.108L199.599 8.18171H195.463ZM218.405 22.1956C221.664 22.1956 223.641 20.0432 223.641 16.8518C223.641 13.6537 221.664 11.5013 218.405 11.5013C215.146 11.5013 213.169 13.6537 213.169 16.8518C213.169 20.0432 215.146 22.1956 218.405 22.1956ZM218.425 19.7059C217.204 19.7059 216.53 18.5454 216.53 16.8316C216.53 15.1111 217.204 13.9438 218.425 13.9438C219.606 13.9438 220.281 15.1111 220.281 16.8316C220.281 18.5454 219.606 19.7059 218.425 19.7059ZM229.201 16.0894C229.207 14.9086 229.896 14.2069 230.941 14.2069C231.987 14.2069 232.608 14.8951 232.601 16.0422V21.9999H235.9V15.3944C235.907 13.0599 234.484 11.5013 232.304 11.5013C230.773 11.5013 229.612 12.2772 229.153 13.539H229.039V11.6363H225.901V21.9999H229.201V16.0894ZM243.358 22.1956C246.077 22.1956 247.865 20.8799 248.243 18.8422L245.213 18.7545C244.957 19.4427 244.282 19.8138 243.418 19.8138C242.15 19.8138 241.367 18.9704 241.367 17.702V17.6142H248.276V16.7911C248.276 13.377 246.198 11.5013 243.256 11.5013C240.126 11.5013 238.115 13.6469 238.115 16.8586C238.115 20.1782 240.099 22.1956 243.358 22.1956ZM241.367 15.6981C241.414 14.6657 242.231 13.8831 243.324 13.8831C244.41 13.8831 245.193 14.6387 245.206 15.6981H241.367ZM252.271 25.8863C254.646 25.8863 255.826 24.6853 256.4 22.9917L260.306 11.643L256.832 11.6363L254.895 19.0311H254.787L252.878 11.6363H249.423L253.107 22.3777L252.979 22.6881C252.662 23.464 251.947 23.4775 250.975 23.1604L250.246 25.5557C250.746 25.7581 251.481 25.8863 252.271 25.8863Z" fill="white"/>
<path d="M17.5548 49.4204H19.248C19.1968 47.5567 17.5491 46.2044 15.1855 46.2044C12.8502 46.2044 11.0605 47.5397 11.0605 49.5454C11.0605 51.1647 12.2196 52.1135 14.0889 52.6192L15.4639 52.9942C16.7082 53.3238 17.6684 53.7329 17.6684 54.7669C17.6684 55.9033 16.5832 56.6533 15.0889 56.6533C13.7366 56.6533 12.6116 56.051 12.5093 54.784H10.748C10.8616 56.8919 12.4923 58.1931 15.1002 58.1931C17.8332 58.1931 19.4071 56.7556 19.4071 54.784C19.4071 52.6874 17.5377 51.8749 16.0605 51.5113L14.9241 51.2158C14.015 50.9829 12.8048 50.5567 12.8105 49.4431C12.8105 48.4544 13.7139 47.7215 15.1457 47.7215C16.4809 47.7215 17.4298 48.3465 17.5548 49.4204ZM25.1301 58.176C27.0335 58.176 28.3801 57.2385 28.7664 55.8181L27.1585 55.5283C26.8517 56.3522 26.113 56.7726 25.1471 56.7726C23.6926 56.7726 22.7153 55.8294 22.6698 54.1476H28.8744V53.5454C28.8744 50.3919 26.988 49.159 25.0108 49.159C22.5789 49.159 20.9767 51.0113 20.9767 53.6931C20.9767 56.4033 22.5562 58.176 25.1301 58.176ZM22.6755 52.8749C22.7437 51.6363 23.6414 50.5624 25.0221 50.5624C26.3403 50.5624 27.2039 51.5397 27.2096 52.8749H22.6755ZM32.4582 52.8181C32.4582 51.426 33.3105 50.6306 34.4923 50.6306C35.6457 50.6306 36.3446 51.3863 36.3446 52.6533V57.9999H38.0434V52.4488C38.0434 50.2897 36.8559 49.159 35.0718 49.159C33.7593 49.159 32.9014 49.7669 32.498 50.6931H32.39V49.2726H30.7593V57.9999H32.4582V52.8181ZM43.5889 58.1704C45.1798 58.1704 45.8048 57.1988 46.1116 56.6419H46.2537V57.9999H47.9128V46.3635H46.2139V50.6874H46.1116C45.8048 50.1476 45.2253 49.159 43.6003 49.159C41.4924 49.159 39.9412 50.8238 39.9412 53.6533C39.9412 56.4772 41.4696 58.1704 43.5889 58.1704ZM43.9639 56.7215C42.4468 56.7215 41.6571 55.3863 41.6571 53.6363C41.6571 51.9033 42.4298 50.6022 43.9639 50.6022C45.4468 50.6022 46.2423 51.8124 46.2423 53.6363C46.2423 55.4715 45.4298 56.7215 43.9639 56.7215ZM57.9582 58.1647C59.0093 58.1647 60.1741 57.8124 60.9582 57.0794L61.7423 57.9999H63.6628L62.0093 56.0226C62.5037 55.3635 62.9753 54.3294 62.9753 52.7158H61.4412C61.4412 53.4942 61.2593 54.1874 60.9582 54.7669L58.6287 51.9829L59.4241 51.3976C60.39 50.6931 60.9697 49.8806 60.9697 48.7726C60.9697 47.4147 59.873 46.2385 58.0832 46.2385C56.3105 46.2385 55.1457 47.3806 55.1457 48.9885C55.1457 50.0283 55.6912 50.8522 56.4241 51.7442C55.0946 52.6647 54.1912 53.5226 54.1912 54.909C54.1912 56.7783 55.6173 58.1647 57.9582 58.1647ZM60.0037 55.9544C59.4014 56.4544 58.6798 56.7272 57.9639 56.7272C56.7025 56.7272 55.8787 55.8692 55.8787 54.8635C55.8787 54.5056 56.1798 53.7897 57.0889 53.1192L57.3957 52.8919L60.0037 55.9544ZM57.6912 50.8522C57.1627 50.2044 56.748 49.6079 56.748 49.0169C56.748 48.3408 57.3048 47.659 58.123 47.659C58.9071 47.659 59.4184 48.2726 59.4184 48.8181C59.4184 49.5113 59.0378 49.9317 58.4072 50.3465L57.6912 50.8522ZM69.2281 57.9999H70.9269V52.6704C70.9269 51.5283 71.8076 50.7044 73.0122 50.7044C73.3644 50.7044 73.7622 50.7669 73.8985 50.8067V49.1817C73.7281 49.159 73.3929 49.1419 73.1769 49.1419C72.1542 49.1419 71.2792 49.7215 70.961 50.659H70.8701V49.2726H69.2281V57.9999ZM78.8176 58.176C80.721 58.176 82.0676 57.2385 82.4539 55.8181L80.846 55.5283C80.5392 56.3522 79.8005 56.7726 78.8346 56.7726C77.3801 56.7726 76.4028 55.8294 76.3573 54.1476H82.5619V53.5454C82.5619 50.3919 80.6755 49.159 78.6983 49.159C76.2664 49.159 74.6642 51.0113 74.6642 53.6931C74.6642 56.4033 76.2437 58.176 78.8176 58.176ZM76.363 52.8749C76.4312 51.6363 77.3289 50.5624 78.7096 50.5624C80.0278 50.5624 80.8914 51.5397 80.8971 52.8749H76.363ZM88.123 58.176C90.1855 58.176 91.5207 56.9374 91.7082 55.2385H90.0548C89.8389 56.1817 89.1059 56.7385 88.1343 56.7385C86.6968 56.7385 85.7707 55.5397 85.7707 53.6363C85.7707 51.7669 86.7139 50.5908 88.1343 50.5908C89.2139 50.5908 89.873 51.2726 90.0548 52.0908H91.7082C91.5264 50.3294 90.0889 49.159 88.1059 49.159C85.6457 49.159 84.0548 51.0113 84.0548 53.676C84.0548 56.3067 85.5889 58.176 88.123 58.176ZM97.2863 58.176C99.1897 58.176 100.536 57.2385 100.923 55.8181L99.3147 55.5283C99.0079 56.3522 98.2693 56.7726 97.3034 56.7726C95.8488 56.7726 94.8715 55.8294 94.8261 54.1476H101.031V53.5454C101.031 50.3919 99.1443 49.159 97.167 49.159C94.7352 49.159 93.1329 51.0113 93.1329 53.6931C93.1329 56.4033 94.7125 58.176 97.2863 58.176ZM94.8318 52.8749C94.9 51.6363 95.7977 50.5624 97.1784 50.5624C98.4965 50.5624 99.3602 51.5397 99.3659 52.8749H94.8318ZM102.915 57.9999H104.614V49.2726H102.915V57.9999ZM103.773 47.926C104.359 47.926 104.847 47.4715 104.847 46.9147C104.847 46.3579 104.359 45.8976 103.773 45.8976C103.183 45.8976 102.7 46.3579 102.7 46.9147C102.7 47.4715 103.183 47.926 103.773 47.926ZM114.366 49.2726H112.542L110.337 55.9885H110.246L108.036 49.2726H106.212L109.383 57.9999H111.201L114.366 49.2726ZM119.411 58.176C121.315 58.176 122.661 57.2385 123.048 55.8181L121.44 55.5283C121.133 56.3522 120.394 56.7726 119.428 56.7726C117.974 56.7726 116.996 55.8294 116.951 54.1476H123.156V53.5454C123.156 50.3919 121.269 49.159 119.292 49.159C116.86 49.159 115.258 51.0113 115.258 53.6931C115.258 56.4033 116.837 58.176 119.411 58.176ZM116.957 52.8749C117.025 51.6363 117.923 50.5624 119.303 50.5624C120.621 50.5624 121.485 51.5397 121.491 52.8749H116.957ZM132.542 58.1704C134.133 58.1704 134.758 57.1988 135.065 56.6419H135.207V57.9999H136.866V46.3635H135.167V50.6874H135.065C134.758 50.1476 134.178 49.159 132.553 49.159C130.445 49.159 128.894 50.8238 128.894 53.6533C128.894 56.4772 130.423 58.1704 132.542 58.1704ZM132.917 56.7215C131.4 56.7215 130.61 55.3863 130.61 53.6363C130.61 51.9033 131.383 50.6022 132.917 50.6022C134.4 50.6022 135.195 51.8124 135.195 53.6363C135.195 55.4715 134.383 56.7215 132.917 56.7215ZM139.29 57.9999H140.989V49.2726H139.29V57.9999ZM140.148 47.926C140.734 47.926 141.222 47.4715 141.222 46.9147C141.222 46.3579 140.734 45.8976 140.148 45.8976C139.558 45.8976 139.075 46.3579 139.075 46.9147C139.075 47.4715 139.558 47.926 140.148 47.926ZM146.934 61.4544C149.156 61.4544 150.871 60.4374 150.871 58.1931V49.2726H149.207V50.6874H149.082C148.781 50.1476 148.178 49.159 146.553 49.159C144.445 49.159 142.894 50.8238 142.894 53.6022C142.894 56.3863 144.479 57.8692 146.542 57.8692C148.144 57.8692 148.763 56.9658 149.07 56.409H149.178V58.1249C149.178 59.4942 148.241 60.0851 146.951 60.0851C145.536 60.0851 144.985 59.3749 144.684 58.8749L143.224 59.4772C143.684 60.5454 144.849 61.4544 146.934 61.4544ZM146.917 56.4601C145.4 56.4601 144.61 55.2954 144.61 53.5794C144.61 51.9033 145.383 50.6022 146.917 50.6022C148.4 50.6022 149.195 51.8124 149.195 53.5794C149.195 55.3806 148.383 56.4601 146.917 56.4601ZM153.15 57.9999H154.849V49.2726H153.15V57.9999ZM154.008 47.926C154.593 47.926 155.082 47.4715 155.082 46.9147C155.082 46.3579 154.593 45.8976 154.008 45.8976C153.417 45.8976 152.934 46.3579 152.934 46.9147C152.934 47.4715 153.417 47.926 154.008 47.926ZM161.208 49.2726H159.418V47.1817H157.719V49.2726H156.441V50.6363H157.719V55.7897C157.714 57.3749 158.924 58.1419 160.265 58.1135C160.805 58.1079 161.168 58.0056 161.367 57.9317L161.06 56.5283C160.947 56.551 160.737 56.6022 160.464 56.6022C159.913 56.6022 159.418 56.4204 159.418 55.4374V50.6363H161.208V49.2726ZM165.627 58.1931C167.07 58.1931 167.883 57.4601 168.207 56.8067H168.275V57.9999H169.934V52.2044C169.934 49.6647 167.934 49.159 166.548 49.159C164.968 49.159 163.513 49.7954 162.945 51.3863L164.542 51.7499C164.792 51.1306 165.428 50.534 166.57 50.534C167.667 50.534 168.229 51.1079 168.229 52.0965V52.1363C168.229 52.7556 167.593 52.7442 166.025 52.926C164.371 53.1192 162.678 53.551 162.678 55.534C162.678 57.2499 163.968 58.1931 165.627 58.1931ZM165.996 56.8294C165.036 56.8294 164.343 56.3976 164.343 55.5567C164.343 54.6476 165.15 54.3238 166.133 54.1931C166.684 54.1192 167.991 53.9715 168.235 53.7272V54.8522C168.235 55.8863 167.411 56.8294 165.996 56.8294ZM173.896 46.3635H172.197V57.9999H173.896V46.3635ZM182.955 58.1931C184.398 58.1931 185.211 57.4601 185.535 56.8067H185.603V57.9999H187.262V52.2044C187.262 49.6647 185.262 49.159 183.876 49.159C182.296 49.159 180.842 49.7954 180.273 51.3863L181.87 51.7499C182.12 51.1306 182.756 50.534 183.898 50.534C184.995 50.534 185.558 51.1079 185.558 52.0965V52.1363C185.558 52.7556 184.921 52.7442 183.353 52.926C181.7 53.1192 180.006 53.551 180.006 55.534C180.006 57.2499 181.296 58.1931 182.955 58.1931ZM183.325 56.8294C182.364 56.8294 181.671 56.3976 181.671 55.5567C181.671 54.6476 182.478 54.3238 183.461 54.1931C184.012 54.1192 185.319 53.9715 185.563 53.7272V54.8522C185.563 55.8863 184.739 56.8294 183.325 56.8294ZM196.065 51.4033C195.712 50.0454 194.65 49.159 192.763 49.159C190.792 49.159 189.394 50.1988 189.394 51.7442C189.394 52.9829 190.144 53.8067 191.781 54.1704L193.258 54.4942C194.099 54.6817 194.491 55.0567 194.491 55.6022C194.491 56.2783 193.769 56.8067 192.656 56.8067C191.638 56.8067 190.985 56.3692 190.781 55.5113L189.138 55.7613C189.423 57.3067 190.707 58.176 192.667 58.176C194.775 58.176 196.235 57.0567 196.235 55.4772C196.235 54.2442 195.451 53.4829 193.849 53.1135L192.462 52.7954C191.502 52.5681 191.087 52.2442 191.093 51.6533C191.087 50.9829 191.815 50.5056 192.781 50.5056C193.837 50.5056 194.326 51.0908 194.525 51.676L196.065 51.4033ZM204.643 51.4033C204.29 50.0454 203.228 49.159 201.342 49.159C199.37 49.159 197.972 50.1988 197.972 51.7442C197.972 52.9829 198.722 53.8067 200.359 54.1704L201.836 54.4942C202.677 54.6817 203.069 55.0567 203.069 55.6022C203.069 56.2783 202.347 56.8067 201.234 56.8067C200.217 56.8067 199.563 56.3692 199.359 55.5113L197.717 55.7613C198.001 57.3067 199.285 58.176 201.245 58.176C203.353 58.176 204.813 57.0567 204.813 55.4772C204.813 54.2442 204.029 53.4829 202.427 53.1135L201.04 52.7954C200.08 52.5681 199.665 52.2442 199.671 51.6533C199.665 50.9829 200.393 50.5056 201.359 50.5056C202.415 50.5056 202.904 51.0908 203.103 51.676L204.643 51.4033ZM210.442 58.176C212.346 58.176 213.692 57.2385 214.079 55.8181L212.471 55.5283C212.164 56.3522 211.425 56.7726 210.46 56.7726C209.005 56.7726 208.028 55.8294 207.982 54.1476H214.187V53.5454C214.187 50.3919 212.3 49.159 210.323 49.159C207.891 49.159 206.289 51.0113 206.289 53.6931C206.289 56.4033 207.869 58.176 210.442 58.176ZM207.988 52.8749C208.056 51.6363 208.954 50.5624 210.335 50.5624C211.653 50.5624 212.516 51.5397 212.522 52.8749H207.988ZM220.146 49.2726H218.356V47.1817H216.657V49.2726H215.379V50.6363H216.657V55.7897C216.651 57.3749 217.862 58.1419 219.202 58.1135C219.742 58.1079 220.106 58.0056 220.305 57.9317L219.998 56.5283C219.884 56.551 219.674 56.6022 219.401 56.6022C218.85 56.6022 218.356 56.4204 218.356 55.4374V50.6363H220.146V49.2726ZM228.424 51.4033C228.072 50.0454 227.009 49.159 225.123 49.159C223.151 49.159 221.754 50.1988 221.754 51.7442C221.754 52.9829 222.504 53.8067 224.14 54.1704L225.617 54.4942C226.458 54.6817 226.85 55.0567 226.85 55.6022C226.85 56.2783 226.129 56.8067 225.015 56.8067C223.998 56.8067 223.344 56.3692 223.14 55.5113L221.498 55.7613C221.782 57.3067 223.066 58.176 225.026 58.176C227.134 58.176 228.594 57.0567 228.594 55.4772C228.594 54.2442 227.81 53.4829 226.208 53.1135L224.822 52.7954C223.862 52.5681 223.447 52.2442 223.452 51.6533C223.447 50.9829 224.174 50.5056 225.14 50.5056C226.197 50.5056 226.685 51.0908 226.884 51.676L228.424 51.4033ZM238.85 49.2726H236.969V48.4885C236.969 47.7158 237.288 47.2954 238.117 47.2954C238.469 47.2954 238.719 47.3749 238.879 47.426L239.276 46.051C239.038 45.9601 238.543 45.8181 237.856 45.8181C236.475 45.8181 235.265 46.6249 235.265 48.2613V49.2726H233.918V50.6363H235.265V57.9999H236.969V50.6363H238.85V49.2726ZM240.603 57.9999H242.302V52.6704C242.302 51.5283 243.183 50.7044 244.387 50.7044C244.739 50.7044 245.137 50.7669 245.273 50.8067V49.1817C245.103 49.159 244.768 49.1419 244.552 49.1419C243.529 49.1419 242.654 49.7215 242.336 50.659H242.245V49.2726H240.603V57.9999ZM250.107 58.176C252.567 58.176 254.175 56.3749 254.175 53.676C254.175 50.9601 252.567 49.159 250.107 49.159C247.647 49.159 246.039 50.9601 246.039 53.676C246.039 56.3749 247.647 58.176 250.107 58.176ZM250.113 56.7499C248.505 56.7499 247.755 55.3465 247.755 53.6704C247.755 51.9999 248.505 50.5794 250.113 50.5794C251.71 50.5794 252.46 51.9999 252.46 53.6704C252.46 55.3465 251.71 56.7499 250.113 56.7499ZM256.072 57.9999H257.771V52.6192C257.771 51.4431 258.594 50.6249 259.56 50.6249C260.504 50.6249 261.157 51.2499 261.157 52.1988V57.9999H262.85V52.4374C262.85 51.3863 263.492 50.6249 264.6 50.6249C265.498 50.6249 266.237 51.1249 266.237 52.3067V57.9999H267.935V52.1476C267.935 50.1533 266.822 49.159 265.242 49.159C263.987 49.159 263.043 49.7613 262.623 50.6931H262.532C262.151 49.7385 261.35 49.159 260.185 49.159C259.032 49.159 258.174 49.7329 257.81 50.6931H257.702V49.2726H256.072V57.9999ZM16.135 86.1931C17.5782 86.1931 18.3907 85.4601 18.7146 84.8067H18.7828V85.9999H20.4419V80.2044C20.4419 77.6647 18.4419 77.159 17.0555 77.159C15.476 77.159 14.0214 77.7954 13.4532 79.3863L15.0498 79.7499C15.2998 79.1306 15.9362 78.534 17.0782 78.534C18.1748 78.534 18.7373 79.1079 18.7373 80.0965V80.1363C18.7373 80.7556 18.101 80.7442 16.5328 80.926C14.8794 81.1192 13.1862 81.551 13.1862 83.534C13.1862 85.2499 14.476 86.1931 16.135 86.1931ZM16.5044 84.8294C15.5441 84.8294 14.851 84.3976 14.851 83.5567C14.851 82.6476 15.6578 82.3238 16.6407 82.1931C17.1919 82.1192 18.4987 81.9715 18.743 81.7272V82.8522C18.743 83.8863 17.9191 84.8294 16.5044 84.8294ZM24.4035 80.8181C24.4035 79.426 25.2558 78.6306 26.4376 78.6306C27.591 78.6306 28.2899 79.3863 28.2899 80.6533V85.9999H29.9887V80.4488C29.9887 78.2897 28.8012 77.159 27.0171 77.159C25.7046 77.159 24.8467 77.7669 24.4433 78.6931H24.3353V77.2726H22.7046V85.9999H24.4035V80.8181ZM33.0285 89.2726C34.4319 89.2726 35.3183 88.5397 35.824 87.1647L39.4319 77.2897L37.5967 77.2726L35.3865 84.0454H35.2956L33.0853 77.2726H31.2671L34.4603 86.1135L34.2501 86.6931C33.8183 87.8522 33.2103 87.9488 32.2785 87.6931L31.8694 89.0851C32.074 89.176 32.5171 89.2726 33.0285 89.2726ZM44.3964 86.176C46.8566 86.176 48.4646 84.3749 48.4646 81.676C48.4646 78.9601 46.8566 77.159 44.3964 77.159C41.9362 77.159 40.3282 78.9601 40.3282 81.676C40.3282 84.3749 41.9362 86.176 44.3964 86.176ZM44.4021 84.7499C42.7941 84.7499 42.0441 83.3465 42.0441 81.6704C42.0441 79.9999 42.7941 78.5794 44.4021 78.5794C45.9987 78.5794 46.7487 79.9999 46.7487 81.6704C46.7487 83.3465 45.9987 84.7499 44.4021 84.7499ZM52.0598 80.8181C52.0598 79.426 52.912 78.6306 54.0939 78.6306C55.2473 78.6306 55.9461 79.3863 55.9461 80.6533V85.9999H57.6451V80.4488C57.6451 78.2897 56.4575 77.159 54.6734 77.159C53.3609 77.159 52.5029 77.7669 52.0995 78.6931H51.9916V77.2726H50.3609V85.9999H52.0598V80.8181ZM63.6848 86.176C65.5882 86.176 66.9348 85.2385 67.3211 83.8181L65.7132 83.5283C65.4063 84.3522 64.6677 84.7726 63.7018 84.7726C62.2473 84.7726 61.27 83.8294 61.2245 82.1476H67.4291V81.5454C67.4291 78.3919 65.5427 77.159 63.5654 77.159C61.1336 77.159 59.5313 79.0113 59.5313 81.6931C59.5313 84.4033 61.1109 86.176 63.6848 86.176ZM61.2302 80.8749C61.2984 79.6363 62.1961 78.5624 63.5768 78.5624C64.895 78.5624 65.7586 79.5397 65.7643 80.8749H61.2302ZM71.5242 84.409H69.8879L69.8311 85.0454C69.7004 86.5851 69.3367 88.1363 69.1833 88.8408H70.3879C70.6606 88.0965 71.2629 86.3919 71.439 85.0283L71.5242 84.409ZM80.51 86.1931C81.9532 86.1931 82.7657 85.4601 83.0896 84.8067H83.1578V85.9999H84.8169V80.2044C84.8169 77.6647 82.8169 77.159 81.4305 77.159C79.851 77.159 78.3964 77.7954 77.8282 79.3863L79.4248 79.7499C79.6748 79.1306 80.3112 78.534 81.4532 78.534C82.5498 78.534 83.1123 79.1079 83.1123 80.0965V80.1363C83.1123 80.7556 82.476 80.7442 80.9078 80.926C79.2544 81.1192 77.5612 81.551 77.5612 83.534C77.5612 85.2499 78.851 86.1931 80.51 86.1931ZM80.8794 84.8294C79.9191 84.8294 79.226 84.3976 79.226 83.5567C79.226 82.6476 80.0328 82.3238 81.0157 82.1931C81.5669 82.1192 82.8737 81.9715 83.118 81.7272V82.8522C83.118 83.8863 82.2941 84.8294 80.8794 84.8294ZM88.7785 80.8181C88.7785 79.426 89.6308 78.6306 90.8126 78.6306C91.966 78.6306 92.6649 79.3863 92.6649 80.6533V85.9999H94.3637V80.4488C94.3637 78.2897 93.1762 77.159 91.3921 77.159C90.0796 77.159 89.2217 77.7669 88.8183 78.6931H88.7103V77.2726H87.0796V85.9999H88.7785V80.8181ZM97.4035 89.2726C98.8069 89.2726 99.6933 88.5397 100.199 87.1647L103.807 77.2897L101.972 77.2726L99.7615 84.0454H99.6706L97.4603 77.2726H95.6421L98.8353 86.1135L98.6251 86.6931C98.1933 87.8522 97.5853 87.9488 96.6535 87.6931L96.2444 89.0851C96.449 89.176 96.8921 89.2726 97.4035 89.2726ZM107.3 85.9999H109.027L110.8 79.6988H110.93L112.703 85.9999H114.436L116.999 77.2726H115.243L113.544 83.6533H113.459L111.754 77.2726H109.999L108.283 83.6817H108.197L106.487 77.2726H104.732L107.3 85.9999ZM120.31 80.8181C120.31 79.426 121.19 78.6306 122.401 78.6306C123.571 78.6306 124.27 79.3749 124.27 80.6533V85.9999H125.969V80.4488C125.969 78.2726 124.776 77.159 122.98 77.159C121.622 77.159 120.804 77.7499 120.395 78.6931H120.287V74.3635H118.611V85.9999H120.31V80.8181ZM131.997 86.176C133.901 86.176 135.247 85.2385 135.634 83.8181L134.026 83.5283C133.719 84.3522 132.98 84.7726 132.014 84.7726C130.56 84.7726 129.582 83.8294 129.537 82.1476H135.741V81.5454C135.741 78.3919 133.855 77.159 131.878 77.159C129.446 77.159 127.844 79.0113 127.844 81.6931C127.844 84.4033 129.423 86.176 131.997 86.176ZM129.543 80.8749C129.611 79.6363 130.509 78.5624 131.889 78.5624C133.207 78.5624 134.071 79.5397 134.077 80.8749H129.543ZM137.626 85.9999H139.325V80.6704C139.325 79.5283 140.206 78.7044 141.411 78.7044C141.763 78.7044 142.161 78.7669 142.297 78.8067V77.1817C142.126 77.159 141.791 77.1419 141.575 77.1419C140.553 77.1419 139.678 77.7215 139.359 78.659H139.268V77.2726H137.626V85.9999ZM147.216 86.176C149.119 86.176 150.466 85.2385 150.852 83.8181L149.244 83.5283C148.938 84.3522 148.199 84.7726 147.233 84.7726C145.778 84.7726 144.801 83.8294 144.756 82.1476H150.96V81.5454C150.96 78.3919 149.074 77.159 147.097 77.159C144.665 77.159 143.062 79.0113 143.062 81.6931C143.062 84.4033 144.642 86.176 147.216 86.176ZM144.761 80.8749C144.83 79.6363 145.727 78.5624 147.108 78.5624C148.426 78.5624 149.29 79.5397 149.295 80.8749H144.761ZM155.055 84.409H153.419L153.362 85.0454C153.232 86.5851 152.868 88.1363 152.714 88.8408H153.919C154.192 88.0965 154.794 86.3919 154.97 85.0283L155.055 84.409ZM161.501 85.9999H163.2V77.2726H161.501V85.9999ZM162.359 75.926C162.945 75.926 163.433 75.4715 163.433 74.9147C163.433 74.3579 162.945 73.8976 162.359 73.8976C161.768 73.8976 161.286 74.3579 161.286 74.9147C161.286 75.4715 161.768 75.926 162.359 75.926ZM167.185 80.8181C167.185 79.426 168.037 78.6306 169.219 78.6306C170.372 78.6306 171.071 79.3863 171.071 80.6533V85.9999H172.77V80.4488C172.77 78.2897 171.582 77.159 169.798 77.159C168.486 77.159 167.628 77.7669 167.224 78.6931H167.116V77.2726H165.486V85.9999H167.185V80.8181ZM181.588 79.4033C181.236 78.0454 180.173 77.159 178.287 77.159C176.315 77.159 174.918 78.1988 174.918 79.7442C174.918 80.9829 175.668 81.8067 177.304 82.1704L178.781 82.4942C179.622 82.6817 180.014 83.0567 180.014 83.6022C180.014 84.2783 179.293 84.8067 178.179 84.8067C177.162 84.8067 176.509 84.3692 176.304 83.5113L174.662 83.7613C174.946 85.3067 176.23 86.176 178.19 86.176C180.298 86.176 181.759 85.0567 181.759 83.4772C181.759 82.2442 180.974 81.4829 179.372 81.1135L177.986 80.7954C177.026 80.5681 176.611 80.2442 176.616 79.6533C176.611 78.9829 177.338 78.5056 178.304 78.5056C179.361 78.5056 179.849 79.0908 180.048 79.676L181.588 79.4033ZM187.7 77.2726H185.911V75.1817H184.212V77.2726H182.933V78.6363H184.212V83.7897C184.206 85.3749 185.416 86.1419 186.757 86.1135C187.297 86.1079 187.661 86.0056 187.859 85.9317L187.553 84.5283C187.439 84.551 187.229 84.6022 186.956 84.6022C186.405 84.6022 185.911 84.4204 185.911 83.4374V78.6363H187.7V77.2726ZM192.119 86.1931C193.562 86.1931 194.375 85.4601 194.699 84.8067H194.767V85.9999H196.426V80.2044C196.426 77.6647 194.426 77.159 193.04 77.159C191.46 77.159 190.006 77.7954 189.438 79.3863L191.034 79.7499C191.284 79.1306 191.92 78.534 193.062 78.534C194.159 78.534 194.722 79.1079 194.722 80.0965V80.1363C194.722 80.7556 194.085 80.7442 192.517 80.926C190.864 81.1192 189.17 81.551 189.17 83.534C189.17 85.2499 190.46 86.1931 192.119 86.1931ZM192.489 84.8294C191.528 84.8294 190.835 84.3976 190.835 83.5567C190.835 82.6476 191.642 82.3238 192.625 82.1931C193.176 82.1192 194.483 81.9715 194.727 81.7272V82.8522C194.727 83.8863 193.903 84.8294 192.489 84.8294ZM200.388 80.8181C200.388 79.426 201.24 78.6306 202.422 78.6306C203.575 78.6306 204.274 79.3863 204.274 80.6533V85.9999H205.973V80.4488C205.973 78.2897 204.786 77.159 203.001 77.159C201.689 77.159 200.831 77.7669 200.428 78.6931H200.32V77.2726H198.689V85.9999H200.388V80.8181ZM212.325 77.2726H210.536V75.1817H208.837V77.2726H207.558V78.6363H208.837V83.7897C208.831 85.3749 210.041 86.1419 211.382 86.1135C211.922 86.1079 212.286 86.0056 212.484 85.9317L212.178 84.5283C212.064 84.551 211.854 84.6022 211.581 84.6022C211.03 84.6022 210.536 84.4204 210.536 83.4374V78.6363H212.325V77.2726ZM216.091 74.3635H214.392V85.9999H216.091V74.3635ZM219.45 89.2726C220.854 89.2726 221.74 88.5397 222.246 87.1647L225.854 77.2897L224.018 77.2726L221.808 84.0454H221.717L219.507 77.2726H217.689L220.882 86.1135L220.672 86.6931C220.24 87.8522 219.632 87.9488 218.7 87.6931L218.291 89.0851C218.496 89.176 218.939 89.2726 219.45 89.2726ZM235.075 86.1647C236.126 86.1647 237.291 85.8124 238.075 85.0794L238.859 85.9999H240.78L239.126 84.0226C239.621 83.3635 240.092 82.3294 240.092 80.7158H238.558C238.558 81.4942 238.376 82.1874 238.075 82.7669L235.746 79.9829L236.541 79.3976C237.507 78.6931 238.087 77.8806 238.087 76.7726C238.087 75.4147 236.99 74.2385 235.2 74.2385C233.428 74.2385 232.263 75.3806 232.263 76.9885C232.263 78.0283 232.808 78.8522 233.541 79.7442C232.212 80.6647 231.308 81.5226 231.308 82.909C231.308 84.7783 232.734 86.1647 235.075 86.1647ZM237.121 83.9544C236.518 84.4544 235.797 84.7272 235.081 84.7272C233.82 84.7272 232.996 83.8692 232.996 82.8635C232.996 82.5056 233.297 81.7897 234.206 81.1192L234.513 80.8919L237.121 83.9544ZM234.808 78.8522C234.28 78.2044 233.865 77.6079 233.865 77.0169C233.865 76.3408 234.422 75.659 235.24 75.659C236.024 75.659 236.536 76.2726 236.536 76.8181C236.536 77.5113 236.155 77.9317 235.524 78.3465L234.808 78.8522ZM250.499 77.2726H248.618V76.4885C248.618 75.7158 248.936 75.2954 249.766 75.2954C250.118 75.2954 250.368 75.3749 250.527 75.426L250.925 74.051C250.686 73.9601 250.192 73.8181 249.504 73.8181C248.124 73.8181 246.913 74.6249 246.913 76.2613V77.2726H245.567V78.6363H246.913V85.9999H248.618V78.6363H250.499V77.2726ZM255.584 86.176C258.044 86.176 259.652 84.3749 259.652 81.676C259.652 78.9601 258.044 77.159 255.584 77.159C253.124 77.159 251.516 78.9601 251.516 81.676C251.516 84.3749 253.124 86.176 255.584 86.176ZM255.589 84.7499C253.982 84.7499 253.232 83.3465 253.232 81.6704C253.232 79.9999 253.982 78.5794 255.589 78.5794C257.186 78.5794 257.936 79.9999 257.936 81.6704C257.936 83.3465 257.186 84.7499 255.589 84.7499ZM261.548 85.9999H263.247V80.6704C263.247 79.5283 264.128 78.7044 265.332 78.7044C265.685 78.7044 266.082 78.7669 266.219 78.8067V77.1817C266.048 77.159 265.713 77.1419 265.497 77.1419C264.474 77.1419 263.599 77.7215 263.281 78.659H263.19V77.2726H261.548V85.9999ZM84.2316 108.818C84.2316 107.426 85.0839 106.631 86.2657 106.631C87.4191 106.631 88.118 107.386 88.118 108.653V114H89.8169V108.449C89.8169 106.29 88.6294 105.159 86.8453 105.159C85.5328 105.159 84.6748 105.767 84.2714 106.693H84.1635V105.273H82.5328V114H84.2316V108.818ZM95.8566 114.176C97.76 114.176 99.1066 113.239 99.493 111.818L97.885 111.528C97.5782 112.352 96.8396 112.773 95.8737 112.773C94.4191 112.773 93.4419 111.83 93.3964 110.148H99.601V109.545C99.601 106.392 97.7146 105.159 95.7373 105.159C93.3055 105.159 91.7032 107.011 91.7032 109.693C91.7032 112.403 93.2828 114.176 95.8566 114.176ZM93.4021 108.875C93.4703 107.636 94.368 106.562 95.7487 106.562C97.0669 106.562 97.9305 107.54 97.9362 108.875H93.4021ZM104.026 114.193C105.469 114.193 106.281 113.46 106.605 112.807H106.673V114H108.332V108.205C108.332 105.665 106.332 105.159 104.946 105.159C103.366 105.159 101.912 105.795 101.344 107.386L102.94 107.75C103.19 107.131 103.827 106.534 104.969 106.534C106.065 106.534 106.628 107.108 106.628 108.097V108.136C106.628 108.756 105.991 108.744 104.423 108.926C102.77 109.119 101.077 109.551 101.077 111.534C101.077 113.25 102.366 114.193 104.026 114.193ZM104.395 112.83C103.435 112.83 102.741 112.398 102.741 111.557C102.741 110.648 103.548 110.324 104.531 110.193C105.082 110.119 106.389 109.972 106.634 109.727V110.852C106.634 111.886 105.81 112.83 104.395 112.83ZM110.595 114H112.294V108.67C112.294 107.528 113.175 106.705 114.379 106.705C114.732 106.705 115.129 106.767 115.266 106.807V105.182C115.095 105.159 114.76 105.142 114.544 105.142C113.521 105.142 112.646 105.722 112.328 106.659H112.237V105.273H110.595V114ZM121.362 108.347H116.203V109.818H121.362V108.347ZM123.445 114H130.45V112.523H125.746V112.443L130.291 106.511V105.273H123.598V106.75H128.172V106.83L123.445 112.835V114ZM135.966 114.176C137.869 114.176 139.216 113.239 139.602 111.818L137.994 111.528C137.688 112.352 136.949 112.773 135.983 112.773C134.528 112.773 133.551 111.83 133.506 110.148H139.71V109.545C139.71 106.392 137.824 105.159 135.847 105.159C133.415 105.159 131.812 107.011 131.812 109.693C131.812 112.403 133.392 114.176 135.966 114.176ZM133.511 108.875C133.58 107.636 134.477 106.562 135.858 106.562C137.176 106.562 138.04 107.54 138.045 108.875H133.511ZM141.595 114H143.294V108.67C143.294 107.528 144.175 106.705 145.379 106.705C145.732 106.705 146.129 106.767 146.266 106.807V105.182C146.095 105.159 145.76 105.142 145.544 105.142C144.521 105.142 143.646 105.722 143.328 106.659H143.237V105.273H141.595V114ZM151.099 114.176C153.56 114.176 155.168 112.375 155.168 109.676C155.168 106.96 153.56 105.159 151.099 105.159C148.639 105.159 147.031 106.96 147.031 109.676C147.031 112.375 148.639 114.176 151.099 114.176ZM151.105 112.75C149.497 112.75 148.747 111.347 148.747 109.67C148.747 108 149.497 106.58 151.105 106.58C152.702 106.58 153.452 108 153.452 109.67C153.452 111.347 152.702 112.75 151.105 112.75ZM165.452 105.273H163.571V104.489C163.571 103.716 163.889 103.295 164.719 103.295C165.071 103.295 165.321 103.375 165.48 103.426L165.878 102.051C165.639 101.96 165.145 101.818 164.457 101.818C163.077 101.818 161.866 102.625 161.866 104.261V105.273H160.52V106.636H161.866V114H163.571V106.636H165.452V105.273ZM170.622 114.176C172.526 114.176 173.872 113.239 174.259 111.818L172.651 111.528C172.344 112.352 171.605 112.773 170.639 112.773C169.185 112.773 168.207 111.83 168.162 110.148H174.366V109.545C174.366 106.392 172.48 105.159 170.503 105.159C168.071 105.159 166.469 107.011 166.469 109.693C166.469 112.403 168.048 114.176 170.622 114.176ZM168.168 108.875C168.236 107.636 169.134 106.562 170.514 106.562C171.832 106.562 172.696 107.54 172.702 108.875H168.168ZM180.013 114.176C181.916 114.176 183.263 113.239 183.649 111.818L182.041 111.528C181.734 112.352 180.996 112.773 180.03 112.773C178.575 112.773 177.598 111.83 177.553 110.148H183.757V109.545C183.757 106.392 181.871 105.159 179.893 105.159C177.462 105.159 175.859 107.011 175.859 109.693C175.859 112.403 177.439 114.176 180.013 114.176ZM177.558 108.875C177.626 107.636 178.524 106.562 179.905 106.562C181.223 106.562 182.087 107.54 182.092 108.875H177.558ZM192.182 107.403C191.83 106.045 190.767 105.159 188.881 105.159C186.909 105.159 185.511 106.199 185.511 107.744C185.511 108.983 186.261 109.807 187.898 110.17L189.375 110.494C190.216 110.682 190.608 111.057 190.608 111.602C190.608 112.278 189.886 112.807 188.773 112.807C187.756 112.807 187.102 112.369 186.898 111.511L185.256 111.761C185.54 113.307 186.824 114.176 188.784 114.176C190.892 114.176 192.352 113.057 192.352 111.477C192.352 110.244 191.568 109.483 189.966 109.114L188.58 108.795C187.619 108.568 187.205 108.244 187.21 107.653C187.205 106.983 187.932 106.506 188.898 106.506C189.955 106.506 190.443 107.091 190.642 107.676L192.182 107.403ZM195.339 114.108C195.959 114.108 196.476 113.602 196.476 112.972C196.476 112.352 195.959 111.841 195.339 111.841C194.714 111.841 194.203 112.352 194.203 112.972C194.203 113.602 194.714 114.108 195.339 114.108Z" fill="#A3A2AD"/>
<path opacity="0.3" d="M152 158C152 156.895 151.105 156 150 156C148.895 156 148 156.895 148 158C148 159.105 148.895 160 150 160C151.105 160 152 159.105 152 158Z" fill="#707070"/>
<path d="M134 158C134 155.791 132.209 154 130 154C127.791 154 126 155.791 126 158C126 160.209 127.791 162 130 162C132.209 162 134 160.209 134 158Z" fill="#BB86FC"/>
<path opacity="0.3" d="M143 158C143 156.895 142.105 156 141 156C139.895 156 139 156.895 139 158C139 159.105 139.895 160 141 160C142.105 160 143 159.105 143 158Z" fill="#707070"/>
</svg>
