<svg width="279" height="134" viewBox="0 0 279 134" fill="none" xmlns="http://www.w3.org/2000/svg">
<path d="M42.0459 22.0001H45.3858V17.7089H47.6528C50.8172 17.7089 52.7941 15.8332 52.7941 12.9657C52.7941 10.1251 50.8577 8.18188 47.754 8.18188H42.0459V22.0001ZM45.3858 15.0775V10.874H47.0321C48.5299 10.874 49.3328 11.6837 49.3328 12.9657C49.3328 14.2409 48.5299 15.0775 47.0321 15.0775H45.3858ZM55.0104 22.0001H58.3098V16.373C58.3098 15.1382 59.1869 14.3083 60.3677 14.3083C60.759 14.3083 61.346 14.3758 61.6631 14.4838V11.6162C61.3865 11.542 61.0424 11.4948 60.7388 11.4948C59.6053 11.4948 58.7011 12.156 58.3233 13.5257H58.2153V11.6365H55.0104V22.0001ZM67.8771 22.1958C71.136 22.1958 73.1129 20.0434 73.1129 16.852C73.1129 13.6539 71.136 11.5015 67.8771 11.5015C64.6183 11.5015 62.6413 13.6539 62.6413 16.852C62.6413 20.0434 64.6183 22.1958 67.8771 22.1958ZM67.8974 19.7061C66.6761 19.7061 66.0014 18.5456 66.0014 16.8318C66.0014 15.1113 66.6761 13.944 67.8974 13.944C69.0781 13.944 69.7528 15.1113 69.7528 16.8318C69.7528 18.5456 69.0781 19.7061 67.8974 19.7061ZM81.2229 11.6365H79.3539V9.15347H76.0546V11.6365H74.6849V14.0654H76.0546V19.1056C76.0343 21.2039 77.3972 22.2565 79.725 22.1485C80.5212 22.1081 81.0947 21.9461 81.4118 21.8517L80.9125 19.4699C80.7708 19.5037 80.4402 19.5711 80.1906 19.5711C79.6575 19.5711 79.3539 19.3552 79.3539 18.7412V14.0654H81.2229V11.6365ZM88.2094 22.1958C90.9285 22.1958 92.7165 20.8801 93.0944 18.8424L90.0649 18.7547C89.8085 19.4429 89.1338 19.814 88.2702 19.814C87.0017 19.814 86.219 18.9706 86.219 17.7022V17.6144H93.1281V16.7913C93.1281 13.3772 91.05 11.5015 88.1082 11.5015C84.9775 11.5015 82.9669 13.6471 82.9669 16.8588C82.9669 20.1784 84.9506 22.1958 88.2094 22.1958ZM86.219 15.6983C86.2662 14.6659 87.0827 13.8833 88.1757 13.8833C89.262 13.8833 90.0447 14.6389 90.0582 15.6983H86.219ZM100.221 22.1958C103.136 22.1958 104.944 20.5022 105.032 17.9383H101.948C101.827 19.0381 101.165 19.6386 100.261 19.6386C99.1009 19.6386 98.3452 18.6603 98.3452 16.8183C98.3452 14.9898 99.1076 14.0115 100.261 14.0115C101.206 14.0115 101.82 14.6524 101.948 15.7117H105.032C104.957 13.1613 103.095 11.5015 100.214 11.5015C96.9553 11.5015 94.9851 13.6741 94.9851 16.852C94.9851 20.0164 96.9418 22.1958 100.221 22.1958ZM113.14 11.6365H111.271V9.15347H107.971V11.6365H106.602V14.0654H107.971V19.1056C107.951 21.2039 109.314 22.2565 111.642 22.1485C112.438 22.1081 113.012 21.9461 113.329 21.8517L112.829 19.4699C112.688 19.5037 112.357 19.5711 112.107 19.5711C111.574 19.5711 111.271 19.3552 111.271 18.7412V14.0654H113.14V11.6365ZM119.357 8.18188L124.411 17.385V22.0001H127.73V17.385L132.784 8.18188H129.053L126.131 13.9642H126.01L123.088 8.18188H119.357ZM137.198 22.1958C140.457 22.1958 142.434 20.0434 142.434 16.852C142.434 13.6539 140.457 11.5015 137.198 11.5015C133.939 11.5015 131.962 13.6539 131.962 16.852C131.962 20.0434 133.939 22.1958 137.198 22.1958ZM137.218 19.7061C135.997 19.7061 135.322 18.5456 135.322 16.8318C135.322 15.1113 135.997 13.944 137.218 13.944C138.399 13.944 139.074 15.1113 139.074 16.8318C139.074 18.5456 138.399 19.7061 137.218 19.7061ZM151.38 17.5267C151.38 18.7345 150.611 19.4092 149.633 19.4092C148.621 19.4092 148 18.721 147.993 17.5942V11.6365H144.694V18.2419C144.701 20.5832 146.124 22.135 148.257 22.135C149.808 22.135 150.962 21.3389 151.421 20.0704H151.529V22.0001H154.673V11.6365H151.38V17.5267ZM157.343 22.0001H160.643V16.373C160.643 15.1382 161.52 14.3083 162.7 14.3083C163.092 14.3083 163.679 14.3758 163.996 14.4838V11.6162C163.719 11.542 163.375 11.4948 163.071 11.4948C161.938 11.4948 161.034 12.156 160.656 13.5257H160.548V11.6365H157.343V22.0001ZM173.551 22.0001L174.462 19.0988H179.232L180.143 22.0001H183.733L179.07 8.18188H174.624L169.962 22.0001H173.551ZM175.258 16.5619L176.79 11.6635H176.898L178.436 16.5619H175.258ZM194.523 14.8009C194.348 12.7497 192.667 11.5015 189.861 11.5015C187.054 11.5015 185.266 12.7228 185.279 14.8009C185.266 16.3932 186.285 17.4188 188.356 17.8034L190.164 18.1475C191.021 18.3162 191.413 18.586 191.426 19.0448C191.413 19.5644 190.832 19.9085 189.989 19.9085C189.051 19.9085 188.417 19.5037 188.275 18.748L185.016 18.8289C185.252 20.8801 187.013 22.1958 189.975 22.1958C192.748 22.1958 194.766 20.8126 194.779 18.6805C194.766 17.1691 193.767 16.2718 191.703 15.8737L189.705 15.4958C188.828 15.3204 188.545 15.01 188.552 14.612C188.545 14.0857 189.159 13.7618 189.921 13.7618C190.792 13.7618 191.399 14.2274 191.493 14.8818L194.523 14.8009ZM206.022 14.8009C205.846 12.7497 204.166 11.5015 201.359 11.5015C198.553 11.5015 196.765 12.7228 196.778 14.8009C196.765 16.3932 197.783 17.4188 199.855 17.8034L201.663 18.1475C202.52 18.3162 202.911 18.586 202.925 19.0448C202.911 19.5644 202.331 19.9085 201.488 19.9085C200.55 19.9085 199.916 19.5037 199.774 18.748L196.515 18.8289C196.751 20.8801 198.512 22.1958 201.474 22.1958C204.247 22.1958 206.265 20.8126 206.278 18.6805C206.265 17.1691 205.266 16.2718 203.201 15.8737L201.204 15.4958C200.327 15.3204 200.044 15.01 200.05 14.612C200.044 14.0857 200.658 13.7618 201.42 13.7618C202.291 13.7618 202.898 14.2274 202.992 14.8818L206.022 14.8009ZM213.317 22.1958C216.036 22.1958 217.824 20.8801 218.202 18.8424L215.172 18.7547C214.916 19.4429 214.241 19.814 213.378 19.814C212.109 19.814 211.326 18.9706 211.326 17.7022V17.6144H218.236V16.7913C218.236 13.3772 216.157 11.5015 213.216 11.5015C210.085 11.5015 208.074 13.6471 208.074 16.8588C208.074 20.1784 210.058 22.1958 213.317 22.1958ZM211.326 15.6983C211.374 14.6659 212.19 13.8833 213.283 13.8833C214.369 13.8833 215.152 14.6389 215.166 15.6983H211.326ZM226.34 11.6365H224.472V9.15347H221.172V11.6365H219.802V14.0654H221.172V19.1056C221.152 21.2039 222.515 22.2565 224.843 22.1485C225.639 22.1081 226.212 21.9461 226.529 21.8517L226.03 19.4699C225.888 19.5037 225.558 19.5711 225.308 19.5711C224.775 19.5711 224.472 19.3552 224.472 18.7412V14.0654H226.34V11.6365ZM237.512 14.8009C237.337 12.7497 235.656 11.5015 232.85 11.5015C230.043 11.5015 228.255 12.7228 228.268 14.8009C228.255 16.3932 229.274 17.4188 231.345 17.8034L233.153 18.1475C234.01 18.3162 234.402 18.586 234.415 19.0448C234.402 19.5644 233.821 19.9085 232.978 19.9085C232.04 19.9085 231.406 19.5037 231.264 18.748L228.005 18.8289C228.241 20.8801 230.002 22.1958 232.964 22.1958C235.737 22.1958 237.755 20.8126 237.768 18.6805C237.755 17.1691 236.756 16.2718 234.692 15.8737L232.694 15.4958C231.817 15.3204 231.534 15.01 231.541 14.612C231.534 14.0857 232.148 13.7618 232.91 13.7618C233.781 13.7618 234.388 14.2274 234.482 14.8818L237.512 14.8009Z" fill="white"/>
<path d="M48.9288 57.9999H51.0367V54.0681H53.264C55.9515 54.0681 57.3947 52.4544 57.3947 50.2158C57.3947 47.9942 55.9686 46.3635 53.2924 46.3635H48.9288V57.9999ZM51.0367 52.3351V48.1249H52.9686C54.5481 48.1249 55.247 48.9772 55.247 50.2158C55.247 51.4544 54.5481 52.3351 52.9799 52.3351H51.0367ZM59.1347 57.9999H61.1916V52.8692C61.1916 51.7613 62.0268 50.9772 63.1575 50.9772C63.5041 50.9772 63.9359 51.0397 64.112 51.0965V49.2044C63.9245 49.1704 63.6007 49.1476 63.3734 49.1476C62.3734 49.1476 61.5382 49.7158 61.22 50.7272H61.1291V49.2726H59.1347V57.9999ZM68.9259 58.1704C71.4828 58.1704 73.1078 56.3692 73.1078 53.6704C73.1078 50.9658 71.4828 49.159 68.9259 49.159C66.3691 49.159 64.7441 50.9658 64.7441 53.6704C64.7441 56.3692 66.3691 58.1704 68.9259 58.1704ZM68.9373 56.5226C67.5225 56.5226 66.8293 55.2613 66.8293 53.6647C66.8293 52.0681 67.5225 50.7897 68.9373 50.7897C70.3293 50.7897 71.0225 52.0681 71.0225 53.6647C71.0225 55.2613 70.3293 56.5226 68.9373 56.5226ZM79.2114 49.2726H77.4899V47.1817H75.433V49.2726H74.1944V50.8635H75.433V55.7158C75.4217 57.3579 76.6149 58.1647 78.1603 58.1192C78.7455 58.1022 79.1489 57.9885 79.3705 57.9147L79.0239 56.3067C78.9103 56.3351 78.6774 56.3863 78.4217 56.3863C77.9046 56.3863 77.4899 56.2044 77.4899 55.3749V50.8635H79.2114V49.2726ZM84.7015 58.1704C86.7356 58.1704 88.1333 57.176 88.497 55.659L86.5765 55.4431C86.2981 56.1817 85.6163 56.5681 84.7299 56.5681C83.4004 56.5681 82.5197 55.6931 82.5026 54.1988H88.5822V53.5681C88.5822 50.5056 86.7413 49.159 84.5936 49.159C82.0936 49.159 80.4629 50.9942 80.4629 53.6874C80.4629 56.426 82.0708 58.1704 84.7015 58.1704ZM82.5083 52.8124C82.5708 51.6988 83.3947 50.7613 84.622 50.7613C85.8038 50.7613 86.5992 51.6249 86.6106 52.8124H82.5083ZM94.1291 58.1704C96.3222 58.1704 97.72 56.8692 97.8677 55.0169H95.9018C95.7257 55.9544 95.0495 56.4942 94.1461 56.4942C92.862 56.4942 92.0325 55.4204 92.0325 53.6363C92.0325 51.8749 92.8791 50.8181 94.1461 50.8181C95.1347 50.8181 95.7427 51.4544 95.9018 52.2954H97.8677C97.7257 50.4033 96.2484 49.159 94.1177 49.159C91.5609 49.159 89.9472 51.0056 89.9472 53.6704C89.9472 56.3124 91.5211 58.1704 94.1291 58.1704ZM103.915 49.2726H102.193V47.1817H100.136V49.2726H98.8975V50.8635H100.136V55.7158C100.125 57.3579 101.318 58.1647 102.864 58.1192C103.449 58.1022 103.852 57.9885 104.074 57.9147L103.727 56.3067C103.614 56.3351 103.381 56.3863 103.125 56.3863C102.608 56.3863 102.193 56.2044 102.193 55.3749V50.8635H103.915V49.2726ZM110.882 61.2726C112.484 61.2726 113.411 60.4488 113.905 59.0567L117.411 49.284L115.212 49.2726L113.195 55.8635H113.104L111.092 49.2726H108.911L112.075 58.1817L111.899 58.6533C111.518 59.6476 110.916 59.7158 110.018 59.4544L109.541 61.0567C109.82 61.1704 110.32 61.2726 110.882 61.2726ZM122.348 58.1704C124.905 58.1704 126.53 56.3692 126.53 53.6704C126.53 50.9658 124.905 49.159 122.348 49.159C119.791 49.159 118.166 50.9658 118.166 53.6704C118.166 56.3692 119.791 58.1704 122.348 58.1704ZM122.359 56.5226C120.945 56.5226 120.251 55.2613 120.251 53.6647C120.251 52.0681 120.945 50.7897 122.359 50.7897C123.751 50.7897 124.445 52.0681 124.445 53.6647C124.445 55.2613 123.751 56.5226 122.359 56.5226ZM133.838 54.3294C133.838 55.659 132.889 56.3181 131.98 56.3181C130.991 56.3181 130.332 55.6192 130.332 54.5113V49.2726H128.276V54.8294C128.276 56.926 129.469 58.1135 131.185 58.1135C132.491 58.1135 133.412 57.426 133.81 56.4488H133.901V57.9999H135.895V49.2726H133.838V54.3294ZM138.01 57.9999H140.067V52.8692C140.067 51.7613 140.902 50.9772 142.033 50.9772C142.379 50.9772 142.811 51.0397 142.987 51.0965V49.2044C142.8 49.1704 142.476 49.1476 142.249 49.1476C141.249 49.1476 140.413 49.7158 140.095 50.7272H140.004V49.2726H138.01V57.9999ZM150.834 58.176C152.203 58.176 153.021 57.534 153.396 56.801H153.464V57.9999H155.442V52.159C155.442 49.8522 153.561 49.159 151.896 49.159C150.061 49.159 148.652 49.9772 148.197 51.5681L150.118 51.8408C150.322 51.2442 150.902 50.7329 151.908 50.7329C152.862 50.7329 153.385 51.2215 153.385 52.0794V52.1135C153.385 52.7044 152.766 52.7329 151.226 52.8976C149.533 53.0794 147.913 53.5851 147.913 55.551C147.913 57.2669 149.169 58.176 150.834 58.176ZM151.368 56.6647C150.51 56.6647 149.896 56.2726 149.896 55.5169C149.896 54.7272 150.584 54.3976 151.504 54.2669C152.044 54.1931 153.124 54.0567 153.391 53.8408V54.8692C153.391 55.8408 152.607 56.6647 151.368 56.6647ZM164.408 51.5794C164.124 50.1022 162.942 49.159 160.896 49.159C158.794 49.159 157.362 50.1931 157.368 51.8067C157.362 53.0794 158.146 53.9204 159.822 54.2669L161.311 54.5794C162.112 54.7556 162.487 55.0794 162.487 55.5738C162.487 56.1704 161.839 56.6192 160.862 56.6192C159.919 56.6192 159.305 56.2101 159.129 55.426L157.124 55.6192C157.379 57.2215 158.726 58.1704 160.868 58.1704C163.05 58.1704 164.589 57.0397 164.595 55.3863C164.589 54.1419 163.788 53.3806 162.141 53.0226L160.652 52.7044C159.766 52.5056 159.413 52.1988 159.419 51.6931C159.413 51.1022 160.067 50.6931 160.925 50.6931C161.874 50.6931 162.374 51.2101 162.533 51.784L164.408 51.5794ZM173.189 51.5794C172.905 50.1022 171.723 49.159 169.678 49.159C167.575 49.159 166.143 50.1931 166.149 51.8067C166.143 53.0794 166.928 53.9204 168.604 54.2669L170.092 54.5794C170.893 54.7556 171.268 55.0794 171.268 55.5738C171.268 56.1704 170.621 56.6192 169.643 56.6192C168.7 56.6192 168.087 56.2101 167.911 55.426L165.905 55.6192C166.161 57.2215 167.507 58.1704 169.649 58.1704C171.831 58.1704 173.371 57.0397 173.376 55.3863C173.371 54.1419 172.57 53.3806 170.922 53.0226L169.433 52.7044C168.547 52.5056 168.195 52.1988 168.2 51.6931C168.195 51.1022 168.848 50.6931 169.706 50.6931C170.655 50.6931 171.155 51.2101 171.314 51.784L173.189 51.5794ZM178.936 58.1704C180.97 58.1704 182.368 57.176 182.732 55.659L180.811 55.4431C180.533 56.1817 179.851 56.5681 178.964 56.5681C177.635 56.5681 176.754 55.6931 176.737 54.1988H182.817V53.5681C182.817 50.5056 180.976 49.159 178.828 49.159C176.328 49.159 174.697 50.9942 174.697 53.6874C174.697 56.426 176.305 58.1704 178.936 58.1704ZM176.743 52.8124C176.805 51.6988 177.629 50.7613 178.857 50.7613C180.038 50.7613 180.834 51.6249 180.845 52.8124H176.743ZM188.915 49.2726H187.193V47.1817H185.136V49.2726H183.898V50.8635H185.136V55.7158C185.125 57.3579 186.318 58.1647 187.864 58.1192C188.449 58.1022 188.852 57.9885 189.074 57.9147L188.727 56.3067C188.614 56.3351 188.381 56.3863 188.125 56.3863C187.608 56.3863 187.193 56.2044 187.193 55.3749V50.8635H188.915V49.2726ZM197.408 51.5794C197.124 50.1022 195.942 49.159 193.896 49.159C191.794 49.159 190.362 50.1931 190.368 51.8067C190.362 53.0794 191.146 53.9204 192.822 54.2669L194.311 54.5794C195.112 54.7556 195.487 55.0794 195.487 55.5738C195.487 56.1704 194.839 56.6192 193.862 56.6192C192.919 56.6192 192.305 56.2101 192.129 55.426L190.124 55.6192C190.379 57.2215 191.726 58.1704 193.868 58.1704C196.05 58.1704 197.589 57.0397 197.595 55.3863C197.589 54.1419 196.788 53.3806 195.141 53.0226L193.652 52.7044C192.766 52.5056 192.413 52.1988 192.419 51.6931C192.413 51.1022 193.067 50.6931 193.925 50.6931C194.874 50.6931 195.374 51.2101 195.533 51.784L197.408 51.5794ZM205.771 58.176C207.141 58.176 207.959 57.534 208.334 56.801H208.402V57.9999H210.379V52.159C210.379 49.8522 208.499 49.159 206.834 49.159C204.999 49.159 203.589 49.9772 203.135 51.5681L205.055 51.8408C205.26 51.2442 205.839 50.7329 206.845 50.7329C207.8 50.7329 208.322 51.2215 208.322 52.0794V52.1135C208.322 52.7044 207.703 52.7329 206.163 52.8976C204.47 53.0794 202.851 53.5851 202.851 55.551C202.851 57.2669 204.107 58.176 205.771 58.176ZM206.305 56.6647C205.447 56.6647 204.834 56.2726 204.834 55.5169C204.834 54.7272 205.521 54.3976 206.442 54.2669C206.982 54.1931 208.061 54.0567 208.328 53.8408V54.8692C208.328 55.8408 207.544 56.6647 206.305 56.6647ZM214.504 52.8863C214.504 51.6249 215.266 50.8976 216.351 50.8976C217.413 50.8976 218.05 51.5965 218.05 52.7613V57.9999H220.107V52.4431C220.112 50.3522 218.919 49.159 217.118 49.159C215.811 49.159 214.913 49.784 214.516 50.7556H214.413V49.2726H212.447V57.9999H214.504V52.8863ZM225.436 58.1533C226.936 58.1533 227.612 57.2613 227.936 56.6249H228.061V57.9999H230.084V46.3635H228.021V50.7158H227.936C227.624 50.0851 226.982 49.159 225.442 49.159C223.425 49.159 221.839 50.7385 221.839 53.6476C221.839 56.5226 223.379 58.1533 225.436 58.1533ZM226.01 56.4658C224.652 56.4658 223.936 55.2726 223.936 53.6363C223.936 52.0113 224.641 50.8465 226.01 50.8465C227.334 50.8465 228.061 51.9431 228.061 53.6363C228.061 55.3294 227.322 56.4658 226.01 56.4658ZM23.8691 85.9999H25.9259V77.2726H23.8691V85.9999ZM24.9032 76.034C25.5566 76.034 26.0907 75.534 26.0907 74.9204C26.0907 74.301 25.5566 73.801 24.9032 73.801C24.2441 73.801 23.71 74.301 23.71 74.9204C23.71 75.534 24.2441 76.034 24.9032 76.034ZM30.0978 80.8863C30.0978 79.6249 30.8592 78.8976 31.9444 78.8976C33.0069 78.8976 33.6433 79.5965 33.6433 80.7613V85.9999H35.7001V80.4431C35.7058 78.3522 34.5126 77.159 32.7114 77.159C31.4046 77.159 30.5069 77.784 30.1092 78.7556H30.0069V77.2726H28.041V85.9999H30.0978V80.8863ZM45.2739 77.2726H43.0864L41.0751 83.7556H40.9842L38.9785 77.2726H36.7853L39.8933 85.9999H42.166L45.2739 77.2726ZM50.264 86.1704C52.2981 86.1704 53.6958 85.176 54.0595 83.659L52.139 83.4431C51.8606 84.1817 51.1788 84.5681 50.2924 84.5681C48.9629 84.5681 48.0822 83.6931 48.0651 82.1988H54.1447V81.5681C54.1447 78.5056 52.3038 77.159 50.156 77.159C47.656 77.159 46.0254 78.9942 46.0254 81.6874C46.0254 84.426 47.6333 86.1704 50.264 86.1704ZM48.0708 80.8124C48.1333 79.6988 48.9572 78.7613 50.1845 78.7613C51.3663 78.7613 52.1617 79.6249 52.1731 80.8124H48.0708ZM62.7825 79.5794C62.4984 78.1022 61.3166 77.159 59.2711 77.159C57.1688 77.159 55.737 78.1931 55.7427 79.8067C55.737 81.0794 56.5211 81.9204 58.1972 82.2669L59.6859 82.5794C60.487 82.7556 60.862 83.0794 60.862 83.5738C60.862 84.1704 60.2143 84.6192 59.237 84.6192C58.2938 84.6192 57.6802 84.2101 57.5041 83.426L55.4984 83.6192C55.7541 85.2215 57.1007 86.1704 59.2427 86.1704C61.4245 86.1704 62.9643 85.0397 62.97 83.3863C62.9643 82.1419 62.1632 81.3806 60.5154 81.0226L59.0268 80.7044C58.1404 80.5056 57.7882 80.1988 57.7938 79.6931C57.7882 79.1022 58.4416 78.6931 59.2995 78.6931C60.2484 78.6931 60.7484 79.2101 60.9075 79.784L62.7825 79.5794ZM69.0239 77.2726H67.3024V75.1817H65.2455V77.2726H64.0069V78.8635H65.2455V83.7158C65.2342 85.3579 66.4274 86.1647 67.9728 86.1192C68.558 86.1022 68.9614 85.9885 69.183 85.9147L68.8364 84.3067C68.7228 84.3351 68.4899 84.3863 68.2342 84.3863C67.7171 84.3863 67.3024 84.2044 67.3024 83.3749V78.8635H69.0239V77.2726ZM70.7441 85.9999H72.8009V80.6931C72.8009 79.6192 73.5168 78.8919 74.4032 78.8919C75.2725 78.8919 75.8691 79.4772 75.8691 80.3749V85.9999H77.8862V80.5567C77.8862 79.5738 78.4714 78.8919 79.4657 78.8919C80.2953 78.8919 80.9543 79.3806 80.9543 80.4601V85.9999H83.0168V80.1419C83.0168 78.1931 81.8918 77.159 80.2896 77.159C79.0225 77.159 78.0566 77.784 77.6703 78.7556H77.5793C77.2441 77.7669 76.3975 77.159 75.2214 77.159C74.0509 77.159 73.1759 77.7613 72.8123 78.7556H72.71V77.2726H70.7441V85.9999ZM88.9671 86.1704C91.0012 86.1704 92.3989 85.176 92.7626 83.659L90.8421 83.4431C90.5637 84.1817 89.8819 84.5681 88.9955 84.5681C87.666 84.5681 86.7853 83.6931 86.7683 82.1988H92.8478V81.5681C92.8478 78.5056 91.0069 77.159 88.8592 77.159C86.3592 77.159 84.7285 78.9942 84.7285 81.6874C84.7285 84.426 86.3364 86.1704 88.9671 86.1704ZM86.7739 80.8124C86.8364 79.6988 87.6603 78.7613 88.8876 78.7613C90.0694 78.7613 90.8649 79.6249 90.8762 80.8124H86.7739ZM96.6447 80.8863C96.6447 79.6249 97.406 78.8976 98.4913 78.8976C99.5538 78.8976 100.19 79.5965 100.19 80.7613V85.9999H102.247V80.4431C102.253 78.3522 101.06 77.159 99.2583 77.159C97.9515 77.159 97.0538 77.784 96.656 78.7556H96.5538V77.2726H94.5879V85.9999H96.6447V80.8863ZM108.696 77.2726H106.974V75.1817H104.918V77.2726H103.679V78.8635H104.918V83.7158C104.906 85.3579 106.099 86.1647 107.645 86.1192C108.23 86.1022 108.634 85.9885 108.855 85.9147L108.509 84.3067C108.395 84.3351 108.162 84.3863 107.906 84.3863C107.389 84.3863 106.974 84.2044 106.974 83.3749V78.8635H108.696V77.2726ZM117.189 79.5794C116.905 78.1022 115.723 77.159 113.678 77.159C111.575 77.159 110.143 78.1931 110.149 79.8067C110.143 81.0794 110.928 81.9204 112.604 82.2669L114.092 82.5794C114.893 82.7556 115.268 83.0794 115.268 83.5738C115.268 84.1704 114.621 84.6192 113.643 84.6192C112.7 84.6192 112.087 84.2101 111.911 83.426L109.905 83.6192C110.161 85.2215 111.507 86.1704 113.649 86.1704C115.831 86.1704 117.371 85.0397 117.376 83.3863C117.371 82.1419 116.57 81.3806 114.922 81.0226L113.433 80.7044C112.547 80.5056 112.195 80.1988 112.2 79.6931C112.195 79.1022 112.848 78.6931 113.706 78.6931C114.655 78.6931 115.155 79.2101 115.314 79.784L117.189 79.5794ZM123.041 85.9999H125.098V77.2726H123.041V85.9999ZM124.075 76.034C124.729 76.034 125.263 75.534 125.263 74.9204C125.263 74.301 124.729 73.801 124.075 73.801C123.416 73.801 122.882 74.301 122.882 74.9204C122.882 75.534 123.416 76.034 124.075 76.034ZM129.27 80.8863C129.27 79.6249 130.031 78.8976 131.116 78.8976C132.179 78.8976 132.815 79.5965 132.815 80.7613V85.9999H134.872V80.4431C134.878 78.3522 133.685 77.159 131.884 77.159C130.577 77.159 129.679 77.784 129.281 78.7556H129.179V77.2726H127.213V85.9999H129.27V80.8863ZM143.443 86.176C144.812 86.176 145.631 85.534 146.006 84.801H146.074V85.9999H148.051V80.159C148.051 77.8522 146.17 77.159 144.506 77.159C142.67 77.159 141.261 77.9772 140.807 79.5681L142.727 79.8408C142.932 79.2442 143.511 78.7329 144.517 78.7329C145.472 78.7329 145.994 79.2215 145.994 80.0794V80.1135C145.994 80.7044 145.375 80.7329 143.835 80.8976C142.142 81.0794 140.523 81.5851 140.523 83.551C140.523 85.2669 141.778 86.176 143.443 86.176ZM143.977 84.6647C143.119 84.6647 142.506 84.2726 142.506 83.5169C142.506 82.7272 143.193 82.3976 144.114 82.2669C144.653 82.1931 145.733 82.0567 146 81.8408V82.8692C146 83.8408 145.216 84.6647 143.977 84.6647ZM160.986 79.5794C160.702 78.1022 159.52 77.159 157.474 77.159C155.372 77.159 153.94 78.1931 153.946 79.8067C153.94 81.0794 154.724 81.9204 156.401 82.2669L157.889 82.5794C158.69 82.7556 159.065 83.0794 159.065 83.5738C159.065 84.1704 158.418 84.6192 157.44 84.6192C156.497 84.6192 155.884 84.2101 155.707 83.426L153.702 83.6192C153.957 85.2215 155.304 86.1704 157.446 86.1704C159.628 86.1704 161.168 85.0397 161.173 83.3863C161.168 82.1419 160.366 81.3806 158.719 81.0226L157.23 80.7044C156.344 80.5056 155.991 80.1988 155.997 79.6931C155.991 79.1022 156.645 78.6931 157.503 78.6931C158.452 78.6931 158.952 79.2101 159.111 79.784L160.986 79.5794ZM166.733 86.1704C168.767 86.1704 170.165 85.176 170.528 83.659L168.608 83.4431C168.33 84.1817 167.648 84.5681 166.761 84.5681C165.432 84.5681 164.551 83.6931 164.534 82.1988H170.614V81.5681C170.614 78.5056 168.773 77.159 166.625 77.159C164.125 77.159 162.494 78.9942 162.494 81.6874C162.494 84.426 164.102 86.1704 166.733 86.1704ZM164.54 80.8124C164.602 79.6988 165.426 78.7613 166.653 78.7613C167.835 78.7613 168.631 79.6249 168.642 80.8124H164.54ZM176.161 86.1704C178.354 86.1704 179.751 84.8692 179.899 83.0169H177.933C177.757 83.9544 177.081 84.4942 176.178 84.4942C174.893 84.4942 174.064 83.4204 174.064 81.6363C174.064 79.8749 174.911 78.8181 176.178 78.8181C177.166 78.8181 177.774 79.4544 177.933 80.2954H179.899C179.757 78.4033 178.28 77.159 176.149 77.159C173.592 77.159 171.979 79.0056 171.979 81.6704C171.979 84.3124 173.553 86.1704 176.161 86.1704ZM187.151 82.3294C187.151 83.659 186.202 84.3181 185.293 84.3181C184.304 84.3181 183.645 83.6192 183.645 82.5113V77.2726H181.588V82.8294C181.588 84.926 182.781 86.1135 184.497 86.1135C185.804 86.1135 186.724 85.426 187.122 84.4488H187.213V85.9999H189.207V77.2726H187.151V82.3294ZM191.322 85.9999H193.379V80.8692C193.379 79.7613 194.214 78.9772 195.345 78.9772C195.692 78.9772 196.124 79.0397 196.3 79.0965V77.2044C196.112 77.1704 195.788 77.1476 195.561 77.1476C194.561 77.1476 193.726 77.7158 193.408 78.7272H193.317V77.2726H191.322V85.9999ZM201.17 86.1704C203.205 86.1704 204.602 85.176 204.966 83.659L203.045 83.4431C202.767 84.1817 202.085 84.5681 201.199 84.5681C199.869 84.5681 198.989 83.6931 198.972 82.1988H205.051V81.5681C205.051 78.5056 203.21 77.159 201.062 77.159C198.562 77.159 196.932 78.9942 196.932 81.6874C196.932 84.426 198.54 86.1704 201.17 86.1704ZM198.977 80.8124C199.04 79.6988 199.864 78.7613 201.091 78.7613C202.273 78.7613 203.068 79.6249 203.08 80.8124H198.977ZM212.561 85.9999H214.709L216.345 80.1022H216.464L218.101 85.9999H220.243L222.714 77.2726H220.612L219.101 83.3749H219.016L217.447 77.2726H215.374L213.805 83.409H213.726L212.192 77.2726H210.095L212.561 85.9999ZM226.662 86.176C228.031 86.176 228.849 85.534 229.224 84.801H229.293V85.9999H231.27V80.159C231.27 77.8522 229.389 77.159 227.724 77.159C225.889 77.159 224.48 77.9772 224.026 79.5681L225.946 79.8408C226.151 79.2442 226.73 78.7329 227.736 78.7329C228.69 78.7329 229.213 79.2215 229.213 80.0794V80.1135C229.213 80.7044 228.594 80.7329 227.054 80.8976C225.361 81.0794 223.741 81.5851 223.741 83.551C223.741 85.2669 224.997 86.176 226.662 86.176ZM227.196 84.6647C226.338 84.6647 225.724 84.2726 225.724 83.5169C225.724 82.7272 226.412 82.3976 227.332 82.2669C227.872 82.1931 228.952 82.0567 229.219 81.8408V82.8692C229.219 83.8408 228.435 84.6647 227.196 84.6647ZM235.395 74.3635H233.338V85.9999H235.395V74.3635ZM239.567 74.3635H237.51V85.9999H239.567V74.3635ZM245.545 86.1704C247.58 86.1704 248.977 85.176 249.341 83.659L247.42 83.4431C247.142 84.1817 246.46 84.5681 245.574 84.5681C244.244 84.5681 243.364 83.6931 243.347 82.1988H249.426V81.5681C249.426 78.5056 247.585 77.159 245.438 77.159C242.938 77.159 241.307 78.9942 241.307 81.6874C241.307 84.426 242.915 86.1704 245.545 86.1704ZM243.352 80.8124C243.415 79.6988 244.239 78.7613 245.466 78.7613C246.648 78.7613 247.443 79.6249 247.455 80.8124H243.352ZM255.524 77.2726H253.803V75.1817H251.746V77.2726H250.507V78.8635H251.746V83.7158C251.734 85.3579 252.928 86.1647 254.473 86.1192C255.058 86.1022 255.462 85.9885 255.683 85.9147L255.337 84.3067C255.223 84.3351 254.99 84.3863 254.734 84.3863C254.217 84.3863 253.803 84.2044 253.803 83.3749V78.8635H255.524V77.2726Z" fill="#A3A2AD"/>
<path opacity="0.3" d="M152 130C152 128.895 151.105 128 150 128C148.895 128 148 128.895 148 130C148 131.105 148.895 132 150 132C151.105 132 152 131.105 152 130Z" fill="#707070"/>
<path d="M143 130C143 127.791 141.209 126 139 126C136.791 126 135 127.791 135 130C135 132.209 136.791 134 139 134C141.209 134 143 132.209 143 130Z" fill="#916FFF"/>
<path opacity="0.3" d="M130 130C130 128.895 129.105 128 128 128C126.895 128 126 128.895 126 130C126 131.105 126.895 132 128 132C129.105 132 130 131.105 130 130Z" fill="#707070"/>
</svg>
