<svg width="279" height="134" viewBox="0 0 279 134" fill="none" xmlns="http://www.w3.org/2000/svg">
<path d="M30.0459 21.9999H33.3858V17.7087H35.6528C38.8172 17.7087 40.7941 15.833 40.7941 12.9655C40.7941 10.1249 38.8577 8.18171 35.754 8.18171H30.0459V21.9999ZM33.3858 15.0773V10.8738H35.0321C36.5299 10.8738 37.3328 11.6835 37.3328 12.9655C37.3328 14.2407 36.5299 15.0773 35.0321 15.0773H33.3858ZM47.6441 22.1956C50.9029 22.1956 52.8798 20.0432 52.8798 16.8518C52.8798 13.6537 50.9029 11.5013 47.6441 11.5013C44.3852 11.5013 42.4083 13.6537 42.4083 16.8518C42.4083 20.0432 44.3852 22.1956 47.6441 22.1956ZM47.6643 19.7059C46.4431 19.7059 45.7683 18.5454 45.7683 16.8316C45.7683 15.1111 46.4431 13.9438 47.6643 13.9438C48.845 13.9438 49.5198 15.1111 49.5198 16.8316C49.5198 18.5454 48.845 19.7059 47.6643 19.7059ZM55.14 21.9999H58.4394V16.3728C58.4394 15.138 59.3165 14.3081 60.4973 14.3081C60.8886 14.3081 61.4756 14.3756 61.7927 14.4836V11.616C61.5161 11.5418 61.172 11.4946 60.8683 11.4946C59.7348 11.4946 58.8307 12.1558 58.4529 13.5255H58.3449V11.6363H55.14V21.9999ZM70.0207 11.6363H68.1518V9.1533H64.8524V11.6363H63.4827V14.0652H64.8524V19.1054C64.8322 21.2037 66.1951 22.2563 68.5229 22.1483C69.319 22.1079 69.8925 21.9459 70.2097 21.8515L69.7104 19.4697C69.5687 19.5035 69.2381 19.5709 68.9884 19.5709C68.4554 19.5709 68.1518 19.355 68.1518 18.741V14.0652H70.0207V11.6363ZM78.1644 11.6363H76.1875V11.056C76.1875 10.4623 76.4304 10.0979 77.1996 10.0979C77.5099 10.0979 77.8878 10.1654 78.1307 10.2396L78.657 7.82411C78.2656 7.71615 77.3683 7.53398 76.4574 7.53398C74.3455 7.53398 72.8949 8.70799 72.8949 11.11V11.6363H71.4982V14.0652H72.8949V21.9999H76.1875V14.0652H78.1644V11.6363ZM84.8069 22.1956C88.0657 22.1956 90.0427 20.0432 90.0427 16.8518C90.0427 13.6537 88.0657 11.5013 84.8069 11.5013C81.548 11.5013 79.5711 13.6537 79.5711 16.8518C79.5711 20.0432 81.548 22.1956 84.8069 22.1956ZM84.8271 19.7059C83.6059 19.7059 82.9312 18.5454 82.9312 16.8316C82.9312 15.1111 83.6059 13.9438 84.8271 13.9438C86.0079 13.9438 86.6826 15.1111 86.6826 16.8316C86.6826 18.5454 86.0079 19.7059 84.8271 19.7059ZM95.6022 8.18171H92.3028V21.9999H95.6022V8.18171ZM98.2722 21.9999H101.571V11.6363H98.2722V21.9999ZM99.9253 10.4285C100.863 10.4285 101.619 9.72006 101.619 8.84968C101.619 7.97929 100.863 7.27759 99.9253 7.27759C98.9942 7.27759 98.2318 7.97929 98.2318 8.84968C98.2318 9.72006 98.9942 10.4285 99.9253 10.4285ZM109.079 22.1956C112.338 22.1956 114.315 20.0432 114.315 16.8518C114.315 13.6537 112.338 11.5013 109.079 11.5013C105.82 11.5013 103.843 13.6537 103.843 16.8518C103.843 20.0432 105.82 22.1956 109.079 22.1956ZM109.1 19.7059C107.878 19.7059 107.204 18.5454 107.204 16.8316C107.204 15.1111 107.878 13.9438 109.1 13.9438C110.28 13.9438 110.955 15.1111 110.955 16.8316C110.955 18.5454 110.28 19.7059 109.1 19.7059ZM121.227 8.18171V21.9999H124.479V13.4647H124.594L127.914 21.9122H129.992L133.311 13.512H133.426V21.9999H136.678V8.18171H132.542L129.034 16.7371H128.872L125.363 8.18171H121.227ZM142.253 22.1753C143.697 22.1753 144.695 21.6153 145.262 20.556H145.343V21.9999H148.447V14.9559C148.447 12.763 146.497 11.5013 143.859 11.5013C141.072 11.5013 139.493 12.9047 139.23 14.7939L142.273 14.9019C142.415 14.2407 142.961 13.8358 143.832 13.8358C144.641 13.8358 145.154 14.2272 145.154 14.9221V14.9559C145.154 15.5901 144.466 15.725 142.698 15.8802C140.6 16.0557 138.846 16.8316 138.846 19.1256C138.846 21.1767 140.269 22.1753 142.253 22.1753ZM143.272 20.0162C142.509 20.0162 141.97 19.6519 141.97 18.9637C141.97 18.2957 142.496 17.8909 143.434 17.7492C144.048 17.6615 144.803 17.5265 145.174 17.3309V18.316C145.174 19.328 144.324 20.0162 143.272 20.0162ZM154.334 16.0894C154.34 14.9086 155.029 14.2069 156.074 14.2069C157.12 14.2069 157.741 14.8951 157.734 16.0422V21.9999H161.034V15.3944C161.04 13.0599 159.617 11.5013 157.437 11.5013C155.906 11.5013 154.745 12.2772 154.286 13.539H154.172V11.6363H151.034V21.9999H154.334V16.0894ZM166.568 22.1753C168.012 22.1753 169.01 21.6153 169.577 20.556H169.658V21.9999H172.762V14.9559C172.762 12.763 170.812 11.5013 168.174 11.5013C165.387 11.5013 163.808 12.9047 163.545 14.7939L166.588 14.9019C166.73 14.2407 167.276 13.8358 168.147 13.8358C168.956 13.8358 169.469 14.2272 169.469 14.9221V14.9559C169.469 15.5901 168.781 15.725 167.013 15.8802C164.915 16.0557 163.16 16.8316 163.16 19.1256C163.16 21.1767 164.584 22.1753 166.568 22.1753ZM167.587 20.0162C166.824 20.0162 166.284 19.6519 166.284 18.9637C166.284 18.2957 166.811 17.8909 167.749 17.7492C168.363 17.6615 169.118 17.5265 169.489 17.3309V18.316C169.489 19.328 168.639 20.0162 167.587 20.0162ZM180.18 26.1022C183.304 26.1022 185.436 24.6785 185.436 22.0404V11.6363H182.15V13.4108H182.056C181.658 12.4594 180.754 11.5013 179.121 11.5013C176.955 11.5013 174.991 13.1679 174.991 16.8046C174.991 20.3266 176.86 21.8582 179.134 21.8582C180.659 21.8582 181.678 21.1498 182.069 20.1917H182.184V22.0134C182.184 23.3358 181.374 23.8149 180.268 23.8149C179.208 23.8149 178.574 23.4101 178.399 22.7691L175.275 22.9445C175.518 24.7595 177.225 26.1022 180.18 26.1022ZM180.281 19.4562C179.06 19.4562 178.379 18.4644 178.379 16.8046C178.379 15.1515 179.053 14.0787 180.281 14.0787C181.489 14.0787 182.191 15.1245 182.191 16.8046C182.191 18.4711 181.482 19.4562 180.281 19.4562ZM192.954 22.1956C195.673 22.1956 197.461 20.8799 197.839 18.8422L194.809 18.7545C194.553 19.4427 193.878 19.8138 193.015 19.8138C191.746 19.8138 190.964 18.9704 190.964 17.702V17.6142H197.873V16.7911C197.873 13.377 195.794 11.5013 192.853 11.5013C189.722 11.5013 187.711 13.6469 187.711 16.8586C187.711 20.1782 189.695 22.1956 192.954 22.1956ZM190.964 15.6981C191.011 14.6657 191.827 13.8831 192.92 13.8831C194.007 13.8831 194.789 14.6387 194.803 15.6981H190.964ZM200.128 21.9999H203.427V15.8667C203.427 14.8412 204.028 14.1867 204.891 14.1867C205.748 14.1867 206.315 14.7872 206.315 15.7453V21.9999H209.486V15.8128C209.486 14.8209 210.033 14.1867 210.943 14.1867C211.78 14.1867 212.374 14.7467 212.374 15.779V21.9999H215.673V15.0233C215.673 12.8305 214.324 11.5013 212.367 11.5013C210.835 11.5013 209.628 12.3042 209.243 13.539H209.135C208.859 12.2975 207.745 11.5013 206.308 11.5013C204.891 11.5013 203.812 12.2772 203.38 13.539H203.265V11.6363H200.128V21.9999ZM223.132 22.1956C225.851 22.1956 227.639 20.8799 228.017 18.8422L224.987 18.7545C224.731 19.4427 224.056 19.8138 223.193 19.8138C221.924 19.8138 221.142 18.9704 221.142 17.702V17.6142H228.051V16.7911C228.051 13.377 225.973 11.5013 223.031 11.5013C219.9 11.5013 217.889 13.6469 217.889 16.8586C217.889 20.1782 219.873 22.1956 223.132 22.1956ZM221.142 15.6981C221.189 14.6657 222.005 13.8831 223.098 13.8831C224.185 13.8831 224.967 14.6387 224.981 15.6981H221.142ZM233.605 16.0894C233.612 14.9086 234.3 14.2069 235.346 14.2069C236.392 14.2069 237.012 14.8951 237.006 16.0422V21.9999H240.305V15.3944C240.312 13.0599 238.888 11.5013 236.709 11.5013C235.177 11.5013 234.017 12.2772 233.558 13.539H233.443V11.6363H230.306V21.9999H233.605V16.0894ZM248.768 11.6363H246.899V9.1533H243.599V11.6363H242.23V14.0652H243.599V19.1054C243.579 21.2037 244.942 22.2563 247.27 22.1483C248.066 22.1079 248.639 21.9459 248.957 21.8515L248.457 19.4697C248.316 19.5035 247.985 19.5709 247.735 19.5709C247.202 19.5709 246.899 19.355 246.899 18.741V14.0652H248.768V11.6363Z" fill="white"/>
<path d="M18.1383 46.3635H16.0303V57.9999H18.1383V46.3635ZM22.3869 52.8863C22.3869 51.6249 23.1482 50.8976 24.2335 50.8976C25.296 50.8976 25.9323 51.5965 25.9323 52.7613V57.9999H27.9891V52.4431C27.9948 50.3522 26.8016 49.159 25.0005 49.159C23.6937 49.159 22.796 49.784 22.3982 50.7556H22.296V49.2726H20.3301V57.9999H22.3869V52.8863ZM37.563 49.2726H35.3755L33.3641 55.7556H33.2732L31.2676 49.2726H29.0744L32.1823 57.9999H34.4551L37.563 49.2726ZM42.5531 58.1704C44.5872 58.1704 45.9849 57.176 46.3485 55.659L44.4281 55.4431C44.1497 56.1817 43.4678 56.5681 42.5815 56.5681C41.2519 56.5681 40.3712 55.6931 40.3542 54.1988H46.4337V53.5681C46.4337 50.5056 44.5928 49.159 42.4451 49.159C39.9451 49.159 38.3144 50.9942 38.3144 53.6874C38.3144 56.426 39.9224 58.1704 42.5531 58.1704ZM40.3599 52.8124C40.4224 51.6988 41.2462 50.7613 42.4735 50.7613C43.6553 50.7613 44.4508 51.6249 44.4622 52.8124H40.3599ZM55.0715 51.5794C54.7874 50.1022 53.6056 49.159 51.5602 49.159C49.4579 49.159 48.0261 50.1931 48.0318 51.8067C48.0261 53.0794 48.8102 53.9204 50.4863 54.2669L51.9749 54.5794C52.7761 54.7556 53.1511 55.0794 53.1511 55.5738C53.1511 56.1704 52.5034 56.6192 51.5261 56.6192C50.5829 56.6192 49.9693 56.2101 49.7931 55.426L47.7874 55.6192C48.0431 57.2215 49.3897 58.1704 51.5318 58.1704C53.7136 58.1704 55.2534 57.0397 55.259 55.3863C55.2534 54.1419 54.4522 53.3806 52.8045 53.0226L51.3159 52.7044C50.4295 52.5056 50.0772 52.1988 50.0829 51.6931C50.0772 51.1022 50.7306 50.6931 51.5886 50.6931C52.5374 50.6931 53.0374 51.2101 53.1965 51.784L55.0715 51.5794ZM61.313 49.2726H59.5914V47.1817H57.5346V49.2726H56.296V50.8635H57.5346V55.7158C57.5232 57.3579 58.7164 58.1647 60.2619 58.1192C60.8471 58.1022 61.2505 57.9885 61.4721 57.9147L61.1255 56.3067C61.0119 56.3351 60.7789 56.3863 60.5232 56.3863C60.0062 56.3863 59.5914 56.2044 59.5914 55.3749V50.8635H61.313V49.2726ZM70.4792 58.1704C71.5076 58.1704 72.6497 57.8522 73.4622 57.1476L74.2065 57.9999H76.4337L74.7292 56.0056C75.2974 55.2442 75.7406 54.1135 75.7406 52.5169H73.9735C73.9735 53.284 73.7917 53.9715 73.4849 54.5454L71.3599 52.0567L72.0928 51.5169C73.0644 50.8124 73.6383 49.9658 73.6383 48.8635C73.6383 47.4431 72.519 46.2215 70.6837 46.2215C68.8428 46.2215 67.6326 47.4431 67.6326 49.0965C67.6326 50.1363 68.1553 50.9829 68.8258 51.8124C67.5303 52.7044 66.644 53.5397 66.644 54.909C66.644 56.7613 68.0985 58.1704 70.4792 58.1704ZM72.3428 55.8635C71.7917 56.2613 71.161 56.4772 70.5417 56.4772C69.3997 56.4772 68.661 55.7385 68.661 54.8181C68.661 54.4147 68.9678 53.8067 69.7406 53.2385L69.9281 53.1022L72.3428 55.8635ZM70.3087 50.801C69.8201 50.1988 69.4678 49.659 69.4678 49.1249C69.4678 48.4942 69.9678 47.909 70.7122 47.909C71.4451 47.909 71.894 48.4544 71.894 48.9544C71.894 49.5454 71.5758 49.9601 70.9678 50.3522L70.3087 50.801ZM85.3755 61.4544C87.7335 61.4544 89.4721 60.3749 89.4721 58.1419V49.2726H87.4437V50.7158H87.3301C87.0176 50.0851 86.3641 49.159 84.8244 49.159C82.8073 49.159 81.2221 50.7385 81.2221 53.6079C81.2221 56.4544 82.8073 57.8749 84.8187 57.8749C86.313 57.8749 87.0119 57.0738 87.3301 56.4317H87.4323V58.0851C87.4323 59.3692 86.5801 59.8976 85.4096 59.8976C84.171 59.8976 83.6255 59.3124 83.3755 58.801L81.5232 59.2499C81.8982 60.4715 83.1539 61.4544 85.3755 61.4544ZM85.3926 56.2613C84.0346 56.2613 83.3187 55.2044 83.3187 53.5965C83.3187 52.0113 84.0232 50.8465 85.3926 50.8465C86.7164 50.8465 87.4437 51.9431 87.4437 53.5965C87.4437 55.2613 86.7051 56.2613 85.3926 56.2613ZM91.5801 57.9999H93.6369V52.8692C93.6369 51.7613 94.4721 50.9772 95.6028 50.9772C95.9494 50.9772 96.3812 51.0397 96.5573 51.0965V49.2044C96.3698 49.1704 96.046 49.1476 95.8187 49.1476C94.8187 49.1476 93.9835 49.7158 93.6653 50.7272H93.5744V49.2726H91.5801V57.9999ZM101.371 58.1704C103.928 58.1704 105.553 56.3692 105.553 53.6704C105.553 50.9658 103.928 49.159 101.371 49.159C98.8144 49.159 97.1894 50.9658 97.1894 53.6704C97.1894 56.3692 98.8144 58.1704 101.371 58.1704ZM101.383 56.5226C99.9678 56.5226 99.2747 55.2613 99.2747 53.6647C99.2747 52.0681 99.9678 50.7897 101.383 50.7897C102.775 50.7897 103.468 52.0681 103.468 53.6647C103.468 55.2613 102.775 56.5226 101.383 56.5226ZM108.866 57.9999H111.013L112.65 52.1022H112.769L114.406 57.9999H116.548L119.019 49.2726H116.917L115.406 55.3749H115.32L113.752 49.2726H111.678L110.11 55.409H110.031L108.496 49.2726H106.4L108.866 57.9999ZM125.702 61.2726C127.305 61.2726 128.231 60.4488 128.725 59.0567L132.231 49.284L130.032 49.2726L128.015 55.8635H127.924L125.913 49.2726H123.731L126.896 58.1817L126.719 58.6533C126.339 59.6476 125.737 59.7158 124.839 59.4544L124.362 61.0567C124.64 61.1704 125.14 61.2726 125.702 61.2726ZM137.168 58.1704C139.725 58.1704 141.35 56.3692 141.35 53.6704C141.35 50.9658 139.725 49.159 137.168 49.159C134.612 49.159 132.987 50.9658 132.987 53.6704C132.987 56.3692 134.612 58.1704 137.168 58.1704ZM137.18 56.5226C135.765 56.5226 135.072 55.2613 135.072 53.6647C135.072 52.0681 135.765 50.7897 137.18 50.7897C138.572 50.7897 139.265 52.0681 139.265 53.6647C139.265 55.2613 138.572 56.5226 137.18 56.5226ZM148.658 54.3294C148.658 55.659 147.71 56.3181 146.8 56.3181C145.812 56.3181 145.153 55.6192 145.153 54.5113V49.2726H143.096V54.8294C143.096 56.926 144.289 58.1135 146.005 58.1135C147.312 58.1135 148.232 57.426 148.63 56.4488H148.721V57.9999H150.715V49.2726H148.658V54.3294ZM152.83 57.9999H154.887V52.8692C154.887 51.7613 155.722 50.9772 156.853 50.9772C157.2 50.9772 157.631 51.0397 157.808 51.0965V49.2044C157.62 49.1704 157.296 49.1476 157.069 49.1476C156.069 49.1476 155.234 49.7158 154.915 50.7272H154.825V49.2726H152.83V57.9999ZM163.143 61.2726H165.2V56.6249H165.285C165.609 57.2613 166.285 58.1533 167.785 58.1533C169.842 58.1533 171.381 56.5226 171.381 53.6476C171.381 50.7385 169.796 49.159 167.779 49.159C166.239 49.159 165.597 50.0851 165.285 50.7158H165.165V49.2726H163.143V61.2726ZM165.16 53.6363C165.16 51.9431 165.887 50.8465 167.211 50.8465C168.58 50.8465 169.285 52.0113 169.285 53.6363C169.285 55.2726 168.569 56.4658 167.211 56.4658C165.898 56.4658 165.16 55.3294 165.16 53.6363ZM176.95 58.1704C179.506 58.1704 181.131 56.3692 181.131 53.6704C181.131 50.9658 179.506 49.159 176.95 49.159C174.393 49.159 172.768 50.9658 172.768 53.6704C172.768 56.3692 174.393 58.1704 176.95 58.1704ZM176.961 56.5226C175.546 56.5226 174.853 55.2613 174.853 53.6647C174.853 52.0681 175.546 50.7897 176.961 50.7897C178.353 50.7897 179.046 52.0681 179.046 53.6647C179.046 55.2613 178.353 56.5226 176.961 56.5226ZM182.877 57.9999H184.934V52.8692C184.934 51.7613 185.769 50.9772 186.9 50.9772C187.246 50.9772 187.678 51.0397 187.854 51.0965V49.2044C187.667 49.1704 187.343 49.1476 187.116 49.1476C186.116 49.1476 185.281 49.7158 184.962 50.7272H184.871V49.2726H182.877V57.9999ZM194.048 49.2726H192.326V47.1817H190.269V49.2726H189.031V50.8635H190.269V55.7158C190.258 57.3579 191.451 58.1647 192.996 58.1192C193.582 58.1022 193.985 57.9885 194.207 57.9147L193.86 56.3067C193.746 56.3351 193.513 56.3863 193.258 56.3863C192.741 56.3863 192.326 56.2044 192.326 55.3749V50.8635H194.048V49.2726ZM200.188 49.2726H198.376V48.5851C198.376 47.9033 198.66 47.5226 199.427 47.5226C199.751 47.5226 200.023 47.5965 200.194 47.6476L200.609 46.0567C200.342 45.9658 199.756 45.8181 199.046 45.8181C197.529 45.8181 196.319 46.6874 196.319 48.4488V49.2726H195.029V50.8635H196.319V57.9999H198.376V50.8635H200.188V49.2726ZM205.278 58.1704C207.835 58.1704 209.46 56.3692 209.46 53.6704C209.46 50.9658 207.835 49.159 205.278 49.159C202.721 49.159 201.096 50.9658 201.096 53.6704C201.096 56.3692 202.721 58.1704 205.278 58.1704ZM205.289 56.5226C203.874 56.5226 203.181 55.2613 203.181 53.6647C203.181 52.0681 203.874 50.7897 205.289 50.7897C206.681 50.7897 207.374 52.0681 207.374 53.6647C207.374 55.2613 206.681 56.5226 205.289 56.5226ZM213.262 46.3635H211.205V57.9999H213.262V46.3635ZM215.377 57.9999H217.434V49.2726H215.377V57.9999ZM216.411 48.034C217.065 48.034 217.599 47.534 217.599 46.9204C217.599 46.301 217.065 45.801 216.411 45.801C215.752 45.801 215.218 46.301 215.218 46.9204C215.218 47.534 215.752 48.034 216.411 48.034ZM223.356 58.1704C225.913 58.1704 227.538 56.3692 227.538 53.6704C227.538 50.9658 225.913 49.159 223.356 49.159C220.799 49.159 219.174 50.9658 219.174 53.6704C219.174 56.3692 220.799 58.1704 223.356 58.1704ZM223.367 56.5226C221.952 56.5226 221.259 55.2613 221.259 53.6647C221.259 52.0681 221.952 50.7897 223.367 50.7897C224.759 50.7897 225.452 52.0681 225.452 53.6647C225.452 55.2613 224.759 56.5226 223.367 56.5226ZM230.55 58.1249C231.221 58.1249 231.795 57.5681 231.8 56.8749C231.795 56.1931 231.221 55.6363 230.55 55.6363C229.857 55.6363 229.295 56.1931 229.3 56.8749C229.295 57.5681 229.857 58.1249 230.55 58.1249ZM245.42 50.0794H247.567C247.21 47.7954 245.232 46.2044 242.658 46.2044C239.613 46.2044 237.329 48.4431 237.329 52.1931C237.329 55.8749 239.511 58.159 242.721 58.159C245.602 58.159 247.664 56.3067 247.664 53.3067V51.909H242.942V53.5567H245.624C245.59 55.2158 244.482 56.2669 242.732 56.2669C240.783 56.2669 239.448 54.8067 239.448 52.1704C239.448 49.551 240.806 48.0965 242.687 48.0965C244.09 48.0965 245.045 48.8465 245.42 50.0794ZM253.475 58.1704C255.509 58.1704 256.907 57.176 257.271 55.659L255.35 55.4431C255.072 56.1817 254.39 56.5681 253.504 56.5681C252.174 56.5681 251.293 55.6931 251.276 54.1988H257.356V53.5681C257.356 50.5056 255.515 49.159 253.367 49.159C250.867 49.159 249.237 50.9942 249.237 53.6874C249.237 56.426 250.844 58.1704 253.475 58.1704ZM251.282 52.8124C251.344 51.6988 252.168 50.7613 253.396 50.7613C254.577 50.7613 255.373 51.6249 255.384 52.8124H251.282ZM263.454 49.2726H261.732V47.1817H259.675V49.2726H258.437V50.8635H259.675V55.7158C259.664 57.3579 260.857 58.1647 262.403 58.1192C262.988 58.1022 263.391 57.9885 263.613 57.9147L263.266 56.3067C263.153 56.3351 262.92 56.3863 262.664 56.3863C262.147 56.3863 261.732 56.2044 261.732 55.3749V50.8635H263.454V49.2726ZM11.8066 82.3294C11.8066 83.659 10.8578 84.3181 9.94868 84.3181C8.96005 84.3181 8.30096 83.6192 8.30096 82.5113V77.2726H6.24414V82.8294C6.24414 84.926 7.43732 86.1135 9.15323 86.1135C10.46 86.1135 11.3805 85.426 11.7782 84.4488H11.8691V85.9999H13.8634V77.2726H11.8066V82.3294ZM15.9785 89.2726H18.0353V84.6249H18.1205C18.4444 85.2613 19.1205 86.1533 20.6205 86.1533C22.6774 86.1533 24.2171 84.5226 24.2171 81.6476C24.2171 78.7385 22.6319 77.159 20.6149 77.159C19.0751 77.159 18.433 78.0851 18.1205 78.7158H18.0012V77.2726H15.9785V89.2726ZM17.9955 81.6363C17.9955 79.9431 18.7228 78.8465 20.0467 78.8465C21.416 78.8465 22.1205 80.0113 22.1205 81.6363C22.1205 83.2726 21.4046 84.4658 20.0467 84.4658C18.7342 84.4658 17.9955 83.3294 17.9955 81.6363ZM29.2171 86.1533C30.7171 86.1533 31.3933 85.2613 31.7171 84.6249H31.8421V85.9999H33.8649V74.3635H31.8024V78.7158H31.7171C31.4046 78.0851 30.7626 77.159 29.2228 77.159C27.2058 77.159 25.6205 78.7385 25.6205 81.6476C25.6205 84.5226 27.1603 86.1533 29.2171 86.1533ZM29.791 84.4658C28.433 84.4658 27.7171 83.2726 27.7171 81.6363C27.7171 80.0113 28.4217 78.8465 29.791 78.8465C31.1149 78.8465 31.8421 79.9431 31.8421 81.6363C31.8421 83.3294 31.1035 84.4658 29.791 84.4658ZM38.568 86.176C39.9373 86.176 40.7555 85.534 41.1305 84.801H41.1987V85.9999H43.1759V80.159C43.1759 77.8522 41.2953 77.159 39.6305 77.159C37.7953 77.159 36.3862 77.9772 35.9316 79.5681L37.8521 79.8408C38.0566 79.2442 38.6362 78.7329 39.6418 78.7329C40.5964 78.7329 41.1191 79.2215 41.1191 80.0794V80.1135C41.1191 80.7044 40.4998 80.7329 38.96 80.8976C37.2668 81.0794 35.6475 81.5851 35.6475 83.551C35.6475 85.2669 36.9032 86.176 38.568 86.176ZM39.1021 84.6647C38.2441 84.6647 37.6305 84.2726 37.6305 83.5169C37.6305 82.7272 38.318 82.3976 39.2384 82.2669C39.7782 82.1931 40.8578 82.0567 41.1248 81.8408V82.8692C41.1248 83.8408 40.3407 84.6647 39.1021 84.6647ZM49.6021 77.2726H47.8805V75.1817H45.8237V77.2726H44.585V78.8635H45.8237V83.7158C45.8123 85.3579 47.0055 86.1647 48.5509 86.1192C49.1362 86.1022 49.5396 85.9885 49.7612 85.9147L49.4146 84.3067C49.3009 84.3351 49.068 84.3863 48.8123 84.3863C48.2953 84.3863 47.8805 84.2044 47.8805 83.3749V78.8635H49.6021V77.2726ZM55.0921 86.1704C57.1262 86.1704 58.5239 85.176 58.8876 83.659L56.9671 83.4431C56.6887 84.1817 56.0069 84.5681 55.1205 84.5681C53.791 84.5681 52.9103 83.6931 52.8933 82.1988H58.9728V81.5681C58.9728 78.5056 57.1319 77.159 54.9842 77.159C52.4842 77.159 50.8535 78.9942 50.8535 81.6874C50.8535 84.426 52.4614 86.1704 55.0921 86.1704ZM52.8989 80.8124C52.9614 79.6988 53.7853 78.7613 55.0126 78.7613C56.1944 78.7613 56.9899 79.6249 57.0012 80.8124H52.8989ZM67.6106 79.5794C67.3265 78.1022 66.1447 77.159 64.0992 77.159C61.997 77.159 60.5651 78.1931 60.5708 79.8067C60.5651 81.0794 61.3492 81.9204 63.0254 82.2669L64.514 82.5794C65.3151 82.7556 65.6901 83.0794 65.6901 83.5738C65.6901 84.1704 65.0424 84.6192 64.0651 84.6192C63.122 84.6192 62.5083 84.2101 62.3322 83.426L60.3265 83.6192C60.5822 85.2215 61.9288 86.1704 64.0708 86.1704C66.2526 86.1704 67.7924 85.0397 67.7981 83.3863C67.7924 82.1419 66.9913 81.3806 65.3436 81.0226L63.8549 80.7044C62.9686 80.5056 62.6163 80.1988 62.622 79.6931C62.6163 79.1022 63.2697 78.6931 64.1276 78.6931C65.0765 78.6931 65.5765 79.2101 65.7356 79.784L67.6106 79.5794ZM77.2697 86.1704C79.8265 86.1704 81.4515 84.3692 81.4515 81.6704C81.4515 78.9658 79.8265 77.159 77.2697 77.159C74.7129 77.159 73.0879 78.9658 73.0879 81.6704C73.0879 84.3692 74.7129 86.1704 77.2697 86.1704ZM77.281 84.5226C75.8663 84.5226 75.1731 83.2613 75.1731 81.6647C75.1731 80.0681 75.8663 78.7897 77.281 78.7897C78.6731 78.7897 79.3663 80.0681 79.3663 81.6647C79.3663 83.2613 78.6731 84.5226 77.281 84.5226ZM85.2541 80.8863C85.2541 79.6249 86.0154 78.8976 87.1007 78.8976C88.1632 78.8976 88.7995 79.5965 88.7995 80.7613V85.9999H90.8563V80.4431C90.862 78.3522 89.6688 77.159 87.8677 77.159C86.5609 77.159 85.6632 77.784 85.2654 78.7556H85.1632V77.2726H83.1972V85.9999H85.2541V80.8863ZM101.274 77.2726H99.5524V75.1817H97.4955V77.2726H96.2569V78.8635H97.4955V83.7158C97.4842 85.3579 98.6774 86.1647 100.223 86.1192C100.808 86.1022 101.212 85.9885 101.433 85.9147L101.087 84.3067C100.973 84.3351 100.74 84.3863 100.484 84.3863C99.9671 84.3863 99.5524 84.2044 99.5524 83.3749V78.8635H101.274V77.2726ZM105.239 80.8863C105.239 79.6249 106.023 78.8976 107.125 78.8976C108.205 78.8976 108.841 79.5851 108.841 80.7613V85.9999H110.898V80.4431C110.898 78.3351 109.705 77.159 107.892 77.159C106.551 77.159 105.699 77.7669 105.295 78.7556H105.193V74.3635H103.182V85.9999H105.239V80.8863ZM116.858 86.1704C118.892 86.1704 120.29 85.176 120.653 83.659L118.733 83.4431C118.455 84.1817 117.773 84.5681 116.886 84.5681C115.557 84.5681 114.676 83.6931 114.659 82.1988H120.739V81.5681C120.739 78.5056 118.898 77.159 116.75 77.159C114.25 77.159 112.619 78.9942 112.619 81.6874C112.619 84.426 114.227 86.1704 116.858 86.1704ZM114.665 80.8124C114.727 79.6988 115.551 78.7613 116.778 78.7613C117.96 78.7613 118.756 79.6249 118.767 80.8124H114.665ZM128.504 74.3635H126.447V85.9999H128.504V74.3635ZM133.131 86.176C134.5 86.176 135.318 85.534 135.693 84.801H135.761V85.9999H137.739V80.159C137.739 77.8522 135.858 77.159 134.193 77.159C132.358 77.159 130.949 77.9772 130.494 79.5681L132.415 79.8408C132.619 79.2442 133.199 78.7329 134.205 78.7329C135.159 78.7329 135.682 79.2215 135.682 80.0794V80.1135C135.682 80.7044 135.062 80.7329 133.523 80.8976C131.83 81.0794 130.21 81.5851 130.21 83.551C130.21 85.2669 131.466 86.176 133.131 86.176ZM133.665 84.6647C132.807 84.6647 132.193 84.2726 132.193 83.5169C132.193 82.7272 132.881 82.3976 133.801 82.2669C134.341 82.1931 135.42 82.0567 135.688 81.8408V82.8692C135.688 83.8408 134.903 84.6647 133.665 84.6647ZM144.165 77.2726H142.443V75.1817H140.386V77.2726H139.148V78.8635H140.386V83.7158C140.375 85.3579 141.568 86.1647 143.114 86.1192C143.699 86.1022 144.102 85.9885 144.324 85.9147L143.977 84.3067C143.864 84.3351 143.631 84.3863 143.375 84.3863C142.858 84.3863 142.443 84.2044 142.443 83.3749V78.8635H144.165V77.2726ZM149.655 86.1704C151.689 86.1704 153.087 85.176 153.45 83.659L151.53 83.4431C151.251 84.1817 150.57 84.5681 149.683 84.5681C148.354 84.5681 147.473 83.6931 147.456 82.1988H153.536V81.5681C153.536 78.5056 151.695 77.159 149.547 77.159C147.047 77.159 145.416 78.9942 145.416 81.6874C145.416 84.426 147.024 86.1704 149.655 86.1704ZM147.462 80.8124C147.524 79.6988 148.348 78.7613 149.575 78.7613C150.757 78.7613 151.553 79.6249 151.564 80.8124H147.462ZM162.173 79.5794C161.889 78.1022 160.707 77.159 158.662 77.159C156.56 77.159 155.128 78.1931 155.134 79.8067C155.128 81.0794 155.912 81.9204 157.588 82.2669L159.077 82.5794C159.878 82.7556 160.253 83.0794 160.253 83.5738C160.253 84.1704 159.605 84.6192 158.628 84.6192C157.685 84.6192 157.071 84.2101 156.895 83.426L154.889 83.6192C155.145 85.2215 156.491 86.1704 158.634 86.1704C160.815 86.1704 162.355 85.0397 162.361 83.3863C162.355 82.1419 161.554 81.3806 159.906 81.0226L158.418 80.7044C157.531 80.5056 157.179 80.1988 157.185 79.6931C157.179 79.1022 157.832 78.6931 158.69 78.6931C159.639 78.6931 160.139 79.2101 160.298 79.784L162.173 79.5794ZM168.415 77.2726H166.693V75.1817H164.636V77.2726H163.398V78.8635H164.636V83.7158C164.625 85.3579 165.818 86.1647 167.364 86.1192C167.949 86.1022 168.352 85.9885 168.574 85.9147L168.227 84.3067C168.114 84.3351 167.881 84.3863 167.625 84.3863C167.108 84.3863 166.693 84.2044 166.693 83.3749V78.8635H168.415V77.2726ZM177.911 86.1704C180.104 86.1704 181.501 84.8692 181.649 83.0169H179.683C179.507 83.9544 178.831 84.4942 177.928 84.4942C176.643 84.4942 175.814 83.4204 175.814 81.6363C175.814 79.8749 176.661 78.8181 177.928 78.8181C178.916 78.8181 179.524 79.4544 179.683 80.2954H181.649C181.507 78.4033 180.03 77.159 177.899 77.159C175.342 77.159 173.729 79.0056 173.729 81.6704C173.729 84.3124 175.303 86.1704 177.911 86.1704ZM183.338 85.9999H185.395V80.8692C185.395 79.7613 186.23 78.9772 187.361 78.9772C187.707 78.9772 188.139 79.0397 188.315 79.0965V77.2044C188.128 77.1704 187.804 77.1476 187.577 77.1476C186.577 77.1476 185.741 77.7158 185.423 78.7272H185.332V77.2726H183.338V85.9999ZM191.226 89.2726C192.828 89.2726 193.754 88.4488 194.249 87.0567L197.754 77.284L195.555 77.2726L193.538 83.8635H193.447L191.436 77.2726H189.254L192.419 86.1817L192.243 86.6533C191.862 87.6476 191.26 87.7158 190.362 87.4544L189.885 89.0567C190.163 89.1704 190.663 89.2726 191.226 89.2726ZM199.182 89.2726H201.239V84.6249H201.324C201.648 85.2613 202.324 86.1533 203.824 86.1533C205.881 86.1533 207.42 84.5226 207.42 81.6476C207.42 78.7385 205.835 77.159 203.818 77.159C202.278 77.159 201.636 78.0851 201.324 78.7158H201.205V77.2726H199.182V89.2726ZM201.199 81.6363C201.199 79.9431 201.926 78.8465 203.25 78.8465C204.619 78.8465 205.324 80.0113 205.324 81.6363C205.324 83.2726 204.608 84.4658 203.25 84.4658C201.938 84.4658 201.199 83.3294 201.199 81.6363ZM213.54 77.2726H211.818V75.1817H209.761V77.2726H208.523V78.8635H209.761V83.7158C209.75 85.3579 210.943 86.1647 212.489 86.1192C213.074 86.1022 213.477 85.9885 213.699 85.9147L213.352 84.3067C213.239 84.3351 213.006 84.3863 212.75 84.3863C212.233 84.3863 211.818 84.2044 211.818 83.3749V78.8635H213.54V77.2726ZM218.973 86.1704C221.53 86.1704 223.155 84.3692 223.155 81.6704C223.155 78.9658 221.53 77.159 218.973 77.159C216.416 77.159 214.791 78.9658 214.791 81.6704C214.791 84.3692 216.416 86.1704 218.973 86.1704ZM218.984 84.5226C217.57 84.5226 216.876 83.2613 216.876 81.6647C216.876 80.0681 217.57 78.7897 218.984 78.7897C220.376 78.7897 221.07 80.0681 221.07 81.6647C221.07 83.2613 220.376 84.5226 218.984 84.5226ZM230.926 80.8863C230.926 79.6249 231.688 78.8976 232.773 78.8976C233.835 78.8976 234.472 79.5965 234.472 80.7613V85.9999H236.528V80.4431C236.534 78.3522 235.341 77.159 233.54 77.159C232.233 77.159 231.335 77.784 230.938 78.7556H230.835V77.2726H228.869V85.9999H230.926V80.8863ZM242.483 86.1704C244.517 86.1704 245.915 85.176 246.278 83.659L244.358 83.4431C244.08 84.1817 243.398 84.5681 242.511 84.5681C241.182 84.5681 240.301 83.6931 240.284 82.1988H246.364V81.5681C246.364 78.5056 244.523 77.159 242.375 77.159C239.875 77.159 238.244 78.9942 238.244 81.6874C238.244 84.426 239.852 86.1704 242.483 86.1704ZM240.29 80.8124C240.352 79.6988 241.176 78.7613 242.403 78.7613C243.585 78.7613 244.381 79.6249 244.392 80.8124H240.29ZM249.858 85.9999H252.006L253.642 80.1022H253.761L255.398 85.9999H257.54L260.011 77.2726H257.909L256.398 83.3749H256.312L254.744 77.2726H252.67L251.102 83.409H251.023L249.489 77.2726H247.392L249.858 85.9999ZM268.345 79.5794C268.061 78.1022 266.879 77.159 264.834 77.159C262.732 77.159 261.3 78.1931 261.305 79.8067C261.3 81.0794 262.084 81.9204 263.76 82.2669L265.249 82.5794C266.05 82.7556 266.425 83.0794 266.425 83.5738C266.425 84.1704 265.777 84.6192 264.8 84.6192C263.857 84.6192 263.243 84.2101 263.067 83.426L261.061 83.6192C261.317 85.2215 262.663 86.1704 264.805 86.1704C266.987 86.1704 268.527 85.0397 268.533 83.3863C268.527 82.1419 267.726 81.3806 266.078 81.0226L264.589 80.7044C263.703 80.5056 263.351 80.1988 263.357 79.6931C263.351 79.1022 264.004 78.6931 264.862 78.6931C265.811 78.6931 266.311 79.2101 266.47 79.784L268.345 79.5794ZM271.496 86.1249C272.166 86.1249 272.74 85.5681 272.746 84.8749C272.74 84.1931 272.166 83.6363 271.496 83.6363C270.803 83.6363 270.24 84.1931 270.246 84.8749C270.24 85.5681 270.803 86.1249 271.496 86.1249Z" fill="#A3A2AD"/>
<path opacity="0.3" d="M140 130C140 128.895 139.105 128 138 128C136.895 128 136 128.895 136 130C136 131.105 136.895 132 138 132C139.105 132 140 131.105 140 130Z" fill="#707070"/>
<path d="M153 130C153 127.791 151.209 126 149 126C146.791 126 145 127.791 145 130C145 132.209 146.791 134 149 134C151.209 134 153 132.209 153 130Z" fill="#916FFF"/>
<path opacity="0.3" d="M131 130C131 128.895 130.105 128 129 128C127.895 128 127 128.895 127 130C127 131.105 127.895 132 129 132C130.105 132 131 131.105 131 130Z" fill="#707070"/>
</svg>
