<svg width="279" height="134" viewBox="0 0 279 134" fill="none" xmlns="http://www.w3.org/2000/svg">
<path d="M42.0459 22.0001H45.3858V17.7089H47.6528C50.8172 17.7089 52.7941 15.8332 52.7941 12.9657C52.7941 10.1251 50.8577 8.18188 47.754 8.18188H42.0459V22.0001ZM45.3858 15.0775V10.874H47.0321C48.5299 10.874 49.3328 11.6837 49.3328 12.9657C49.3328 14.2409 48.5299 15.0775 47.0321 15.0775H45.3858ZM55.0104 22.0001H58.3098V16.373C58.3098 15.1382 59.1869 14.3083 60.3677 14.3083C60.759 14.3083 61.346 14.3758 61.6631 14.4838V11.6162C61.3865 11.542 61.0424 11.4948 60.7388 11.4948C59.6053 11.4948 58.7011 12.156 58.3233 13.5257H58.2153V11.6365H55.0104V22.0001ZM67.8771 22.1958C71.136 22.1958 73.1129 20.0434 73.1129 16.852C73.1129 13.6539 71.136 11.5015 67.8771 11.5015C64.6183 11.5015 62.6413 13.6539 62.6413 16.852C62.6413 20.0434 64.6183 22.1958 67.8771 22.1958ZM67.8974 19.7061C66.6761 19.7061 66.0014 18.5456 66.0014 16.8318C66.0014 15.1113 66.6761 13.944 67.8974 13.944C69.0781 13.944 69.7528 15.1113 69.7528 16.8318C69.7528 18.5456 69.0781 19.7061 67.8974 19.7061ZM81.2229 11.6365H79.3539V9.15347H76.0546V11.6365H74.6849V14.0654H76.0546V19.1056C76.0343 21.2039 77.3972 22.2565 79.725 22.1485C80.5212 22.1081 81.0947 21.9461 81.4118 21.8517L80.9125 19.4699C80.7708 19.5037 80.4402 19.5711 80.1906 19.5711C79.6575 19.5711 79.3539 19.3552 79.3539 18.7412V14.0654H81.2229V11.6365ZM88.2094 22.1958C90.9285 22.1958 92.7165 20.8801 93.0944 18.8424L90.0649 18.7547C89.8085 19.4429 89.1338 19.814 88.2702 19.814C87.0017 19.814 86.219 18.9706 86.219 17.7022V17.6144H93.1281V16.7913C93.1281 13.3772 91.05 11.5015 88.1082 11.5015C84.9775 11.5015 82.9669 13.6471 82.9669 16.8588C82.9669 20.1784 84.9506 22.1958 88.2094 22.1958ZM86.219 15.6983C86.2662 14.6659 87.0827 13.8833 88.1757 13.8833C89.262 13.8833 90.0447 14.6389 90.0582 15.6983H86.219ZM100.221 22.1958C103.136 22.1958 104.944 20.5022 105.032 17.9383H101.948C101.827 19.0381 101.165 19.6386 100.261 19.6386C99.1009 19.6386 98.3452 18.6603 98.3452 16.8183C98.3452 14.9898 99.1076 14.0115 100.261 14.0115C101.206 14.0115 101.82 14.6524 101.948 15.7117H105.032C104.957 13.1613 103.095 11.5015 100.214 11.5015C96.9553 11.5015 94.9851 13.6741 94.9851 16.852C94.9851 20.0164 96.9418 22.1958 100.221 22.1958ZM113.14 11.6365H111.271V9.15347H107.971V11.6365H106.602V14.0654H107.971V19.1056C107.951 21.2039 109.314 22.2565 111.642 22.1485C112.438 22.1081 113.012 21.9461 113.329 21.8517L112.829 19.4699C112.688 19.5037 112.357 19.5711 112.107 19.5711C111.574 19.5711 111.271 19.3552 111.271 18.7412V14.0654H113.14V11.6365ZM119.357 8.18188L124.411 17.385V22.0001H127.73V17.385L132.784 8.18188H129.053L126.131 13.9642H126.01L123.088 8.18188H119.357ZM137.198 22.1958C140.457 22.1958 142.434 20.0434 142.434 16.852C142.434 13.6539 140.457 11.5015 137.198 11.5015C133.939 11.5015 131.962 13.6539 131.962 16.852C131.962 20.0434 133.939 22.1958 137.198 22.1958ZM137.218 19.7061C135.997 19.7061 135.322 18.5456 135.322 16.8318C135.322 15.1113 135.997 13.944 137.218 13.944C138.399 13.944 139.074 15.1113 139.074 16.8318C139.074 18.5456 138.399 19.7061 137.218 19.7061ZM151.38 17.5267C151.38 18.7345 150.611 19.4092 149.633 19.4092C148.621 19.4092 148 18.721 147.993 17.5942V11.6365H144.694V18.2419C144.701 20.5832 146.124 22.135 148.257 22.135C149.808 22.135 150.962 21.3389 151.421 20.0704H151.529V22.0001H154.673V11.6365H151.38V17.5267ZM157.343 22.0001H160.643V16.373C160.643 15.1382 161.52 14.3083 162.7 14.3083C163.092 14.3083 163.679 14.3758 163.996 14.4838V11.6162C163.719 11.542 163.375 11.4948 163.071 11.4948C161.938 11.4948 161.034 12.156 160.656 13.5257H160.548V11.6365H157.343V22.0001ZM173.551 22.0001L174.462 19.0988H179.232L180.143 22.0001H183.733L179.07 8.18188H174.624L169.962 22.0001H173.551ZM175.258 16.5619L176.79 11.6635H176.898L178.436 16.5619H175.258ZM194.523 14.8009C194.348 12.7497 192.667 11.5015 189.861 11.5015C187.054 11.5015 185.266 12.7228 185.279 14.8009C185.266 16.3932 186.285 17.4188 188.356 17.8034L190.164 18.1475C191.021 18.3162 191.413 18.586 191.426 19.0448C191.413 19.5644 190.832 19.9085 189.989 19.9085C189.051 19.9085 188.417 19.5037 188.275 18.748L185.016 18.8289C185.252 20.8801 187.013 22.1958 189.975 22.1958C192.748 22.1958 194.766 20.8126 194.779 18.6805C194.766 17.1691 193.767 16.2718 191.703 15.8737L189.705 15.4958C188.828 15.3204 188.545 15.01 188.552 14.612C188.545 14.0857 189.159 13.7618 189.921 13.7618C190.792 13.7618 191.399 14.2274 191.493 14.8818L194.523 14.8009ZM206.022 14.8009C205.846 12.7497 204.166 11.5015 201.359 11.5015C198.553 11.5015 196.765 12.7228 196.778 14.8009C196.765 16.3932 197.783 17.4188 199.855 17.8034L201.663 18.1475C202.52 18.3162 202.911 18.586 202.925 19.0448C202.911 19.5644 202.331 19.9085 201.488 19.9085C200.55 19.9085 199.916 19.5037 199.774 18.748L196.515 18.8289C196.751 20.8801 198.512 22.1958 201.474 22.1958C204.247 22.1958 206.265 20.8126 206.278 18.6805C206.265 17.1691 205.266 16.2718 203.201 15.8737L201.204 15.4958C200.327 15.3204 200.044 15.01 200.05 14.612C200.044 14.0857 200.658 13.7618 201.42 13.7618C202.291 13.7618 202.898 14.2274 202.992 14.8818L206.022 14.8009ZM213.317 22.1958C216.036 22.1958 217.824 20.8801 218.202 18.8424L215.172 18.7547C214.916 19.4429 214.241 19.814 213.378 19.814C212.109 19.814 211.326 18.9706 211.326 17.7022V17.6144H218.236V16.7913C218.236 13.3772 216.157 11.5015 213.216 11.5015C210.085 11.5015 208.074 13.6471 208.074 16.8588C208.074 20.1784 210.058 22.1958 213.317 22.1958ZM211.326 15.6983C211.374 14.6659 212.19 13.8833 213.283 13.8833C214.369 13.8833 215.152 14.6389 215.166 15.6983H211.326ZM226.34 11.6365H224.472V9.15347H221.172V11.6365H219.802V14.0654H221.172V19.1056C221.152 21.2039 222.515 22.2565 224.843 22.1485C225.639 22.1081 226.212 21.9461 226.529 21.8517L226.03 19.4699C225.888 19.5037 225.558 19.5711 225.308 19.5711C224.775 19.5711 224.472 19.3552 224.472 18.7412V14.0654H226.34V11.6365ZM237.512 14.8009C237.337 12.7497 235.656 11.5015 232.85 11.5015C230.043 11.5015 228.255 12.7228 228.268 14.8009C228.255 16.3932 229.274 17.4188 231.345 17.8034L233.153 18.1475C234.01 18.3162 234.402 18.586 234.415 19.0448C234.402 19.5644 233.821 19.9085 232.978 19.9085C232.04 19.9085 231.406 19.5037 231.264 18.748L228.005 18.8289C228.241 20.8801 230.002 22.1958 232.964 22.1958C235.737 22.1958 237.755 20.8126 237.768 18.6805C237.755 17.1691 236.756 16.2718 234.692 15.8737L232.694 15.4958C231.817 15.3204 231.534 15.01 231.541 14.612C231.534 14.0857 232.148 13.7618 232.91 13.7618C233.781 13.7618 234.388 14.2274 234.482 14.8818L237.512 14.8009Z" fill="#3700B3"/>
<path d="M48.9366 57.9999V46.3635H53.3002C54.1942 46.3635 54.9442 46.5302 55.5502 46.8635C56.1601 47.1969 56.6203 47.6552 56.9309 48.2385C57.2453 48.8181 57.4025 49.4772 57.4025 50.2158C57.4025 50.962 57.2453 51.6249 56.9309 52.2044C56.6165 52.784 56.1525 53.2404 55.5389 53.5738C54.9252 53.9033 54.1695 54.0681 53.2718 54.0681H50.3798V52.3351H52.9877C53.5105 52.3351 53.9385 52.2442 54.2718 52.0624C54.6052 51.8806 54.8514 51.6306 55.0105 51.3124C55.1733 50.9942 55.2548 50.6287 55.2548 50.2158C55.2548 49.8029 55.1733 49.4393 55.0105 49.1249C54.8514 48.8105 54.6033 48.5662 54.2661 48.3919C53.9328 48.2139 53.5029 48.1249 52.9764 48.1249H51.0445V57.9999H48.9366ZM59.1426 57.9999V49.2726H61.1369V50.7272H61.2278C61.3869 50.2234 61.6596 49.8351 62.046 49.5624C62.4361 49.2859 62.8812 49.1476 63.3812 49.1476C63.4948 49.1476 63.6217 49.1533 63.7619 49.1647C63.9058 49.1722 64.0251 49.1855 64.1198 49.2044V51.0965C64.0327 51.0662 63.8944 51.0397 63.7051 51.0169C63.5194 50.9904 63.3395 50.9772 63.1653 50.9772C62.7903 50.9772 62.4532 51.0586 62.1539 51.2215C61.8585 51.3806 61.6255 51.6022 61.4551 51.8863C61.2846 52.1704 61.1994 52.498 61.1994 52.8692V57.9999H59.1426ZM68.9337 58.1704C68.0815 58.1704 67.3428 57.9829 66.7178 57.6079C66.0928 57.2329 65.608 56.7082 65.2633 56.034C64.9224 55.3597 64.7519 54.5719 64.7519 53.6704C64.7519 52.7688 64.9224 51.9791 65.2633 51.301C65.608 50.623 66.0928 50.0965 66.7178 49.7215C67.3428 49.3465 68.0815 49.159 68.9337 49.159C69.786 49.159 70.5247 49.3465 71.1497 49.7215C71.7747 50.0965 72.2576 50.623 72.5985 51.301C72.9432 51.9791 73.1156 52.7688 73.1156 53.6704C73.1156 54.5719 72.9432 55.3597 72.5985 56.034C72.2576 56.7082 71.7747 57.2329 71.1497 57.6079C70.5247 57.9829 69.786 58.1704 68.9337 58.1704ZM68.9451 56.5226C69.4072 56.5226 69.7936 56.3957 70.1042 56.1419C70.4148 55.8844 70.6459 55.5397 70.7974 55.1079C70.9527 54.676 71.0303 54.195 71.0303 53.6647C71.0303 53.1306 70.9527 52.6476 70.7974 52.2158C70.6459 51.7802 70.4148 51.4336 70.1042 51.176C69.7936 50.9185 69.4072 50.7897 68.9451 50.7897C68.4716 50.7897 68.0777 50.9185 67.7633 51.176C67.4527 51.4336 67.2197 51.7802 67.0644 52.2158C66.9129 52.6476 66.8372 53.1306 66.8372 53.6647C66.8372 54.195 66.9129 54.676 67.0644 55.1079C67.2197 55.5397 67.4527 55.8844 67.7633 56.1419C68.0777 56.3957 68.4716 56.5226 68.9451 56.5226ZM79.2193 49.2726V50.8635H74.2022V49.2726H79.2193ZM75.4409 47.1817H77.4977V55.3749C77.4977 55.6514 77.5393 55.8635 77.6227 56.0113C77.7098 56.1552 77.8234 56.2537 77.9636 56.3067C78.1037 56.3597 78.259 56.3863 78.4295 56.3863C78.5583 56.3863 78.6757 56.3768 78.7818 56.3579C78.8916 56.3389 78.9749 56.3219 79.0318 56.3067L79.3784 57.9147C79.2685 57.9526 79.1113 57.9942 78.9068 58.0397C78.706 58.0851 78.4598 58.1116 78.1681 58.1192C77.653 58.1344 77.189 58.0567 76.7761 57.8863C76.3632 57.712 76.0355 57.4431 75.7931 57.0794C75.5545 56.7158 75.4371 56.2613 75.4409 55.7158V47.1817ZM84.7093 58.1704C83.8343 58.1704 83.0786 57.9885 82.4423 57.6249C81.8097 57.2575 81.323 56.7385 80.982 56.0681C80.6411 55.3938 80.4707 54.6003 80.4707 53.6874C80.4707 52.7897 80.6411 52.0018 80.982 51.3238C81.3267 50.6419 81.8078 50.1116 82.4252 49.7329C83.0427 49.3503 83.768 49.159 84.6014 49.159C85.1392 49.159 85.6468 49.2461 86.1241 49.4204C86.6052 49.5908 87.0294 49.856 87.3968 50.2158C87.768 50.5757 88.0597 51.034 88.2718 51.5908C88.4839 52.1438 88.59 52.8029 88.59 53.5681V54.1988H81.4366V52.8124H86.6184C86.6146 52.4185 86.5294 52.0681 86.3627 51.7613C86.1961 51.4507 85.9631 51.2063 85.6639 51.0283C85.3684 50.8503 85.0237 50.7613 84.6298 50.7613C84.2093 50.7613 83.84 50.8635 83.5218 51.0681C83.2036 51.2688 82.9555 51.534 82.7775 51.8635C82.6033 52.1893 82.5142 52.5472 82.5105 52.9374V54.1476C82.5105 54.6552 82.6033 55.0908 82.7889 55.4544C82.9745 55.8143 83.2339 56.0908 83.5673 56.284C83.9006 56.4734 84.2908 56.5681 84.7377 56.5681C85.037 56.5681 85.3078 56.5264 85.5502 56.4431C85.7927 56.356 86.0029 56.2291 86.1809 56.0624C86.3589 55.8957 86.4934 55.6893 86.5843 55.4431L88.5048 55.659C88.3836 56.1666 88.1525 56.6097 87.8116 56.9885C87.4745 57.3635 87.0427 57.6552 86.5161 57.8635C85.9896 58.0681 85.3873 58.1704 84.7093 58.1704ZM94.1369 58.1704C93.2657 58.1704 92.5176 57.9791 91.8926 57.5965C91.2713 57.2139 90.7922 56.6855 90.4551 56.0113C90.1217 55.3332 89.9551 54.5529 89.9551 53.6704C89.9551 52.784 90.1255 52.0018 90.4664 51.3238C90.8073 50.6419 91.2884 50.1116 91.9096 49.7329C92.5346 49.3503 93.2732 49.159 94.1255 49.159C94.8338 49.159 95.4607 49.2897 96.0062 49.551C96.5554 49.8086 96.9929 50.1741 97.3187 50.6476C97.6444 51.1173 97.8301 51.6666 97.8755 52.2954H95.9096C95.8301 51.8749 95.6407 51.5245 95.3414 51.2442C95.046 50.9601 94.6501 50.8181 94.1539 50.8181C93.7335 50.8181 93.3641 50.9317 93.046 51.159C92.7278 51.3825 92.4797 51.7044 92.3016 52.1249C92.1274 52.5454 92.0403 53.0491 92.0403 53.6363C92.0403 54.231 92.1274 54.7423 92.3016 55.1704C92.4759 55.5946 92.7202 55.9222 93.0346 56.1533C93.3528 56.3806 93.7259 56.4942 94.1539 56.4942C94.4569 56.4942 94.7278 56.4374 94.9664 56.3238C95.2088 56.2063 95.4115 56.0378 95.5744 55.8181C95.7373 55.5984 95.849 55.3313 95.9096 55.0169H97.8755C97.8263 55.6344 97.6444 56.1817 97.3301 56.659C97.0157 57.1325 96.5876 57.5037 96.046 57.7726C95.5043 58.0378 94.8679 58.1704 94.1369 58.1704ZM103.923 49.2726V50.8635H98.9053V49.2726H103.923ZM100.144 47.1817H102.201V55.3749C102.201 55.6514 102.243 55.8635 102.326 56.0113C102.413 56.1552 102.527 56.2537 102.667 56.3067C102.807 56.3597 102.962 56.3863 103.133 56.3863C103.262 56.3863 103.379 56.3768 103.485 56.3579C103.595 56.3389 103.678 56.3219 103.735 56.3067L104.082 57.9147C103.972 57.9526 103.815 57.9942 103.61 58.0397C103.409 58.0851 103.163 58.1116 102.871 58.1192C102.356 58.1344 101.892 58.0567 101.479 57.8863C101.067 57.712 100.739 57.4431 100.496 57.0794C100.258 56.7158 100.14 56.2613 100.144 55.7158V47.1817ZM110.89 61.2726C110.61 61.2726 110.35 61.2499 110.112 61.2044C109.877 61.1628 109.689 61.1135 109.549 61.0567L110.026 59.4544C110.326 59.5416 110.593 59.5832 110.827 59.5794C111.062 59.5757 111.269 59.5018 111.447 59.3579C111.629 59.2177 111.782 58.9829 111.907 58.6533L112.083 58.1817L108.918 49.2726H111.1L113.112 55.8635H113.202L115.219 49.2726H117.407L113.913 59.0567C113.75 59.5188 113.534 59.9147 113.265 60.2442C112.996 60.5776 112.666 60.8313 112.276 61.0056C111.89 61.1836 111.428 61.2726 110.89 61.2726ZM122.34 58.1704C121.488 58.1704 120.749 57.9829 120.124 57.6079C119.499 57.2329 119.014 56.7082 118.67 56.034C118.329 55.3597 118.158 54.5719 118.158 53.6704C118.158 52.7688 118.329 51.9791 118.67 51.301C119.014 50.623 119.499 50.0965 120.124 49.7215C120.749 49.3465 121.488 49.159 122.34 49.159C123.192 49.159 123.931 49.3465 124.556 49.7215C125.181 50.0965 125.664 50.623 126.005 51.301C126.35 51.9791 126.522 52.7688 126.522 53.6704C126.522 54.5719 126.35 55.3597 126.005 56.034C125.664 56.7082 125.181 57.2329 124.556 57.6079C123.931 57.9829 123.192 58.1704 122.34 58.1704ZM122.352 56.5226C122.814 56.5226 123.2 56.3957 123.511 56.1419C123.821 55.8844 124.052 55.5397 124.204 55.1079C124.359 54.676 124.437 54.195 124.437 53.6647C124.437 53.1306 124.359 52.6476 124.204 52.2158C124.052 51.7802 123.821 51.4336 123.511 51.176C123.2 50.9185 122.814 50.7897 122.352 50.7897C121.878 50.7897 121.484 50.9185 121.17 51.176C120.859 51.4336 120.626 51.7802 120.471 52.2158C120.319 52.6476 120.244 53.1306 120.244 53.6647C120.244 54.195 120.319 54.676 120.471 55.1079C120.626 55.5397 120.859 55.8844 121.17 56.1419C121.484 56.3957 121.878 56.5226 122.352 56.5226ZM133.83 54.3294V49.2726H135.887V57.9999H133.893V56.4488H133.802C133.605 56.9374 133.281 57.337 132.83 57.6476C132.383 57.9582 131.832 58.1135 131.177 58.1135C130.605 58.1135 130.099 57.9866 129.66 57.7329C129.224 57.4753 128.883 57.1022 128.637 56.6135C128.391 56.1211 128.268 55.5264 128.268 54.8294V49.2726H130.325V54.5113C130.325 55.0643 130.476 55.5037 130.779 55.8294C131.082 56.1552 131.48 56.3181 131.972 56.3181C132.275 56.3181 132.569 56.2442 132.853 56.0965C133.137 55.9488 133.37 55.7291 133.552 55.4374C133.737 55.1419 133.83 54.7726 133.83 54.3294ZM138.002 57.9999V49.2726H139.996V50.7272H140.087C140.246 50.2234 140.519 49.8351 140.906 49.5624C141.296 49.2859 141.741 49.1476 142.241 49.1476C142.354 49.1476 142.481 49.1533 142.621 49.1647C142.765 49.1722 142.885 49.1855 142.979 49.2044V51.0965C142.892 51.0662 142.754 51.0397 142.565 51.0169C142.379 50.9904 142.199 50.9772 142.025 50.9772C141.65 50.9772 141.313 51.0586 141.013 51.2215C140.718 51.3806 140.485 51.6022 140.315 51.8863C140.144 52.1704 140.059 52.498 140.059 52.8692V57.9999H138.002ZM150.826 58.176C150.273 58.176 149.775 58.0776 149.332 57.8806C148.892 57.6798 148.544 57.3844 148.286 56.9942C148.032 56.6041 147.906 56.123 147.906 55.551C147.906 55.0586 147.996 54.6514 148.178 54.3294C148.36 54.0075 148.608 53.7499 148.923 53.5567C149.237 53.3635 149.591 53.2177 149.985 53.1192C150.383 53.0169 150.794 52.9431 151.218 52.8976C151.729 52.8446 152.144 52.7972 152.462 52.7556C152.781 52.7101 153.012 52.6419 153.156 52.551C153.303 52.4563 153.377 52.3105 153.377 52.1135V52.0794C153.377 51.6514 153.25 51.32 152.996 51.0851C152.743 50.8503 152.377 50.7329 151.9 50.7329C151.396 50.7329 150.996 50.8427 150.701 51.0624C150.409 51.2821 150.212 51.5416 150.11 51.8408L148.19 51.5681C148.341 51.0378 148.591 50.5946 148.94 50.2385C149.288 49.8787 149.714 49.6097 150.218 49.4317C150.722 49.2499 151.279 49.159 151.888 49.159C152.309 49.159 152.728 49.2082 153.144 49.3067C153.561 49.4052 153.942 49.5681 154.286 49.7954C154.631 50.0188 154.907 50.3238 155.116 50.7101C155.328 51.0965 155.434 51.5794 155.434 52.159V57.9999H153.457V56.801H153.388C153.263 57.0435 153.087 57.2707 152.86 57.4829C152.637 57.6912 152.354 57.8597 152.013 57.9885C151.676 58.1135 151.281 58.176 150.826 58.176ZM151.36 56.6647C151.773 56.6647 152.131 56.5832 152.434 56.4204C152.737 56.2537 152.97 56.034 153.133 55.7613C153.299 55.4885 153.383 55.1912 153.383 54.8692V53.8408C153.318 53.8938 153.209 53.9431 153.053 53.9885C152.902 54.034 152.731 54.0738 152.542 54.1079C152.353 54.1419 152.165 54.1722 151.979 54.1988C151.794 54.2253 151.633 54.248 151.496 54.2669C151.19 54.3086 150.915 54.3768 150.673 54.4715C150.43 54.5662 150.239 54.6988 150.099 54.8692C149.959 55.0359 149.888 55.2518 149.888 55.5169C149.888 55.8957 150.027 56.1817 150.303 56.3749C150.58 56.5681 150.932 56.6647 151.36 56.6647ZM164.4 51.5794L162.525 51.784C162.472 51.5946 162.379 51.4166 162.246 51.2499C162.118 51.0832 161.943 50.9488 161.724 50.8465C161.504 50.7442 161.235 50.6931 160.917 50.6931C160.489 50.6931 160.129 50.7859 159.837 50.9715C159.549 51.1571 159.407 51.3976 159.411 51.6931C159.407 51.9469 159.5 52.1533 159.69 52.3124C159.883 52.4715 160.201 52.6022 160.644 52.7044L162.133 53.0226C162.959 53.2007 163.572 53.4829 163.974 53.8692C164.379 54.2556 164.584 54.7613 164.587 55.3863C164.584 55.9355 164.423 56.4204 164.104 56.8408C163.79 57.2575 163.353 57.5832 162.792 57.8181C162.231 58.0529 161.587 58.1704 160.86 58.1704C159.792 58.1704 158.932 57.9469 158.281 57.4999C157.629 57.0491 157.241 56.4222 157.116 55.6192L159.121 55.426C159.212 55.82 159.406 56.1173 159.701 56.3181C159.996 56.5188 160.381 56.6192 160.854 56.6192C161.343 56.6192 161.735 56.5188 162.031 56.3181C162.33 56.1173 162.479 55.8692 162.479 55.5738C162.479 55.3238 162.383 55.1173 162.19 54.9544C162 54.7916 161.705 54.6666 161.303 54.5794L159.815 54.2669C158.978 54.0927 158.358 53.7991 157.957 53.3863C157.555 52.9696 157.356 52.4431 157.36 51.8067C157.356 51.2688 157.502 50.8029 157.798 50.409C158.097 50.0113 158.512 49.7044 159.042 49.4885C159.576 49.2688 160.192 49.159 160.888 49.159C161.911 49.159 162.716 49.3768 163.303 49.8124C163.894 50.248 164.26 50.837 164.4 51.5794ZM173.181 51.5794L171.306 51.784C171.253 51.5946 171.16 51.4166 171.028 51.2499C170.899 51.0832 170.725 50.9488 170.505 50.8465C170.285 50.7442 170.016 50.6931 169.698 50.6931C169.27 50.6931 168.91 50.7859 168.619 50.9715C168.331 51.1571 168.189 51.3976 168.192 51.6931C168.189 51.9469 168.281 52.1533 168.471 52.3124C168.664 52.4715 168.982 52.6022 169.425 52.7044L170.914 53.0226C171.74 53.2007 172.353 53.4829 172.755 53.8692C173.16 54.2556 173.365 54.7613 173.369 55.3863C173.365 55.9355 173.204 56.4204 172.886 56.8408C172.571 57.2575 172.134 57.5832 171.573 57.8181C171.013 58.0529 170.369 58.1704 169.641 58.1704C168.573 58.1704 167.713 57.9469 167.062 57.4999C166.41 57.0491 166.022 56.4222 165.897 55.6192L167.903 55.426C167.994 55.82 168.187 56.1173 168.482 56.3181C168.778 56.5188 169.162 56.6192 169.636 56.6192C170.124 56.6192 170.516 56.5188 170.812 56.3181C171.111 56.1173 171.261 55.8692 171.261 55.5738C171.261 55.3238 171.164 55.1173 170.971 54.9544C170.781 54.7916 170.486 54.6666 170.085 54.5794L168.596 54.2669C167.759 54.0927 167.139 53.7991 166.738 53.3863C166.336 52.9696 166.138 52.4431 166.141 51.8067C166.138 51.2688 166.283 50.8029 166.579 50.409C166.878 50.0113 167.293 49.7044 167.823 49.4885C168.357 49.2688 168.973 49.159 169.67 49.159C170.692 49.159 171.497 49.3768 172.085 49.8124C172.675 50.248 173.041 50.837 173.181 51.5794ZM178.928 58.1704C178.053 58.1704 177.298 57.9885 176.661 57.6249C176.029 57.2575 175.542 56.7385 175.201 56.0681C174.86 55.3938 174.69 54.6003 174.69 53.6874C174.69 52.7897 174.86 52.0018 175.201 51.3238C175.546 50.6419 176.027 50.1116 176.644 49.7329C177.262 49.3503 177.987 49.159 178.82 49.159C179.358 49.159 179.866 49.2461 180.343 49.4204C180.824 49.5908 181.248 49.856 181.616 50.2158C181.987 50.5757 182.279 51.034 182.491 51.5908C182.703 52.1438 182.809 52.8029 182.809 53.5681V54.1988H175.656V52.8124H180.837C180.834 52.4185 180.748 52.0681 180.582 51.7613C180.415 51.4507 180.182 51.2063 179.883 51.0283C179.587 50.8503 179.243 50.7613 178.849 50.7613C178.428 50.7613 178.059 50.8635 177.741 51.0681C177.423 51.2688 177.174 51.534 176.996 51.8635C176.822 52.1893 176.733 52.5472 176.729 52.9374V54.1476C176.729 54.6552 176.822 55.0908 177.008 55.4544C177.193 55.8143 177.453 56.0908 177.786 56.284C178.12 56.4734 178.51 56.5681 178.957 56.5681C179.256 56.5681 179.527 56.5264 179.769 56.4431C180.012 56.356 180.222 56.2291 180.4 56.0624C180.578 55.8957 180.712 55.6893 180.803 55.4431L182.724 55.659C182.603 56.1666 182.371 56.6097 182.031 56.9885C181.693 57.3635 181.262 57.6552 180.735 57.8635C180.209 58.0681 179.606 58.1704 178.928 58.1704ZM188.907 49.2726V50.8635H183.89V49.2726H188.907ZM185.129 47.1817H187.185V55.3749C187.185 55.6514 187.227 55.8635 187.31 56.0113C187.397 56.1552 187.511 56.2537 187.651 56.3067C187.791 56.3597 187.947 56.3863 188.117 56.3863C188.246 56.3863 188.363 56.3768 188.469 56.3579C188.579 56.3389 188.663 56.3219 188.719 56.3067L189.066 57.9147C188.956 57.9526 188.799 57.9942 188.594 58.0397C188.394 58.0851 188.147 58.1116 187.856 58.1192C187.341 58.1344 186.877 58.0567 186.464 57.8863C186.051 57.712 185.723 57.4431 185.481 57.0794C185.242 56.7158 185.125 56.2613 185.129 55.7158V47.1817ZM197.4 51.5794L195.525 51.784C195.472 51.5946 195.379 51.4166 195.246 51.2499C195.118 51.0832 194.943 50.9488 194.724 50.8465C194.504 50.7442 194.235 50.6931 193.917 50.6931C193.489 50.6931 193.129 50.7859 192.837 50.9715C192.549 51.1571 192.407 51.3976 192.411 51.6931C192.407 51.9469 192.5 52.1533 192.69 52.3124C192.883 52.4715 193.201 52.6022 193.644 52.7044L195.133 53.0226C195.959 53.2007 196.572 53.4829 196.974 53.8692C197.379 54.2556 197.584 54.7613 197.587 55.3863C197.584 55.9355 197.423 56.4204 197.104 56.8408C196.79 57.2575 196.353 57.5832 195.792 57.8181C195.231 58.0529 194.587 58.1704 193.86 58.1704C192.792 58.1704 191.932 57.9469 191.281 57.4999C190.629 57.0491 190.241 56.4222 190.116 55.6192L192.121 55.426C192.212 55.82 192.406 56.1173 192.701 56.3181C192.996 56.5188 193.381 56.6192 193.854 56.6192C194.343 56.6192 194.735 56.5188 195.031 56.3181C195.33 56.1173 195.479 55.8692 195.479 55.5738C195.479 55.3238 195.383 55.1173 195.19 54.9544C195 54.7916 194.705 54.6666 194.303 54.5794L192.815 54.2669C191.978 54.0927 191.358 53.7991 190.957 53.3863C190.555 52.9696 190.356 52.4431 190.36 51.8067C190.356 51.2688 190.502 50.8029 190.798 50.409C191.097 50.0113 191.512 49.7044 192.042 49.4885C192.576 49.2688 193.192 49.159 193.888 49.159C194.911 49.159 195.716 49.3768 196.303 49.8124C196.894 50.248 197.26 50.837 197.4 51.5794ZM205.763 58.176C205.21 58.176 204.712 58.0776 204.269 57.8806C203.83 57.6798 203.481 57.3844 203.224 56.9942C202.97 56.6041 202.843 56.123 202.843 55.551C202.843 55.0586 202.934 54.6514 203.116 54.3294C203.298 54.0075 203.546 53.7499 203.86 53.5567C204.174 53.3635 204.529 53.2177 204.923 53.1192C205.32 53.0169 205.731 52.9431 206.156 52.8976C206.667 52.8446 207.082 52.7972 207.4 52.7556C207.718 52.7101 207.949 52.6419 208.093 52.551C208.241 52.4563 208.315 52.3105 208.315 52.1135V52.0794C208.315 51.6514 208.188 51.32 207.934 51.0851C207.68 50.8503 207.315 50.7329 206.837 50.7329C206.334 50.7329 205.934 50.8427 205.638 51.0624C205.347 51.2821 205.15 51.5416 205.048 51.8408L203.127 51.5681C203.279 51.0378 203.529 50.5946 203.877 50.2385C204.226 49.8787 204.652 49.6097 205.156 49.4317C205.659 49.2499 206.216 49.159 206.826 49.159C207.246 49.159 207.665 49.2082 208.082 49.3067C208.498 49.4052 208.879 49.5681 209.224 49.7954C209.568 50.0188 209.845 50.3238 210.053 50.7101C210.265 51.0965 210.371 51.5794 210.371 52.159V57.9999H208.394V56.801H208.326C208.201 57.0435 208.025 57.2707 207.798 57.4829C207.574 57.6912 207.292 57.8597 206.951 57.9885C206.614 58.1135 206.218 58.176 205.763 58.176ZM206.298 56.6647C206.71 56.6647 207.068 56.5832 207.371 56.4204C207.674 56.2537 207.907 56.034 208.07 55.7613C208.237 55.4885 208.32 55.1912 208.32 54.8692V53.8408C208.256 53.8938 208.146 53.9431 207.991 53.9885C207.839 54.034 207.669 54.0738 207.479 54.1079C207.29 54.1419 207.103 54.1722 206.917 54.1988C206.731 54.2253 206.57 54.248 206.434 54.2669C206.127 54.3086 205.853 54.3768 205.61 54.4715C205.368 54.5662 205.176 54.6988 205.036 54.8692C204.896 55.0359 204.826 55.2518 204.826 55.5169C204.826 55.8957 204.964 56.1817 205.241 56.3749C205.517 56.5681 205.87 56.6647 206.298 56.6647ZM214.496 52.8863V57.9999H212.44V49.2726H214.406V50.7556H214.508C214.709 50.2669 215.029 49.8787 215.468 49.5908C215.911 49.3029 216.459 49.159 217.11 49.159C217.712 49.159 218.237 49.2878 218.684 49.5454C219.135 49.8029 219.483 50.176 219.729 50.6647C219.979 51.1533 220.103 51.7461 220.099 52.4431V57.9999H218.042V52.7613C218.042 52.1779 217.89 51.7215 217.587 51.3919C217.288 51.0624 216.873 50.8976 216.343 50.8976C215.983 50.8976 215.663 50.9772 215.383 51.1363C215.106 51.2916 214.888 51.5169 214.729 51.8124C214.574 52.1079 214.496 52.4658 214.496 52.8863ZM225.428 58.1533C224.743 58.1533 224.129 57.9772 223.587 57.6249C223.046 57.2726 222.618 56.7613 222.303 56.0908C221.989 55.4204 221.832 54.606 221.832 53.6476C221.832 52.6779 221.991 51.8597 222.309 51.1931C222.631 50.5226 223.065 50.0169 223.61 49.676C224.156 49.3313 224.763 49.159 225.434 49.159C225.945 49.159 226.366 49.2461 226.695 49.4204C227.025 49.5908 227.286 49.7972 227.479 50.0397C227.673 50.2783 227.822 50.5037 227.928 50.7158H228.013V46.3635H230.076V57.9999H228.053V56.6249H227.928C227.822 56.837 227.669 57.0624 227.468 57.301C227.267 57.5359 227.002 57.7366 226.673 57.9033C226.343 58.07 225.928 58.1533 225.428 58.1533ZM226.002 56.4658C226.438 56.4658 226.809 56.3484 227.116 56.1135C227.423 55.8749 227.656 55.5435 227.815 55.1192C227.974 54.695 228.053 54.2007 228.053 53.6363C228.053 53.0719 227.974 52.5813 227.815 52.1647C227.659 51.748 227.428 51.4241 227.121 51.1931C226.818 50.962 226.445 50.8465 226.002 50.8465C225.544 50.8465 225.161 50.9658 224.854 51.2044C224.548 51.4431 224.317 51.7726 224.161 52.1931C224.006 52.6135 223.928 53.0946 223.928 53.6363C223.928 54.1817 224.006 54.6685 224.161 55.0965C224.32 55.5207 224.553 55.856 224.86 56.1022C225.171 56.3446 225.551 56.4658 226.002 56.4658ZM23.8691 85.9999V77.2726H25.9259V85.9999H23.8691ZM24.9032 76.034C24.5775 76.034 24.2971 75.926 24.0623 75.7101C23.8275 75.4904 23.71 75.2272 23.71 74.9204C23.71 74.6097 23.8275 74.3465 24.0623 74.1306C24.2971 73.9109 24.5775 73.801 24.9032 73.801C25.2328 73.801 25.5131 73.9109 25.7441 74.1306C25.979 74.3465 26.0964 74.6097 26.0964 74.9204C26.0964 75.2272 25.979 75.4904 25.7441 75.7101C25.5131 75.926 25.2328 76.034 24.9032 76.034ZM30.0978 80.8863V85.9999H28.041V77.2726H30.0069V78.7556H30.1092C30.3099 78.2669 30.63 77.8787 31.0694 77.5908C31.5126 77.3029 32.0599 77.159 32.7114 77.159C33.3137 77.159 33.8383 77.2878 34.2853 77.5454C34.7361 77.8029 35.0846 78.176 35.3308 78.6647C35.5808 79.1533 35.7039 79.7461 35.7001 80.4431V85.9999H33.6433V80.7613C33.6433 80.1779 33.4918 79.7215 33.1887 79.3919C32.8895 79.0624 32.4747 78.8976 31.9444 78.8976C31.5846 78.8976 31.2645 78.9772 30.9842 79.1363C30.7077 79.2916 30.4899 79.5169 30.3308 79.8124C30.1755 80.1079 30.0978 80.4658 30.0978 80.8863ZM45.2739 77.2726L42.166 85.9999H39.8933L36.7853 77.2726H38.9785L40.9842 83.7556H41.0751L43.0864 77.2726H45.2739ZM50.264 86.1704C49.389 86.1704 48.6333 85.9885 47.997 85.6249C47.3644 85.2575 46.8776 84.7385 46.5367 84.0681C46.1958 83.3938 46.0254 82.6003 46.0254 81.6874C46.0254 80.7897 46.1958 80.0018 46.5367 79.3238C46.8814 78.6419 47.3625 78.1116 47.9799 77.7329C48.5973 77.3503 49.3227 77.159 50.156 77.159C50.6939 77.159 51.2015 77.2461 51.6788 77.4204C52.1598 77.5908 52.5841 77.856 52.9515 78.2158C53.3227 78.5757 53.6144 79.034 53.8265 79.5908C54.0386 80.1438 54.1447 80.8029 54.1447 81.5681V82.1988H46.9913V80.8124H52.1731C52.1693 80.4185 52.0841 80.0681 51.9174 79.7613C51.7507 79.4507 51.5178 79.2063 51.2186 79.0283C50.9231 78.8503 50.5784 78.7613 50.1845 78.7613C49.764 78.7613 49.3947 78.8635 49.0765 79.0681C48.7583 79.2688 48.5102 79.534 48.3322 79.8635C48.1579 80.1893 48.0689 80.5472 48.0651 80.9374V82.1476C48.0651 82.6552 48.1579 83.0908 48.3436 83.4544C48.5292 83.8143 48.7886 84.0908 49.122 84.284C49.4553 84.4734 49.8454 84.5681 50.2924 84.5681C50.5917 84.5681 50.8625 84.5264 51.1049 84.4431C51.3473 84.356 51.5576 84.2291 51.7356 84.0624C51.9136 83.8957 52.0481 83.6893 52.139 83.4431L54.0595 83.659C53.9382 84.1666 53.7072 84.6097 53.3663 84.9885C53.0292 85.3635 52.5973 85.6552 52.0708 85.8635C51.5443 86.0681 50.942 86.1704 50.264 86.1704ZM62.7825 79.5794L60.9075 79.784C60.8544 79.5946 60.7616 79.4166 60.6291 79.2499C60.5003 79.0832 60.326 78.9488 60.1063 78.8465C59.8866 78.7442 59.6177 78.6931 59.2995 78.6931C58.8715 78.6931 58.5116 78.7859 58.22 78.9715C57.9321 79.1571 57.79 79.3976 57.7938 79.6931C57.79 79.9469 57.8828 80.1533 58.0722 80.3124C58.2654 80.4715 58.5836 80.6022 59.0268 80.7044L60.5154 81.0226C61.3412 81.2007 61.9548 81.4829 62.3563 81.8692C62.7616 82.2556 62.9662 82.7613 62.97 83.3863C62.9662 83.9355 62.8052 84.4204 62.487 84.8408C62.1726 85.2575 61.7351 85.5832 61.1745 85.8181C60.6139 86.0529 59.97 86.1704 59.2427 86.1704C58.1745 86.1704 57.3147 85.9469 56.6632 85.4999C56.0116 85.0491 55.6234 84.4222 55.4984 83.6192L57.5041 83.426C57.595 83.82 57.7882 84.1173 58.0836 84.3181C58.3791 84.5188 58.7635 84.6192 59.237 84.6192C59.7257 84.6192 60.1177 84.5188 60.4132 84.3181C60.7124 84.1173 60.862 83.8692 60.862 83.5738C60.862 83.3238 60.7654 83.1173 60.5722 82.9544C60.3828 82.7916 60.0874 82.6666 59.6859 82.5794L58.1972 82.2669C57.3601 82.0927 56.7408 81.7991 56.3393 81.3863C55.9378 80.9696 55.7389 80.4431 55.7427 79.8067C55.7389 79.2688 55.8847 78.8029 56.1802 78.409C56.4794 78.0113 56.8942 77.7044 57.4245 77.4885C57.9586 77.2688 58.5741 77.159 59.2711 77.159C60.2938 77.159 61.0988 77.3768 61.6859 77.8124C62.2768 78.248 62.6423 78.837 62.7825 79.5794ZM69.0239 77.2726V78.8635H64.0069V77.2726H69.0239ZM65.2455 75.1817H67.3024V83.3749C67.3024 83.6514 67.344 83.8635 67.4274 84.0113C67.5145 84.1552 67.6281 84.2537 67.7683 84.3067C67.9084 84.3597 68.0637 84.3863 68.2342 84.3863C68.363 84.3863 68.4804 84.3768 68.5864 84.3579C68.6963 84.3389 68.7796 84.3219 68.8364 84.3067L69.183 85.9147C69.0732 85.9526 68.916 85.9942 68.7114 86.0397C68.5107 86.0851 68.2645 86.1116 67.9728 86.1192C67.4577 86.1344 66.9936 86.0567 66.5808 85.8863C66.1679 85.712 65.8402 85.4431 65.5978 85.0794C65.3592 84.7158 65.2418 84.2613 65.2455 83.7158V75.1817ZM70.7441 85.9999V77.2726H72.71V78.7556H72.8123C72.9941 78.2556 73.2953 77.8654 73.7157 77.5851C74.1362 77.301 74.6381 77.159 75.2214 77.159C75.8123 77.159 76.3104 77.3029 76.7157 77.5908C77.1248 77.8749 77.4127 78.2632 77.5793 78.7556H77.6703C77.8634 78.2707 78.1892 77.8844 78.6475 77.5965C79.1096 77.3048 79.657 77.159 80.2896 77.159C81.0926 77.159 81.7479 77.4128 82.2555 77.9204C82.7631 78.4279 83.0168 79.1685 83.0168 80.1419V85.9999H80.9543V80.4601C80.9543 79.9185 80.8104 79.5226 80.5225 79.2726C80.2346 79.0188 79.8824 78.8919 79.4657 78.8919C78.9695 78.8919 78.5812 79.0472 78.3009 79.3579C78.0244 79.6647 77.8862 80.0643 77.8862 80.5567V85.9999H75.8691V80.3749C75.8691 79.9241 75.7328 79.5643 75.46 79.2954C75.1911 79.0264 74.8388 78.8919 74.4032 78.8919C74.1078 78.8919 73.8388 78.9677 73.5964 79.1192C73.354 79.2669 73.1608 79.4772 73.0168 79.7499C72.8729 80.0188 72.8009 80.3332 72.8009 80.6931V85.9999H70.7441ZM88.9671 86.1704C88.0921 86.1704 87.3364 85.9885 86.7001 85.6249C86.0675 85.2575 85.5808 84.7385 85.2399 84.0681C84.8989 83.3938 84.7285 82.6003 84.7285 81.6874C84.7285 80.7897 84.8989 80.0018 85.2399 79.3238C85.5846 78.6419 86.0656 78.1116 86.683 77.7329C87.3005 77.3503 88.0258 77.159 88.8592 77.159C89.3971 77.159 89.9046 77.2461 90.3819 77.4204C90.863 77.5908 91.2872 77.856 91.6546 78.2158C92.0258 78.5757 92.3175 79.034 92.5296 79.5908C92.7418 80.1438 92.8478 80.8029 92.8478 81.5681V82.1988H85.6944V80.8124H90.8762C90.8724 80.4185 90.7872 80.0681 90.6205 79.7613C90.4539 79.4507 90.2209 79.2063 89.9217 79.0283C89.6262 78.8503 89.2815 78.7613 88.8876 78.7613C88.4671 78.7613 88.0978 78.8635 87.7796 79.0681C87.4614 79.2688 87.2133 79.534 87.0353 79.8635C86.8611 80.1893 86.7721 80.5472 86.7683 80.9374V82.1476C86.7683 82.6552 86.8611 83.0908 87.0467 83.4544C87.2323 83.8143 87.4918 84.0908 87.8251 84.284C88.1584 84.4734 88.5486 84.5681 88.9955 84.5681C89.2948 84.5681 89.5656 84.5264 89.808 84.4431C90.0505 84.356 90.2607 84.2291 90.4387 84.0624C90.6168 83.8957 90.7512 83.6893 90.8421 83.4431L92.7626 83.659C92.6414 84.1666 92.4103 84.6097 92.0694 84.9885C91.7323 85.3635 91.3005 85.6552 90.7739 85.8635C90.2474 86.0681 89.6452 86.1704 88.9671 86.1704ZM96.6447 80.8863V85.9999H94.5879V77.2726H96.5538V78.7556H96.656C96.8568 78.2669 97.1769 77.8787 97.6163 77.5908C98.0595 77.3029 98.6068 77.159 99.2583 77.159C99.8606 77.159 100.385 77.2878 100.832 77.5454C101.283 77.8029 101.632 78.176 101.878 78.6647C102.128 79.1533 102.251 79.7461 102.247 80.4431V85.9999H100.19V80.7613C100.19 80.1779 100.039 79.7215 99.7356 79.3919C99.4364 79.0624 99.0216 78.8976 98.4913 78.8976C98.1314 78.8976 97.8114 78.9772 97.531 79.1363C97.2545 79.2916 97.0367 79.5169 96.8776 79.8124C96.7223 80.1079 96.6447 80.4658 96.6447 80.8863ZM108.696 77.2726V78.8635H103.679V77.2726H108.696ZM104.918 75.1817H106.974V83.3749C106.974 83.6514 107.016 83.8635 107.099 84.0113C107.187 84.1552 107.3 84.2537 107.44 84.3067C107.58 84.3597 107.736 84.3863 107.906 84.3863C108.035 84.3863 108.152 84.3768 108.259 84.3579C108.368 84.3389 108.452 84.3219 108.509 84.3067L108.855 85.9147C108.745 85.9526 108.588 85.9942 108.384 86.0397C108.183 86.0851 107.937 86.1116 107.645 86.1192C107.13 86.1344 106.666 86.0567 106.253 85.8863C105.84 85.712 105.512 85.4431 105.27 85.0794C105.031 84.7158 104.914 84.2613 104.918 83.7158V75.1817ZM117.189 79.5794L115.314 79.784C115.261 79.5946 115.168 79.4166 115.036 79.2499C114.907 79.0832 114.732 78.9488 114.513 78.8465C114.293 78.7442 114.024 78.6931 113.706 78.6931C113.278 78.6931 112.918 78.7859 112.626 78.9715C112.339 79.1571 112.196 79.3976 112.2 79.6931C112.196 79.9469 112.289 80.1533 112.479 80.3124C112.672 80.4715 112.99 80.6022 113.433 80.7044L114.922 81.0226C115.748 81.2007 116.361 81.4829 116.763 81.8692C117.168 82.2556 117.373 82.7613 117.376 83.3863C117.373 83.9355 117.212 84.4204 116.893 84.8408C116.579 85.2575 116.142 85.5832 115.581 85.8181C115.02 86.0529 114.376 86.1704 113.649 86.1704C112.581 86.1704 111.721 85.9469 111.07 85.4999C110.418 85.0491 110.03 84.4222 109.905 83.6192L111.911 83.426C112.001 83.82 112.195 84.1173 112.49 84.3181C112.786 84.5188 113.17 84.6192 113.643 84.6192C114.132 84.6192 114.524 84.5188 114.82 84.3181C115.119 84.1173 115.268 83.8692 115.268 83.5738C115.268 83.3238 115.172 83.1173 114.979 82.9544C114.789 82.7916 114.494 82.6666 114.092 82.5794L112.604 82.2669C111.767 82.0927 111.147 81.7991 110.746 81.3863C110.344 80.9696 110.145 80.4431 110.149 79.8067C110.145 79.2688 110.291 78.8029 110.587 78.409C110.886 78.0113 111.301 77.7044 111.831 77.4885C112.365 77.2688 112.981 77.159 113.678 77.159C114.7 77.159 115.505 77.3768 116.092 77.8124C116.683 78.248 117.049 78.837 117.189 79.5794ZM123.041 85.9999V77.2726H125.098V85.9999H123.041ZM124.075 76.034C123.75 76.034 123.469 75.926 123.234 75.7101C123 75.4904 122.882 75.2272 122.882 74.9204C122.882 74.6097 123 74.3465 123.234 74.1306C123.469 73.9109 123.75 73.801 124.075 73.801C124.405 73.801 124.685 73.9109 124.916 74.1306C125.151 74.3465 125.268 74.6097 125.268 74.9204C125.268 75.2272 125.151 75.4904 124.916 75.7101C124.685 75.926 124.405 76.034 124.075 76.034ZM129.27 80.8863V85.9999H127.213V77.2726H129.179V78.7556H129.281C129.482 78.2669 129.802 77.8787 130.241 77.5908C130.685 77.3029 131.232 77.159 131.884 77.159C132.486 77.159 133.01 77.2878 133.457 77.5454C133.908 77.8029 134.257 78.176 134.503 78.6647C134.753 79.1533 134.876 79.7461 134.872 80.4431V85.9999H132.815V80.7613C132.815 80.1779 132.664 79.7215 132.361 79.3919C132.062 79.0624 131.647 78.8976 131.116 78.8976C130.757 78.8976 130.437 78.9772 130.156 79.1363C129.88 79.2916 129.662 79.5169 129.503 79.8124C129.348 80.1079 129.27 80.4658 129.27 80.8863ZM143.443 86.176C142.89 86.176 142.392 86.0776 141.949 85.8806C141.509 85.6798 141.161 85.3844 140.903 84.9942C140.65 84.6041 140.523 84.123 140.523 83.551C140.523 83.0586 140.614 82.6514 140.795 82.3294C140.977 82.0075 141.225 81.7499 141.54 81.5567C141.854 81.3635 142.208 81.2177 142.602 81.1192C143 81.0169 143.411 80.9431 143.835 80.8976C144.347 80.8446 144.761 80.7972 145.08 80.7556C145.398 80.7101 145.629 80.6419 145.773 80.551C145.92 80.4563 145.994 80.3105 145.994 80.1135V80.0794C145.994 79.6514 145.867 79.32 145.614 79.0851C145.36 78.8503 144.994 78.7329 144.517 78.7329C144.013 78.7329 143.614 78.8427 143.318 79.0624C143.027 79.2821 142.83 79.5416 142.727 79.8408L140.807 79.5681C140.958 79.0378 141.208 78.5946 141.557 78.2385C141.905 77.8787 142.331 77.6097 142.835 77.4317C143.339 77.2499 143.896 77.159 144.506 77.159C144.926 77.159 145.345 77.2082 145.761 77.3067C146.178 77.4052 146.559 77.5681 146.903 77.7954C147.248 78.0188 147.525 78.3238 147.733 78.7101C147.945 79.0965 148.051 79.5794 148.051 80.159V85.9999H146.074V84.801H146.006C145.881 85.0435 145.705 85.2707 145.477 85.4829C145.254 85.6912 144.972 85.8597 144.631 85.9885C144.294 86.1135 143.898 86.176 143.443 86.176ZM143.977 84.6647C144.39 84.6647 144.748 84.5832 145.051 84.4204C145.354 84.2537 145.587 84.034 145.75 83.7613C145.917 83.4885 146 83.1912 146 82.8692V81.8408C145.936 81.8938 145.826 81.9431 145.67 81.9885C145.519 82.034 145.348 82.0738 145.159 82.1079C144.97 82.1419 144.782 82.1722 144.597 82.1988C144.411 82.2253 144.25 82.248 144.114 82.2669C143.807 82.3086 143.532 82.3768 143.29 82.4715C143.047 82.5662 142.856 82.6988 142.716 82.8692C142.576 83.0359 142.506 83.2518 142.506 83.5169C142.506 83.8957 142.644 84.1817 142.92 84.3749C143.197 84.5681 143.549 84.6647 143.977 84.6647ZM160.986 79.5794L159.111 79.784C159.058 79.5946 158.965 79.4166 158.832 79.2499C158.704 79.0832 158.529 78.9488 158.31 78.8465C158.09 78.7442 157.821 78.6931 157.503 78.6931C157.075 78.6931 156.715 78.7859 156.423 78.9715C156.135 79.1571 155.993 79.3976 155.997 79.6931C155.993 79.9469 156.086 80.1533 156.276 80.3124C156.469 80.4715 156.787 80.6022 157.23 80.7044L158.719 81.0226C159.545 81.2007 160.158 81.4829 160.56 81.8692C160.965 82.2556 161.17 82.7613 161.173 83.3863C161.17 83.9355 161.009 84.4204 160.69 84.8408C160.376 85.2575 159.938 85.5832 159.378 85.8181C158.817 86.0529 158.173 86.1704 157.446 86.1704C156.378 86.1704 155.518 85.9469 154.866 85.4999C154.215 85.0491 153.827 84.4222 153.702 83.6192L155.707 83.426C155.798 83.82 155.991 84.1173 156.287 84.3181C156.582 84.5188 156.967 84.6192 157.44 84.6192C157.929 84.6192 158.321 84.5188 158.616 84.3181C158.916 84.1173 159.065 83.8692 159.065 83.5738C159.065 83.3238 158.969 83.1173 158.776 82.9544C158.586 82.7916 158.291 82.6666 157.889 82.5794L156.401 82.2669C155.563 82.0927 154.944 81.7991 154.543 81.3863C154.141 80.9696 153.942 80.4431 153.946 79.8067C153.942 79.2688 154.088 78.8029 154.384 78.409C154.683 78.0113 155.098 77.7044 155.628 77.4885C156.162 77.2688 156.777 77.159 157.474 77.159C158.497 77.159 159.302 77.3768 159.889 77.8124C160.48 78.248 160.846 78.837 160.986 79.5794ZM166.733 86.1704C165.858 86.1704 165.102 85.9885 164.466 85.6249C163.833 85.2575 163.347 84.7385 163.006 84.0681C162.665 83.3938 162.494 82.6003 162.494 81.6874C162.494 80.7897 162.665 80.0018 163.006 79.3238C163.35 78.6419 163.831 78.1116 164.449 77.7329C165.066 77.3503 165.792 77.159 166.625 77.159C167.163 77.159 167.67 77.2461 168.148 77.4204C168.629 77.5908 169.053 77.856 169.42 78.2158C169.792 78.5757 170.083 79.034 170.295 79.5908C170.508 80.1438 170.614 80.8029 170.614 81.5681V82.1988H163.46V80.8124H168.642C168.638 80.4185 168.553 80.0681 168.386 79.7613C168.22 79.4507 167.987 79.2063 167.688 79.0283C167.392 78.8503 167.047 78.7613 166.653 78.7613C166.233 78.7613 165.864 78.8635 165.545 79.0681C165.227 79.2688 164.979 79.534 164.801 79.8635C164.627 80.1893 164.538 80.5472 164.534 80.9374V82.1476C164.534 82.6552 164.627 83.0908 164.812 83.4544C164.998 83.8143 165.258 84.0908 165.591 84.284C165.924 84.4734 166.314 84.5681 166.761 84.5681C167.061 84.5681 167.331 84.5264 167.574 84.4431C167.816 84.356 168.027 84.2291 168.205 84.0624C168.383 83.8957 168.517 83.6893 168.608 83.4431L170.528 83.659C170.407 84.1666 170.176 84.6097 169.835 84.9885C169.498 85.3635 169.066 85.6552 168.54 85.8635C168.013 86.0681 167.411 86.1704 166.733 86.1704ZM176.161 86.1704C175.289 86.1704 174.541 85.9791 173.916 85.5965C173.295 85.2139 172.816 84.6855 172.479 84.0113C172.145 83.3332 171.979 82.5529 171.979 81.6704C171.979 80.784 172.149 80.0018 172.49 79.3238C172.831 78.6419 173.312 78.1116 173.933 77.7329C174.558 77.3503 175.297 77.159 176.149 77.159C176.857 77.159 177.484 77.2897 178.03 77.551C178.579 77.8086 179.017 78.1741 179.342 78.6476C179.668 79.1173 179.854 79.6666 179.899 80.2954H177.933C177.854 79.8749 177.664 79.5245 177.365 79.2442C177.07 78.9601 176.674 78.8181 176.178 78.8181C175.757 78.8181 175.388 78.9317 175.07 79.159C174.751 79.3825 174.503 79.7044 174.325 80.1249C174.151 80.5454 174.064 81.0491 174.064 81.6363C174.064 82.231 174.151 82.7423 174.325 83.1704C174.5 83.5946 174.744 83.9222 175.058 84.1533C175.376 84.3806 175.75 84.4942 176.178 84.4942C176.481 84.4942 176.751 84.4374 176.99 84.3238C177.232 84.2063 177.435 84.0378 177.598 83.8181C177.761 83.5984 177.873 83.3313 177.933 83.0169H179.899C179.85 83.6344 179.668 84.1817 179.354 84.659C179.039 85.1325 178.611 85.5037 178.07 85.7726C177.528 86.0378 176.892 86.1704 176.161 86.1704ZM187.151 82.3294V77.2726H189.207V85.9999H187.213V84.4488H187.122C186.925 84.9374 186.601 85.337 186.151 85.6476C185.704 85.9582 185.152 86.1135 184.497 86.1135C183.925 86.1135 183.42 85.9866 182.98 85.7329C182.545 85.4753 182.204 85.1022 181.957 84.6135C181.711 84.1211 181.588 83.5264 181.588 82.8294V77.2726H183.645V82.5113C183.645 83.0643 183.796 83.5037 184.099 83.8294C184.402 84.1552 184.8 84.3181 185.293 84.3181C185.596 84.3181 185.889 84.2442 186.173 84.0965C186.457 83.9488 186.69 83.7291 186.872 83.4374C187.058 83.1419 187.151 82.7726 187.151 82.3294ZM191.322 85.9999V77.2726H193.317V78.7272H193.408C193.567 78.2234 193.839 77.8351 194.226 77.5624C194.616 77.2859 195.061 77.1476 195.561 77.1476C195.675 77.1476 195.802 77.1533 195.942 77.1647C196.086 77.1722 196.205 77.1855 196.3 77.2044V79.0965C196.213 79.0662 196.074 79.0397 195.885 79.0169C195.699 78.9904 195.519 78.9772 195.345 78.9772C194.97 78.9772 194.633 79.0586 194.334 79.2215C194.038 79.3806 193.805 79.6022 193.635 79.8863C193.464 80.1704 193.379 80.498 193.379 80.8692V85.9999H191.322ZM201.17 86.1704C200.295 86.1704 199.54 85.9885 198.903 85.6249C198.271 85.2575 197.784 84.7385 197.443 84.0681C197.102 83.3938 196.932 82.6003 196.932 81.6874C196.932 80.7897 197.102 80.0018 197.443 79.3238C197.788 78.6419 198.269 78.1116 198.886 77.7329C199.504 77.3503 200.229 77.159 201.062 77.159C201.6 77.159 202.108 77.2461 202.585 77.4204C203.066 77.5908 203.491 77.856 203.858 78.2158C204.229 78.5757 204.521 79.034 204.733 79.5908C204.945 80.1438 205.051 80.8029 205.051 81.5681V82.1988H197.898V80.8124H203.08C203.076 80.4185 202.991 80.0681 202.824 79.7613C202.657 79.4507 202.424 79.2063 202.125 79.0283C201.83 78.8503 201.485 78.7613 201.091 78.7613C200.67 78.7613 200.301 78.8635 199.983 79.0681C199.665 79.2688 199.417 79.534 199.239 79.8635C199.064 80.1893 198.975 80.5472 198.972 80.9374V82.1476C198.972 82.6552 199.064 83.0908 199.25 83.4544C199.436 83.8143 199.695 84.0908 200.028 84.284C200.362 84.4734 200.752 84.5681 201.199 84.5681C201.498 84.5681 201.769 84.5264 202.011 84.4431C202.254 84.356 202.464 84.2291 202.642 84.0624C202.82 83.8957 202.955 83.6893 203.045 83.4431L204.966 83.659C204.845 84.1666 204.614 84.6097 204.273 84.9885C203.936 85.3635 203.504 85.6552 202.977 85.8635C202.451 86.0681 201.848 86.1704 201.17 86.1704ZM212.561 85.9999L210.095 77.2726H212.192L213.726 83.409H213.805L215.374 77.2726H217.447L219.016 83.3749H219.101L220.612 77.2726H222.714L220.243 85.9999H218.101L216.464 80.1022H216.345L214.709 85.9999H212.561ZM226.662 86.176C226.109 86.176 225.611 86.0776 225.168 85.8806C224.728 85.6798 224.38 85.3844 224.122 84.9942C223.868 84.6041 223.741 84.123 223.741 83.551C223.741 83.0586 223.832 82.6514 224.014 82.3294C224.196 82.0075 224.444 81.7499 224.759 81.5567C225.073 81.3635 225.427 81.2177 225.821 81.1192C226.219 81.0169 226.63 80.9431 227.054 80.8976C227.565 80.8446 227.98 80.7972 228.298 80.7556C228.616 80.7101 228.848 80.6419 228.991 80.551C229.139 80.4563 229.213 80.3105 229.213 80.1135V80.0794C229.213 79.6514 229.086 79.32 228.832 79.0851C228.579 78.8503 228.213 78.7329 227.736 78.7329C227.232 78.7329 226.832 78.8427 226.537 79.0624C226.245 79.2821 226.048 79.5416 225.946 79.8408L224.026 79.5681C224.177 79.0378 224.427 78.5946 224.776 78.2385C225.124 77.8787 225.55 77.6097 226.054 77.4317C226.558 77.2499 227.115 77.159 227.724 77.159C228.145 77.159 228.563 77.2082 228.98 77.3067C229.397 77.4052 229.777 77.5681 230.122 77.7954C230.467 78.0188 230.743 78.3238 230.952 78.7101C231.164 79.0965 231.27 79.5794 231.27 80.159V85.9999H229.293V84.801H229.224C229.099 85.0435 228.923 85.2707 228.696 85.4829C228.473 85.6912 228.19 85.8597 227.849 85.9885C227.512 86.1135 227.116 86.176 226.662 86.176ZM227.196 84.6647C227.609 84.6647 227.967 84.5832 228.27 84.4204C228.573 84.2537 228.806 84.034 228.969 83.7613C229.135 83.4885 229.219 83.1912 229.219 82.8692V81.8408C229.154 81.8938 229.045 81.9431 228.889 81.9885C228.738 82.034 228.567 82.0738 228.378 82.1079C228.188 82.1419 228.001 82.1722 227.815 82.1988C227.63 82.2253 227.469 82.248 227.332 82.2669C227.026 82.3086 226.751 82.3768 226.509 82.4715C226.266 82.5662 226.075 82.6988 225.935 82.8692C225.795 83.0359 225.724 83.2518 225.724 83.5169C225.724 83.8957 225.863 84.1817 226.139 84.3749C226.416 84.5681 226.768 84.6647 227.196 84.6647ZM235.395 74.3635V85.9999H233.338V74.3635H235.395ZM239.567 74.3635V85.9999H237.51V74.3635H239.567ZM245.545 86.1704C244.67 86.1704 243.915 85.9885 243.278 85.6249C242.646 85.2575 242.159 84.7385 241.818 84.0681C241.477 83.3938 241.307 82.6003 241.307 81.6874C241.307 80.7897 241.477 80.0018 241.818 79.3238C242.163 78.6419 242.644 78.1116 243.261 77.7329C243.879 77.3503 244.604 77.159 245.438 77.159C245.975 77.159 246.483 77.2461 246.96 77.4204C247.441 77.5908 247.866 77.856 248.233 78.2158C248.604 78.5757 248.896 79.034 249.108 79.5908C249.32 80.1438 249.426 80.8029 249.426 81.5681V82.1988H242.273V80.8124H247.455C247.451 80.4185 247.366 80.0681 247.199 79.7613C247.032 79.4507 246.799 79.2063 246.5 79.0283C246.205 78.8503 245.86 78.7613 245.466 78.7613C245.045 78.7613 244.676 78.8635 244.358 79.0681C244.04 79.2688 243.792 79.534 243.614 79.8635C243.439 80.1893 243.35 80.5472 243.347 80.9374V82.1476C243.347 82.6552 243.439 83.0908 243.625 83.4544C243.811 83.8143 244.07 84.0908 244.403 84.284C244.737 84.4734 245.127 84.5681 245.574 84.5681C245.873 84.5681 246.144 84.5264 246.386 84.4431C246.629 84.356 246.839 84.2291 247.017 84.0624C247.195 83.8957 247.33 83.6893 247.42 83.4431L249.341 83.659C249.22 84.1666 248.989 84.6097 248.648 84.9885C248.311 85.3635 247.879 85.6552 247.352 85.8635C246.826 86.0681 246.223 86.1704 245.545 86.1704ZM255.524 77.2726V78.8635H250.507V77.2726H255.524ZM251.746 75.1817H253.803V83.3749C253.803 83.6514 253.844 83.8635 253.928 84.0113C254.015 84.1552 254.128 84.2537 254.268 84.3067C254.409 84.3597 254.564 84.3863 254.734 84.3863C254.863 84.3863 254.981 84.3768 255.087 84.3579C255.196 84.3389 255.28 84.3219 255.337 84.3067L255.683 85.9147C255.573 85.9526 255.416 85.9942 255.212 86.0397C255.011 86.0851 254.765 86.1116 254.473 86.1192C253.958 86.1344 253.494 86.0567 253.081 85.8863C252.668 85.712 252.34 85.4431 252.098 85.0794C251.859 84.7158 251.742 84.2613 251.746 83.7158V75.1817Z" fill="#333333"/>
<path opacity="0.3" d="M152 130C152 128.895 151.105 128 150 128C148.895 128 148 128.895 148 130C148 131.105 148.895 132 150 132C151.105 132 152 131.105 152 130Z" fill="#707070"/>
<path d="M143 130C143 127.791 141.209 126 139 126C136.791 126 135 127.791 135 130C135 132.209 136.791 134 139 134C141.209 134 143 132.209 143 130Z" fill="#3700B3"/>
<path opacity="0.3" d="M130 130C130 128.895 129.105 128 128 128C126.895 128 126 128.895 126 130C126 131.105 126.895 132 128 132C129.105 132 130 131.105 130 130Z" fill="#707070"/>
</svg>
