<svg width="279" height="162" viewBox="0 0 279 162" fill="none" xmlns="http://www.w3.org/2000/svg">
<path d="M19.5147 12.3245C19.4697 11.8297 19.2696 11.4451 18.9142 11.1707C18.5634 10.8918 18.0618 10.7524 17.4096 10.7524C16.9778 10.7524 16.6179 10.8086 16.3301 10.9211C16.0422 11.0335 15.8263 11.1887 15.6823 11.3866C15.5384 11.58 15.4642 11.8027 15.4597 12.0546C15.4507 12.2615 15.4912 12.4437 15.5811 12.6011C15.6756 12.7585 15.8105 12.898 15.986 13.0194C16.1659 13.1364 16.3818 13.2398 16.6337 13.3298C16.8856 13.4198 17.169 13.4985 17.4838 13.566L18.6713 13.8358C19.355 13.9843 19.9578 14.1822 20.4796 14.4296C21.0058 14.677 21.4467 14.9716 21.802 15.3135C22.1619 15.6553 22.434 16.0489 22.6184 16.4942C22.8028 16.9395 22.8973 17.4388 22.9018 17.9921C22.8973 18.8647 22.6769 19.6137 22.2406 20.2389C21.8043 20.8641 21.1768 21.3432 20.3581 21.676C19.544 22.0089 18.5611 22.1753 17.4096 22.1753C16.2536 22.1753 15.246 22.0021 14.3869 21.6558C13.5277 21.3094 12.8598 20.7832 12.383 20.077C11.9062 19.3708 11.661 18.4779 11.6475 17.3983H14.8457C14.8727 17.8437 14.9919 18.2147 15.2033 18.5116C15.4147 18.8085 15.7048 19.0334 16.0737 19.1863C16.447 19.3393 16.8788 19.4157 17.3691 19.4157C17.8189 19.4157 18.2013 19.355 18.5161 19.2336C18.8355 19.1121 19.0806 18.9434 19.2516 18.7275C19.4225 18.5116 19.5102 18.2642 19.5147 17.9853C19.5102 17.7244 19.4293 17.5018 19.2718 17.3174C19.1144 17.1285 18.8715 16.9665 18.5431 16.8316C18.2193 16.6921 17.8054 16.5639 17.3016 16.447L15.8578 16.1096C14.6613 15.8352 13.7189 15.3922 13.0307 14.7804C12.3425 14.1642 12.0006 13.332 12.0051 12.284C12.0006 11.4294 12.23 10.6804 12.6933 10.0372C13.1566 9.39395 13.7976 8.89241 14.6163 8.53256C15.4349 8.17271 16.3683 7.99279 17.4163 7.99279C18.4869 7.99279 19.4158 8.17496 20.2029 8.53931C20.9946 8.89916 21.6086 9.40519 22.0449 10.0574C22.4812 10.7097 22.7039 11.4653 22.7129 12.3245H19.5147ZM30.003 22.1956C28.919 22.1956 27.9834 21.9819 27.1962 21.5546C26.4135 21.1228 25.8108 20.5088 25.388 19.7126C24.9697 18.912 24.7605 17.9606 24.7605 16.8586C24.7605 15.788 24.9719 14.8524 25.3947 14.0517C25.8176 13.2466 26.4135 12.6213 27.1827 12.176C27.9519 11.7262 28.8583 11.5013 29.9018 11.5013C30.6395 11.5013 31.3142 11.616 31.926 11.8454C32.5377 12.0748 33.0662 12.4144 33.5116 12.8642C33.9569 13.3141 34.3032 13.8696 34.5506 14.5308C34.798 15.1875 34.9217 15.941 34.9217 16.7911V17.6142H25.9143V15.6981H31.8518C31.8473 15.3472 31.764 15.0346 31.6021 14.7602C31.4402 14.4858 31.2175 14.2722 30.9341 14.1192C30.6553 13.9618 30.3336 13.8831 29.9693 13.8831C29.6005 13.8831 29.2698 13.9663 28.9775 14.1327C28.6851 14.2946 28.4534 14.5173 28.2825 14.8007C28.1116 15.0796 28.0216 15.3967 28.0126 15.752V17.702C28.0126 18.1248 28.0958 18.4959 28.2623 18.8152C28.4287 19.1301 28.6649 19.3753 28.9707 19.5507C29.2766 19.7261 29.6409 19.8138 30.0638 19.8138C30.3561 19.8138 30.6215 19.7733 30.8599 19.6924C31.0983 19.6114 31.303 19.4922 31.4739 19.3348C31.6448 19.1773 31.773 18.9839 31.8585 18.7545L34.888 18.8422C34.762 19.5214 34.4854 20.1129 34.0581 20.6167C33.6353 21.116 33.0797 21.5051 32.3915 21.784C31.7033 22.0584 30.9072 22.1956 30.003 22.1956ZM40.4762 16.0894V21.9999H37.1768V11.6363H40.3142V13.539H40.429C40.6584 12.9047 41.0497 12.4077 41.603 12.0478C42.1562 11.6835 42.8152 11.5013 43.5799 11.5013C44.3086 11.5013 44.9406 11.6655 45.4758 11.9939C46.0156 12.3177 46.4339 12.772 46.7308 13.3568C47.0322 13.937 47.1806 14.6163 47.1761 15.3944V21.9999H43.8767V16.0422C43.8812 15.4664 43.7351 15.0166 43.4382 14.6927C43.1458 14.3689 42.7387 14.2069 42.2169 14.2069C41.8706 14.2069 41.5647 14.2834 41.2993 14.4363C41.0384 14.5848 40.836 14.7984 40.6921 15.0773C40.5526 15.3562 40.4807 15.6936 40.4762 16.0894ZM53.574 22.1483C52.8093 22.1483 52.1143 21.9504 51.4891 21.5546C50.8639 21.1588 50.3646 20.565 49.9912 19.7733C49.6179 18.9817 49.4312 17.9988 49.4312 16.8248C49.4312 15.6058 49.6246 14.6028 50.0115 13.8156C50.3983 13.0284 50.9043 12.4459 51.5296 12.0681C52.1593 11.6902 52.8363 11.5013 53.5605 11.5013C54.1047 11.5013 54.5703 11.5958 54.9571 11.7847C55.344 11.9691 55.6633 12.2075 55.9152 12.4999C56.1671 12.7923 56.3583 13.0959 56.4887 13.4108H56.5562V8.18171H59.8556V21.9999H56.5899V20.3199H56.4887C56.3493 20.6392 56.1514 20.9383 55.895 21.2172C55.6386 21.4961 55.317 21.721 54.9301 21.8919C54.5478 22.0629 54.0957 22.1483 53.574 22.1483ZM54.721 19.5777C55.1213 19.5777 55.4632 19.4652 55.7466 19.2403C56.0299 19.0109 56.2481 18.6893 56.401 18.2755C56.554 17.8616 56.6304 17.3758 56.6304 16.8181C56.6304 16.2513 56.554 15.7633 56.401 15.3539C56.2526 14.9446 56.0344 14.6298 55.7466 14.4093C55.4632 14.1889 55.1213 14.0787 54.721 14.0787C54.3117 14.0787 53.9653 14.1912 53.6819 14.4161C53.3985 14.641 53.1826 14.9581 53.0342 15.3674C52.8903 15.7768 52.8183 16.2603 52.8183 16.8181C52.8183 17.3758 52.8925 17.8616 53.0409 18.2755C53.1894 18.6893 53.403 19.0109 53.6819 19.2403C53.9653 19.4652 54.3117 19.5777 54.721 19.5777ZM70.1532 21.9999H66.5637L71.226 8.18171H75.6723L80.3346 21.9999H76.7451L73.4997 11.6633H73.3918L70.1532 21.9999ZM69.6741 16.5617H77.1769V19.0986H69.6741V16.5617ZM85.6917 16.0894V21.9999H82.3924V11.6363H85.5298V13.539H85.6445C85.8739 12.9047 86.2652 12.4077 86.8185 12.0478C87.3718 11.6835 88.0307 11.5013 88.7954 11.5013C89.5241 11.5013 90.1561 11.6655 90.6914 11.9939C91.2311 12.3177 91.6495 12.772 91.9463 13.3568C92.2477 13.937 92.3962 14.6163 92.3917 15.3944V21.9999H89.0923V16.0422C89.0968 15.4664 88.9506 15.0166 88.6537 14.6927C88.3614 14.3689 87.9543 14.2069 87.4325 14.2069C87.0861 14.2069 86.7803 14.2834 86.5149 14.4363C86.254 14.5848 86.0516 14.7984 85.9076 15.0773C85.7682 15.3562 85.6962 15.6936 85.6917 16.0894ZM98.7895 22.1483C98.0248 22.1483 97.3299 21.9504 96.7046 21.5546C96.0794 21.1588 95.5801 20.565 95.2068 19.7733C94.8334 18.9817 94.6468 17.9988 94.6468 16.8248C94.6468 15.6058 94.8402 14.6028 95.227 13.8156C95.6139 13.0284 96.1199 12.4459 96.7451 12.0681C97.3749 11.6902 98.0518 11.5013 98.776 11.5013C99.3203 11.5013 99.7858 11.5958 100.173 11.7847C100.56 11.9691 100.879 12.2075 101.131 12.4999C101.383 12.7923 101.574 13.0959 101.704 13.4108H101.772V8.18171H105.071V21.9999H101.806V20.3199H101.704C101.565 20.6392 101.367 20.9383 101.111 21.2172C100.854 21.4961 100.533 21.721 100.146 21.8919C99.7634 22.0629 99.3113 22.1483 98.7895 22.1483ZM99.9365 19.5777C100.337 19.5777 100.679 19.4652 100.962 19.2403C101.246 19.0109 101.464 18.6893 101.617 18.2755C101.77 17.8616 101.846 17.3758 101.846 16.8181C101.846 16.2513 101.77 15.7633 101.617 15.3539C101.468 14.9446 101.25 14.6298 100.962 14.4093C100.679 14.1889 100.337 14.0787 99.9365 14.0787C99.5272 14.0787 99.1808 14.1912 98.8975 14.4161C98.6141 14.641 98.3982 14.9581 98.2497 15.3674C98.1058 15.7768 98.0338 16.2603 98.0338 16.8181C98.0338 17.3758 98.1081 17.8616 98.2565 18.2755C98.4049 18.6893 98.6186 19.0109 98.8975 19.2403C99.1808 19.4652 99.5272 19.5777 99.9365 19.5777ZM112.38 21.9999V8.18171H118.088C119.123 8.18171 120.015 8.36838 120.767 8.74172C121.522 9.11057 122.105 9.64134 122.514 10.3341C122.923 11.0223 123.128 11.8387 123.128 12.7833C123.128 13.7414 122.919 14.5555 122.501 15.2258C122.082 15.8915 121.489 16.3998 120.719 16.7506C119.95 17.097 119.039 17.2701 117.987 17.2701H114.377V14.6387H117.366C117.87 14.6387 118.29 14.5735 118.628 14.4431C118.97 14.3081 119.228 14.1057 119.404 13.8358C119.579 13.5615 119.667 13.2106 119.667 12.7833C119.667 12.356 119.579 12.0029 119.404 11.724C119.228 11.4406 118.97 11.2292 118.628 11.0897C118.286 10.9458 117.865 10.8738 117.366 10.8738H115.72V21.9999H112.38ZM120.159 15.6846L123.6 21.9999H119.957L116.583 15.6846H120.159ZM130.17 22.1956C129.086 22.1956 128.151 21.9819 127.364 21.5546C126.581 21.1228 125.978 20.5088 125.555 19.7126C125.137 18.912 124.928 17.9606 124.928 16.8586C124.928 15.788 125.139 14.8524 125.562 14.0517C125.985 13.2466 126.581 12.6213 127.35 12.176C128.119 11.7262 129.026 11.5013 130.069 11.5013C130.807 11.5013 131.482 11.616 132.093 11.8454C132.705 12.0748 133.234 12.4144 133.679 12.8642C134.124 13.3141 134.471 13.8696 134.718 14.5308C134.965 15.1875 135.089 15.941 135.089 16.7911V17.6142H126.082V15.6981H132.019C132.015 15.3472 131.931 15.0346 131.769 14.7602C131.607 14.4858 131.385 14.2722 131.101 14.1192C130.823 13.9618 130.501 13.8831 130.137 13.8831C129.768 13.8831 129.437 13.9663 129.145 14.1327C128.852 14.2946 128.621 14.5173 128.45 14.8007C128.279 15.0796 128.189 15.3967 128.18 15.752V17.702C128.18 18.1248 128.263 18.4959 128.43 18.8152C128.596 19.1301 128.832 19.3753 129.138 19.5507C129.444 19.7261 129.808 19.8138 130.231 19.8138C130.523 19.8138 130.789 19.7733 131.027 19.6924C131.266 19.6114 131.47 19.4922 131.641 19.3348C131.812 19.1773 131.94 18.9839 132.026 18.7545L135.055 18.8422C134.929 19.5214 134.653 20.1129 134.225 20.6167C133.803 21.116 133.247 21.5051 132.559 21.784C131.871 22.0584 131.074 22.1956 130.17 22.1956ZM142.182 22.1956C141.089 22.1956 140.151 21.9707 139.368 21.5209C138.59 21.071 137.992 20.4458 137.574 19.6451C137.155 18.84 136.946 17.9089 136.946 16.8518C136.946 15.7903 137.155 14.8592 137.574 14.0585C137.996 13.2533 138.597 12.6258 139.375 12.176C140.158 11.7262 141.091 11.5013 142.175 11.5013C143.133 11.5013 143.968 11.6745 144.678 12.0209C145.393 12.3672 145.951 12.8575 146.352 13.4917C146.756 14.1215 146.97 14.8614 146.993 15.7115H143.909C143.846 15.1808 143.666 14.7647 143.369 14.4633C143.077 14.1619 142.695 14.0113 142.222 14.0113C141.84 14.0113 141.505 14.1192 141.217 14.3351C140.929 14.5465 140.704 14.8614 140.542 15.2797C140.385 15.6936 140.306 16.2063 140.306 16.8181C140.306 17.4298 140.385 17.9471 140.542 18.3699C140.704 18.7883 140.929 19.1054 141.217 19.3213C141.505 19.5327 141.84 19.6384 142.222 19.6384C142.528 19.6384 142.798 19.5732 143.032 19.4427C143.27 19.3123 143.466 19.1211 143.619 18.8692C143.772 18.6128 143.869 18.3025 143.909 17.9381H146.993C146.961 18.7928 146.747 19.5394 146.352 20.1782C145.96 20.8169 145.409 21.3139 144.699 21.6693C143.992 22.0201 143.153 22.1956 142.182 22.1956ZM154.096 22.1956C153.011 22.1956 152.076 21.9819 151.289 21.5546C150.506 21.1228 149.903 20.5088 149.48 19.7126C149.062 18.912 148.853 17.9606 148.853 16.8586C148.853 15.788 149.064 14.8524 149.487 14.0517C149.91 13.2466 150.506 12.6213 151.275 12.176C152.044 11.7262 152.951 11.5013 153.994 11.5013C154.732 11.5013 155.407 11.616 156.018 11.8454C156.63 12.0748 157.159 12.4144 157.604 12.8642C158.049 13.3141 158.396 13.8696 158.643 14.5308C158.89 15.1875 159.014 15.941 159.014 16.7911V17.6142H150.007V15.6981H155.944C155.94 15.3472 155.857 15.0346 155.695 14.7602C155.533 14.4858 155.31 14.2722 155.027 14.1192C154.748 13.9618 154.426 13.8831 154.062 13.8831C153.693 13.8831 153.362 13.9663 153.07 14.1327C152.778 14.2946 152.546 14.5173 152.375 14.8007C152.204 15.0796 152.114 15.3967 152.105 15.752V17.702C152.105 18.1248 152.188 18.4959 152.355 18.8152C152.521 19.1301 152.757 19.3753 153.063 19.5507C153.369 19.7261 153.733 19.8138 154.156 19.8138C154.449 19.8138 154.714 19.7733 154.952 19.6924C155.191 19.6114 155.395 19.4922 155.566 19.3348C155.737 19.1773 155.866 18.9839 155.951 18.7545L158.98 18.8422C158.854 19.5214 158.578 20.1129 158.151 20.6167C157.728 21.116 157.172 21.5051 156.484 21.784C155.796 22.0584 155 22.1956 154.096 22.1956ZM161.269 21.9999V11.6363H164.569V21.9999H161.269ZM162.922 10.4285C162.459 10.4285 162.061 10.2756 161.728 9.96971C161.395 9.65934 161.229 9.28599 161.229 8.84968C161.229 8.41786 161.395 8.04901 161.728 7.74314C162.061 7.43277 162.459 7.27759 162.922 7.27759C163.39 7.27759 163.788 7.43277 164.117 7.74314C164.449 8.04901 164.616 8.41786 164.616 8.84968C164.616 9.28599 164.449 9.65934 164.117 9.96971C163.788 10.2756 163.39 10.4285 162.922 10.4285ZM177.292 11.6363L173.736 21.9999H169.958L166.409 11.6363H169.884L171.793 18.7748H171.901L173.817 11.6363H177.292ZM183.638 22.1956C182.553 22.1956 181.618 21.9819 180.831 21.5546C180.048 21.1228 179.445 20.5088 179.022 19.7126C178.604 18.912 178.395 17.9606 178.395 16.8586C178.395 15.788 178.606 14.8524 179.029 14.0517C179.452 13.2466 180.048 12.6213 180.817 12.176C181.586 11.7262 182.493 11.5013 183.536 11.5013C184.274 11.5013 184.949 11.616 185.56 11.8454C186.172 12.0748 186.701 12.4144 187.146 12.8642C187.591 13.3141 187.938 13.8696 188.185 14.5308C188.433 15.1875 188.556 15.941 188.556 16.7911V17.6142H179.549V15.6981H185.486C185.482 15.3472 185.399 15.0346 185.237 14.7602C185.075 14.4858 184.852 14.2722 184.569 14.1192C184.29 13.9618 183.968 13.8831 183.604 13.8831C183.235 13.8831 182.904 13.9663 182.612 14.1327C182.32 14.2946 182.088 14.5173 181.917 14.8007C181.746 15.0796 181.656 15.3967 181.647 15.752V17.702C181.647 18.1248 181.73 18.4959 181.897 18.8152C182.063 19.1301 182.299 19.3753 182.605 19.5507C182.911 19.7261 183.275 19.8138 183.698 19.8138C183.991 19.8138 184.256 19.7733 184.494 19.6924C184.733 19.6114 184.937 19.4922 185.108 19.3348C185.279 19.1773 185.408 18.9839 185.493 18.7545L188.522 18.8422C188.397 19.5214 188.12 20.1129 187.693 20.6167C187.27 21.116 186.714 21.5051 186.026 21.784C185.338 22.0584 184.542 22.1956 183.638 22.1956ZM195.463 8.18171H199.599L203.108 16.7371H203.27L206.778 8.18171H210.914V21.9999H207.662V13.512H207.548L204.228 21.9122H202.15L198.83 13.4647H198.715V21.9999H195.463V8.18171ZM218.405 22.1956C217.317 22.1956 216.381 21.9729 215.598 21.5276C214.82 21.0778 214.22 20.4526 213.797 19.6519C213.379 18.8467 213.169 17.9134 213.169 16.8518C213.169 15.7858 213.379 14.8524 213.797 14.0517C214.22 13.2466 214.82 12.6213 215.598 12.176C216.381 11.7262 217.317 11.5013 218.405 11.5013C219.494 11.5013 220.427 11.7262 221.205 12.176C221.988 12.6213 222.588 13.2466 223.007 14.0517C223.43 14.8524 223.641 15.7858 223.641 16.8518C223.641 17.9134 223.43 18.8467 223.007 19.6519C222.588 20.4526 221.988 21.0778 221.205 21.5276C220.427 21.9729 219.494 22.1956 218.405 22.1956ZM218.425 19.7059C218.821 19.7059 219.156 19.5844 219.431 19.3415C219.705 19.0986 219.914 18.7613 220.058 18.3294C220.207 17.8976 220.281 17.3983 220.281 16.8316C220.281 16.2558 220.207 15.752 220.058 15.3202C219.914 14.8884 219.705 14.551 219.431 14.3081C219.156 14.0652 218.821 13.9438 218.425 13.9438C218.016 13.9438 217.67 14.0652 217.386 14.3081C217.108 14.551 216.894 14.8884 216.745 15.3202C216.601 15.752 216.53 16.2558 216.53 16.8316C216.53 17.3983 216.601 17.8976 216.745 18.3294C216.894 18.7613 217.108 19.0986 217.386 19.3415C217.67 19.5844 218.016 19.7059 218.425 19.7059ZM229.201 16.0894V21.9999H225.901V11.6363H229.039V13.539H229.153C229.383 12.9047 229.774 12.4077 230.327 12.0478C230.881 11.6835 231.54 11.5013 232.304 11.5013C233.033 11.5013 233.665 11.6655 234.2 11.9939C234.74 12.3177 235.158 12.772 235.455 13.3568C235.757 13.937 235.905 14.6163 235.9 15.3944V21.9999H232.601V16.0422C232.606 15.4664 232.459 15.0166 232.163 14.6927C231.87 14.3689 231.463 14.2069 230.941 14.2069C230.595 14.2069 230.289 14.2834 230.024 14.4363C229.763 14.5848 229.56 14.7984 229.416 15.0773C229.277 15.3562 229.205 15.6936 229.201 16.0894ZM243.358 22.1956C242.274 22.1956 241.338 21.9819 240.551 21.5546C239.768 21.1228 239.165 20.5088 238.743 19.7126C238.324 18.912 238.115 17.9606 238.115 16.8586C238.115 15.788 238.327 14.8524 238.749 14.0517C239.172 13.2466 239.768 12.6213 240.537 12.176C241.307 11.7262 242.213 11.5013 243.256 11.5013C243.994 11.5013 244.669 11.616 245.281 11.8454C245.892 12.0748 246.421 12.4144 246.866 12.8642C247.311 13.3141 247.658 13.8696 247.905 14.5308C248.153 15.1875 248.276 15.941 248.276 16.7911V17.6142H239.269V15.6981H245.206C245.202 15.3472 245.119 15.0346 244.957 14.7602C244.795 14.4858 244.572 14.2722 244.289 14.1192C244.01 13.9618 243.688 13.8831 243.324 13.8831C242.955 13.8831 242.624 13.9663 242.332 14.1327C242.04 14.2946 241.808 14.5173 241.637 14.8007C241.466 15.0796 241.376 15.3967 241.367 15.752V17.702C241.367 18.1248 241.45 18.4959 241.617 18.8152C241.783 19.1301 242.019 19.3753 242.325 19.5507C242.631 19.7261 242.996 19.8138 243.418 19.8138C243.711 19.8138 243.976 19.7733 244.215 19.6924C244.453 19.6114 244.658 19.4922 244.829 19.3348C244.999 19.1773 245.128 18.9839 245.213 18.7545L248.243 18.8422C248.117 19.5214 247.84 20.1129 247.413 20.6167C246.99 21.116 246.434 21.5051 245.746 21.784C245.058 22.0584 244.262 22.1956 243.358 22.1956ZM252.271 25.8863C251.875 25.8863 251.501 25.8548 251.15 25.7918C250.8 25.7333 250.498 25.6546 250.246 25.5557L250.975 23.1604C251.299 23.2684 251.591 23.3313 251.852 23.3493C252.118 23.3673 252.345 23.3246 252.534 23.2211C252.727 23.1222 252.876 22.9445 252.979 22.6881L253.107 22.3777L249.423 11.6363H252.878L254.787 19.0311H254.895L256.832 11.6363H260.306L256.4 22.9917C256.211 23.5585 255.943 24.0578 255.597 24.4896C255.255 24.9259 254.812 25.2678 254.268 25.5152C253.728 25.7626 253.062 25.8863 252.271 25.8863Z" fill="#3700B3"/>
<path d="M17.547 49.4204C17.4864 48.8825 17.2364 48.4658 16.797 48.1704C16.3576 47.8711 15.8046 47.7215 15.1379 47.7215C14.6606 47.7215 14.2477 47.7972 13.8992 47.9488C13.5508 48.0965 13.2799 48.301 13.0867 48.5624C12.8974 48.82 12.8027 49.1135 12.8027 49.4431C12.8027 49.7196 12.8671 49.9582 12.9958 50.159C13.1284 50.3597 13.3008 50.5283 13.5129 50.6647C13.7288 50.7972 13.9599 50.909 14.2061 50.9999C14.4523 51.087 14.689 51.159 14.9163 51.2158L16.0527 51.5113C16.4239 51.6022 16.8046 51.7253 17.1947 51.8806C17.5849 52.0359 17.9466 52.2404 18.2799 52.4942C18.6133 52.748 18.8822 53.0624 19.0867 53.4374C19.2951 53.8124 19.3992 54.2613 19.3992 54.784C19.3992 55.4431 19.2288 56.0283 18.8879 56.5397C18.5508 57.051 18.0602 57.4544 17.4163 57.7499C16.7761 58.0454 16.0015 58.1931 15.0924 58.1931C14.2212 58.1931 13.4674 58.0548 12.8311 57.7783C12.1947 57.5018 11.6966 57.1097 11.3367 56.6022C10.9769 56.0908 10.778 55.4847 10.7402 54.784H12.5015C12.5356 55.2044 12.672 55.5548 12.9106 55.8351C13.153 56.1116 13.4617 56.3181 13.8367 56.4544C14.2155 56.587 14.6303 56.6533 15.0811 56.6533C15.5773 56.6533 16.0186 56.5757 16.4049 56.4204C16.7951 56.2613 17.1019 56.0416 17.3254 55.7613C17.5489 55.4772 17.6606 55.1457 17.6606 54.7669C17.6606 54.4222 17.5621 54.1401 17.3652 53.9204C17.172 53.7007 16.9087 53.5188 16.5754 53.3749C16.2458 53.231 15.8727 53.1041 15.4561 52.9942L14.0811 52.6192C13.1492 52.3654 12.4106 51.9923 11.8652 51.4999C11.3235 51.0075 11.0527 50.356 11.0527 49.5454C11.0527 48.8749 11.2345 48.2897 11.5981 47.7897C11.9617 47.2897 12.4542 46.9014 13.0754 46.6249C13.6966 46.3446 14.3974 46.2044 15.1777 46.2044C15.9655 46.2044 16.6606 46.3427 17.2629 46.6192C17.8689 46.8957 18.3462 47.2764 18.6947 47.7613C19.0432 48.2423 19.225 48.7954 19.2402 49.4204H17.547ZM25.1223 58.176C24.2624 58.176 23.5219 57.9923 22.9007 57.6249C22.2832 57.2537 21.806 56.7329 21.4689 56.0624C21.1355 55.3882 20.9689 54.5984 20.9689 53.6931C20.9689 52.7991 21.1355 52.0113 21.4689 51.3294C21.806 50.6476 22.2757 50.1154 22.8779 49.7329C23.484 49.3503 24.1923 49.159 25.0029 49.159C25.4954 49.159 25.9726 49.2404 26.4348 49.4033C26.8969 49.5662 27.3117 49.8219 27.6791 50.1704C28.0465 50.5188 28.3363 50.9715 28.5484 51.5283C28.7605 52.0813 28.8666 52.7537 28.8666 53.5454V54.1476H21.9291V52.8749H27.2018C27.2018 52.4279 27.1109 52.0321 26.9291 51.6874C26.7473 51.3389 26.4916 51.0643 26.162 50.8635C25.8363 50.6628 25.4537 50.5624 25.0143 50.5624C24.537 50.5624 24.1204 50.6798 23.7643 50.9147C23.412 51.1457 23.1393 51.4488 22.9461 51.8238C22.7567 52.195 22.662 52.5984 22.662 53.034V54.0283C22.662 54.6116 22.7643 55.1079 22.9689 55.5169C23.1772 55.926 23.467 56.2385 23.8382 56.4544C24.2094 56.6666 24.6431 56.7726 25.1393 56.7726C25.4613 56.7726 25.7548 56.7272 26.02 56.6363C26.2851 56.5416 26.5143 56.4014 26.7075 56.2158C26.9007 56.0302 27.0484 55.801 27.1507 55.5283L28.7586 55.8181C28.6298 56.2916 28.3988 56.7063 28.0654 57.0624C27.7359 57.4147 27.3211 57.6893 26.8211 57.8863C26.3249 58.0794 25.7586 58.176 25.1223 58.176ZM32.4504 52.8181V57.9999H30.7515V49.2726H32.3822V50.6931H32.4902C32.6909 50.231 33.0053 49.8597 33.4333 49.5794C33.8652 49.2991 34.4087 49.159 35.064 49.159C35.6587 49.159 36.1796 49.284 36.6265 49.534C37.0735 49.7802 37.4201 50.1476 37.6663 50.6363C37.9125 51.1249 38.0356 51.7291 38.0356 52.4488V57.9999H36.3367V52.6533C36.3367 52.0207 36.172 51.5264 35.8424 51.1704C35.5129 50.8105 35.0602 50.6306 34.4845 50.6306C34.0905 50.6306 33.7402 50.7158 33.4333 50.8863C33.1303 51.0567 32.8898 51.3067 32.7117 51.6363C32.5375 51.962 32.4504 52.356 32.4504 52.8181ZM43.5811 58.1704C42.8765 58.1704 42.2477 57.9904 41.6947 57.6306C41.1455 57.2669 40.7136 56.7499 40.3992 56.0794C40.0886 55.4052 39.9333 54.5965 39.9333 53.6533C39.9333 52.7101 40.0905 51.9033 40.4049 51.2329C40.7231 50.5624 41.1587 50.0491 41.7117 49.6931C42.2648 49.337 42.8917 49.159 43.5924 49.159C44.1341 49.159 44.5697 49.2499 44.8992 49.4317C45.2326 49.6097 45.4902 49.8181 45.672 50.0567C45.8576 50.2954 46.0015 50.5056 46.1038 50.6874H46.2061V46.3635H47.9049V57.9999H46.2458V56.6419H46.1038C46.0015 56.8276 45.8538 57.0397 45.6606 57.2783C45.4712 57.5169 45.2099 57.7253 44.8765 57.9033C44.5432 58.0813 44.1114 58.1704 43.5811 58.1704ZM43.9561 56.7215C44.4447 56.7215 44.8576 56.5927 45.1947 56.3351C45.5356 56.0738 45.7932 55.712 45.9674 55.2499C46.1455 54.7878 46.2345 54.2499 46.2345 53.6363C46.2345 53.0302 46.1474 52.4999 45.9731 52.0454C45.7989 51.5908 45.5432 51.2366 45.2061 50.9829C44.8689 50.7291 44.4523 50.6022 43.9561 50.6022C43.4447 50.6022 43.0186 50.7347 42.6777 50.9999C42.3367 51.2651 42.0792 51.6268 41.9049 52.0851C41.7345 52.5435 41.6492 53.0605 41.6492 53.6363C41.6492 54.2196 41.7364 54.7442 41.9106 55.2101C42.0849 55.676 42.3424 56.0454 42.6833 56.3181C43.028 56.587 43.4523 56.7215 43.9561 56.7215ZM57.9504 58.1647C57.1701 58.1647 56.4977 58.0226 55.9333 57.7385C55.3727 57.4544 54.9409 57.0681 54.6379 56.5794C54.3349 56.087 54.1833 55.5302 54.1833 54.909C54.1833 54.4355 54.2818 54.0151 54.4788 53.6476C54.6758 53.2764 54.9504 52.9336 55.3027 52.6192C55.6549 52.3048 56.0621 51.9885 56.5242 51.6704L58.3992 50.3465C58.7174 50.1382 58.9655 49.9185 59.1436 49.6874C59.3216 49.4526 59.4106 49.1628 59.4106 48.8181C59.4106 48.5454 59.2932 48.284 59.0583 48.034C58.8235 47.784 58.5091 47.659 58.1152 47.659C57.8424 47.659 57.6019 47.7253 57.3936 47.8579C57.189 47.9904 57.028 48.1609 56.9106 48.3692C56.797 48.5738 56.7402 48.7897 56.7402 49.0169C56.7402 49.2821 56.8121 49.5491 56.9561 49.8181C57.1038 50.087 57.2932 50.3654 57.5242 50.6533C57.7553 50.9374 57.9977 51.2329 58.2515 51.5397L63.6549 57.9999H61.7345L57.2629 52.7442C56.8879 52.301 56.5394 51.8844 56.2174 51.4942C55.8955 51.1003 55.6341 50.7026 55.4333 50.301C55.2364 49.8957 55.1379 49.4582 55.1379 48.9885C55.1379 48.4544 55.2591 47.981 55.5015 47.5681C55.7477 47.1514 56.0905 46.8257 56.5299 46.5908C56.9693 46.356 57.4845 46.2385 58.0754 46.2385C58.6739 46.2385 59.1871 46.356 59.6152 46.5908C60.047 46.8219 60.3784 47.1306 60.6095 47.5169C60.8443 47.8995 60.9617 48.3181 60.9617 48.7726C60.9617 49.3257 60.8235 49.8143 60.547 50.2385C60.2742 50.659 59.8974 51.0454 59.4163 51.3976L57.0811 53.1192C56.6265 53.4526 56.3102 53.7821 56.1322 54.1079C55.958 54.4298 55.8708 54.6817 55.8708 54.8635C55.8708 55.1969 55.9561 55.5056 56.1265 55.7897C56.3008 56.0738 56.5432 56.301 56.8538 56.4715C57.1682 56.6419 57.5356 56.7272 57.9561 56.7272C58.3879 56.7272 58.8083 56.6344 59.2174 56.4488C59.6303 56.2594 60.0034 55.9885 60.3367 55.6363C60.6739 55.284 60.9409 54.8616 61.1379 54.3692C61.3349 53.8768 61.4333 53.3257 61.4333 52.7158H62.9674C62.9674 53.4658 62.8822 54.1003 62.7117 54.6192C62.5413 55.1344 62.3349 55.5548 62.0924 55.8806C61.8538 56.2026 61.6284 56.4544 61.4163 56.6363C61.3481 56.6969 61.2837 56.7575 61.2231 56.8181C61.1625 56.8787 61.0981 56.9393 61.0299 56.9999C60.636 57.3976 60.1587 57.6912 59.5981 57.8806C59.0413 58.07 58.4921 58.1647 57.9504 58.1647ZM69.2203 57.9999V49.2726H70.8623V50.659H70.9532C71.1123 50.1893 71.3926 49.82 71.7941 49.551C72.1994 49.2783 72.6578 49.1419 73.1691 49.1419C73.2752 49.1419 73.4002 49.1457 73.5441 49.1533C73.6919 49.1609 73.8074 49.1704 73.8907 49.1817V50.8067C73.8225 50.7878 73.7013 50.7669 73.5271 50.7442C73.3528 50.7177 73.1786 50.7044 73.0044 50.7044C72.6028 50.7044 72.2449 50.7897 71.9305 50.9601C71.6199 51.1268 71.3737 51.3597 71.1919 51.659C71.01 51.9544 70.9191 52.2916 70.9191 52.6704V57.9999H69.2203ZM78.8098 58.176C77.9499 58.176 77.2094 57.9923 76.5882 57.6249C75.9707 57.2537 75.4935 56.7329 75.1563 56.0624C74.823 55.3882 74.6563 54.5984 74.6563 53.6931C74.6563 52.7991 74.823 52.0113 75.1563 51.3294C75.4935 50.6476 75.9632 50.1154 76.5654 49.7329C77.1715 49.3503 77.8798 49.159 78.6904 49.159C79.1829 49.159 79.6601 49.2404 80.1223 49.4033C80.5844 49.5662 80.9992 49.8219 81.3666 50.1704C81.734 50.5188 82.0238 50.9715 82.2359 51.5283C82.448 52.0813 82.5541 52.7537 82.5541 53.5454V54.1476H75.6166V52.8749H80.8893C80.8893 52.4279 80.7984 52.0321 80.6166 51.6874C80.4348 51.3389 80.1791 51.0643 79.8495 50.8635C79.5238 50.6628 79.1412 50.5624 78.7018 50.5624C78.2245 50.5624 77.8079 50.6798 77.4518 50.9147C77.0995 51.1457 76.8268 51.4488 76.6336 51.8238C76.4442 52.195 76.3495 52.5984 76.3495 53.034V54.0283C76.3495 54.6116 76.4518 55.1079 76.6563 55.5169C76.8647 55.926 77.1545 56.2385 77.5257 56.4544C77.8969 56.6666 78.3306 56.7726 78.8268 56.7726C79.1488 56.7726 79.4423 56.7272 79.7075 56.6363C79.9726 56.5416 80.2018 56.4014 80.395 56.2158C80.5882 56.0302 80.7359 55.801 80.8382 55.5283L82.4461 55.8181C82.3173 56.2916 82.0863 56.7063 81.7529 57.0624C81.4234 57.4147 81.0086 57.6893 80.5086 57.8863C80.0124 58.0794 79.4461 58.176 78.8098 58.176ZM88.1152 58.176C87.2705 58.176 86.5432 57.9847 85.9333 57.6022C85.3273 57.2158 84.8614 56.6836 84.5356 56.0056C84.2099 55.3276 84.047 54.551 84.047 53.676C84.047 52.7897 84.2136 52.0075 84.547 51.3294C84.8803 50.6476 85.35 50.1154 85.9561 49.7329C86.5621 49.3503 87.2761 49.159 88.0981 49.159C88.761 49.159 89.3519 49.2821 89.8708 49.5283C90.3898 49.7707 90.8083 50.1116 91.1265 50.551C91.4485 50.9904 91.6398 51.5037 91.7004 52.0908H90.047C89.9561 51.6817 89.7477 51.3294 89.422 51.034C89.1 50.7385 88.6682 50.5908 88.1265 50.5908C87.653 50.5908 87.2383 50.7158 86.8822 50.9658C86.5299 51.212 86.2553 51.5643 86.0583 52.0226C85.8614 52.4772 85.7629 53.0151 85.7629 53.6363C85.7629 54.2726 85.8595 54.8219 86.0527 55.284C86.2458 55.7461 86.5186 56.1041 86.8708 56.3579C87.2269 56.6116 87.6455 56.7385 88.1265 56.7385C88.4485 56.7385 88.7402 56.6798 89.0015 56.5624C89.2667 56.4412 89.4883 56.2688 89.6663 56.0454C89.8481 55.8219 89.975 55.5529 90.047 55.2385H91.7004C91.6398 55.8029 91.4561 56.3067 91.1492 56.7499C90.8424 57.1931 90.4314 57.5416 89.9163 57.7954C89.4049 58.0491 88.8046 58.176 88.1152 58.176ZM97.2785 58.176C96.4187 58.176 95.6781 57.9923 95.0569 57.6249C94.4395 57.2537 93.9622 56.7329 93.6251 56.0624C93.2918 55.3882 93.1251 54.5984 93.1251 53.6931C93.1251 52.7991 93.2918 52.0113 93.6251 51.3294C93.9622 50.6476 94.4319 50.1154 95.0342 49.7329C95.6403 49.3503 96.3486 49.159 97.1592 49.159C97.6516 49.159 98.1289 49.2404 98.591 49.4033C99.0531 49.5662 99.4679 49.8219 99.8353 50.1704C100.203 50.5188 100.492 50.9715 100.705 51.5283C100.917 52.0813 101.023 52.7537 101.023 53.5454V54.1476H94.0853V52.8749H99.3581C99.3581 52.4279 99.2671 52.0321 99.0853 51.6874C98.9035 51.3389 98.6478 51.0643 98.3183 50.8635C97.9925 50.6628 97.6099 50.5624 97.1706 50.5624C96.6933 50.5624 96.2766 50.6798 95.9206 50.9147C95.5683 51.1457 95.2956 51.4488 95.1024 51.8238C94.913 52.195 94.8183 52.5984 94.8183 53.034V54.0283C94.8183 54.6116 94.9206 55.1079 95.1251 55.5169C95.3334 55.926 95.6232 56.2385 95.9944 56.4544C96.3656 56.6666 96.7993 56.7726 97.2956 56.7726C97.6175 56.7726 97.9111 56.7272 98.1762 56.6363C98.4414 56.5416 98.6706 56.4014 98.8637 56.2158C99.0569 56.0302 99.2046 55.801 99.3069 55.5283L100.915 55.8181C100.786 56.2916 100.555 56.7063 100.222 57.0624C99.8921 57.4147 99.4774 57.6893 98.9774 57.8863C98.4812 58.0794 97.9149 58.176 97.2785 58.176ZM102.908 57.9999V49.2726H104.607V57.9999H102.908ZM103.766 47.926C103.47 47.926 103.216 47.8276 103.004 47.6306C102.796 47.4298 102.692 47.1912 102.692 46.9147C102.692 46.6344 102.796 46.3957 103.004 46.1988C103.216 45.998 103.47 45.8976 103.766 45.8976C104.061 45.8976 104.313 45.998 104.521 46.1988C104.733 46.3957 104.839 46.6344 104.839 46.9147C104.839 47.1912 104.733 47.4298 104.521 47.6306C104.313 47.8276 104.061 47.926 103.766 47.926ZM114.358 49.2726L111.193 57.9999H109.375L106.205 49.2726H108.028L110.239 55.9885H110.33L112.534 49.2726H114.358ZM119.419 58.176C118.559 58.176 117.819 57.9923 117.197 57.6249C116.58 57.2537 116.103 56.7329 115.766 56.0624C115.432 55.3882 115.266 54.5984 115.266 53.6931C115.266 52.7991 115.432 52.0113 115.766 51.3294C116.103 50.6476 116.572 50.1154 117.175 49.7329C117.781 49.3503 118.489 49.159 119.3 49.159C119.792 49.159 120.269 49.2404 120.732 49.4033C121.194 49.5662 121.608 49.8219 121.976 50.1704C122.343 50.5188 122.633 50.9715 122.845 51.5283C123.057 52.0813 123.163 52.7537 123.163 53.5454V54.1476H116.226V52.8749H121.499C121.499 52.4279 121.408 52.0321 121.226 51.6874C121.044 51.3389 120.788 51.0643 120.459 50.8635C120.133 50.6628 119.75 50.5624 119.311 50.5624C118.834 50.5624 118.417 50.6798 118.061 50.9147C117.709 51.1457 117.436 51.4488 117.243 51.8238C117.054 52.195 116.959 52.5984 116.959 53.034V54.0283C116.959 54.6116 117.061 55.1079 117.266 55.5169C117.474 55.926 117.764 56.2385 118.135 56.4544C118.506 56.6666 118.94 56.7726 119.436 56.7726C119.758 56.7726 120.052 56.7272 120.317 56.6363C120.582 56.5416 120.811 56.4014 121.004 56.2158C121.197 56.0302 121.345 55.801 121.447 55.5283L123.055 55.8181C122.927 56.2916 122.696 56.7063 122.362 57.0624C122.033 57.4147 121.618 57.6893 121.118 57.8863C120.622 58.0794 120.055 58.176 119.419 58.176ZM132.55 58.1704C131.845 58.1704 131.216 57.9904 130.663 57.6306C130.114 57.2669 129.682 56.7499 129.368 56.0794C129.057 55.4052 128.902 54.5965 128.902 53.6533C128.902 52.7101 129.059 51.9033 129.374 51.2329C129.692 50.5624 130.127 50.0491 130.68 49.6931C131.233 49.337 131.86 49.159 132.561 49.159C133.103 49.159 133.538 49.2499 133.868 49.4317C134.201 49.6097 134.459 49.8181 134.641 50.0567C134.826 50.2954 134.97 50.5056 135.072 50.6874H135.175V46.3635H136.874V57.9999H135.214V56.6419H135.072C134.97 56.8276 134.822 57.0397 134.629 57.2783C134.44 57.5169 134.179 57.7253 133.845 57.9033C133.512 58.0813 133.08 58.1704 132.55 58.1704ZM132.925 56.7215C133.413 56.7215 133.826 56.5927 134.163 56.3351C134.504 56.0738 134.762 55.712 134.936 55.2499C135.114 54.7878 135.203 54.2499 135.203 53.6363C135.203 53.0302 135.116 52.4999 134.942 52.0454C134.768 51.5908 134.512 51.2366 134.175 50.9829C133.838 50.7291 133.421 50.6022 132.925 50.6022C132.413 50.6022 131.987 50.7347 131.646 50.9999C131.305 51.2651 131.048 51.6268 130.874 52.0851C130.703 52.5435 130.618 53.0605 130.618 53.6363C130.618 54.2196 130.705 54.7442 130.879 55.2101C131.054 55.676 131.311 56.0454 131.652 56.3181C131.997 56.587 132.421 56.7215 132.925 56.7215ZM139.298 57.9999V49.2726H140.997V57.9999H139.298ZM140.156 47.926C139.861 47.926 139.607 47.8276 139.395 47.6306C139.187 47.4298 139.082 47.1912 139.082 46.9147C139.082 46.6344 139.187 46.3957 139.395 46.1988C139.607 45.998 139.861 45.8976 140.156 45.8976C140.452 45.8976 140.704 45.998 140.912 46.1988C141.124 46.3957 141.23 46.6344 141.23 46.9147C141.23 47.1912 141.124 47.4298 140.912 47.6306C140.704 47.8276 140.452 47.926 140.156 47.926ZM146.942 61.4544C146.249 61.4544 145.652 61.3635 145.152 61.1817C144.656 60.9999 144.25 60.7594 143.936 60.4601C143.622 60.1609 143.387 59.8332 143.232 59.4772L144.692 58.8749C144.794 59.0416 144.93 59.2177 145.101 59.4033C145.275 59.5927 145.51 59.7537 145.805 59.8863C146.105 60.0188 146.489 60.0851 146.959 60.0851C147.603 60.0851 148.135 59.9279 148.555 59.6135C148.976 59.3029 149.186 58.8067 149.186 58.1249V56.409H149.078C148.976 56.5946 148.828 56.801 148.635 57.0283C148.446 57.2556 148.184 57.4526 147.851 57.6192C147.518 57.7859 147.084 57.8692 146.55 57.8692C145.86 57.8692 145.239 57.7082 144.686 57.3863C144.137 57.0605 143.701 56.5813 143.379 55.9488C143.061 55.3124 142.902 54.5302 142.902 53.6022C142.902 52.6741 143.059 51.8787 143.374 51.2158C143.692 50.5529 144.127 50.0454 144.68 49.6931C145.233 49.337 145.86 49.159 146.561 49.159C147.103 49.159 147.54 49.2499 147.874 49.4317C148.207 49.6097 148.466 49.8181 148.652 50.0567C148.841 50.2954 148.987 50.5056 149.089 50.6874H149.214V49.2726H150.879V58.1931C150.879 58.9431 150.705 59.5586 150.357 60.0397C150.008 60.5207 149.536 60.8768 148.942 61.1079C148.351 61.3389 147.684 61.4544 146.942 61.4544ZM146.925 56.4601C147.413 56.4601 147.826 56.3465 148.163 56.1192C148.504 55.8882 148.762 55.5586 148.936 55.1306C149.114 54.6988 149.203 54.1817 149.203 53.5794C149.203 52.9923 149.116 52.4753 148.942 52.0283C148.768 51.5813 148.512 51.2329 148.175 50.9829C147.838 50.7291 147.421 50.6022 146.925 50.6022C146.413 50.6022 145.987 50.7347 145.646 50.9999C145.305 51.2613 145.048 51.6173 144.874 52.0681C144.703 52.5188 144.618 53.0226 144.618 53.5794C144.618 54.1514 144.705 54.6533 144.879 55.0851C145.054 55.5169 145.311 55.8541 145.652 56.0965C145.997 56.3389 146.421 56.4601 146.925 56.4601ZM153.158 57.9999V49.2726H154.857V57.9999H153.158ZM154.016 47.926C153.72 47.926 153.466 47.8276 153.254 47.6306C153.046 47.4298 152.942 47.1912 152.942 46.9147C152.942 46.6344 153.046 46.3957 153.254 46.1988C153.466 45.998 153.72 45.8976 154.016 45.8976C154.311 45.8976 154.563 45.998 154.771 46.1988C154.983 46.3957 155.089 46.6344 155.089 46.9147C155.089 47.1912 154.983 47.4298 154.771 47.6306C154.563 47.8276 154.311 47.926 154.016 47.926ZM161.216 49.2726V50.6363H156.449V49.2726H161.216ZM157.727 47.1817H159.426V55.4374C159.426 55.7669 159.475 56.0151 159.574 56.1817C159.672 56.3446 159.799 56.4563 159.955 56.5169C160.114 56.5738 160.286 56.6022 160.472 56.6022C160.608 56.6022 160.727 56.5927 160.83 56.5738C160.932 56.5548 161.011 56.5397 161.068 56.5283L161.375 57.9317C161.277 57.9696 161.136 58.0075 160.955 58.0454C160.773 58.087 160.545 58.1097 160.273 58.1135C159.826 58.1211 159.409 58.0416 159.023 57.8749C158.636 57.7082 158.324 57.4507 158.085 57.1022C157.847 56.7537 157.727 56.3162 157.727 55.7897V47.1817ZM165.635 58.1931C165.082 58.1931 164.582 58.0908 164.135 57.8863C163.688 57.6779 163.334 57.3768 163.072 56.9829C162.815 56.5889 162.686 56.106 162.686 55.534C162.686 55.0416 162.781 54.6363 162.97 54.3181C163.16 53.9999 163.415 53.748 163.737 53.5624C164.059 53.3768 164.419 53.2366 164.817 53.1419C165.214 53.0472 165.62 52.9753 166.033 52.926C166.555 52.8654 166.98 52.8162 167.305 52.7783C167.631 52.7366 167.868 52.6704 168.016 52.5794C168.163 52.4885 168.237 52.3408 168.237 52.1363V52.0965C168.237 51.6003 168.097 51.2158 167.817 50.9431C167.54 50.6704 167.127 50.534 166.578 50.534C166.006 50.534 165.555 50.6609 165.226 50.9147C164.9 51.1647 164.675 51.4431 164.55 51.7499L162.953 51.3863C163.143 50.856 163.419 50.4279 163.783 50.1022C164.15 49.7726 164.572 49.534 165.05 49.3863C165.527 49.2347 166.029 49.159 166.555 49.159C166.904 49.159 167.273 49.2007 167.663 49.284C168.057 49.3635 168.425 49.5113 168.766 49.7272C169.11 49.9431 169.393 50.2518 169.612 50.6533C169.832 51.051 169.942 51.5681 169.942 52.2044V57.9999H168.283V56.8067H168.214C168.105 57.0264 167.94 57.2423 167.72 57.4544C167.5 57.6666 167.218 57.8427 166.874 57.9829C166.529 58.123 166.116 58.1931 165.635 58.1931ZM166.004 56.8294C166.474 56.8294 166.875 56.7366 167.209 56.551C167.546 56.3654 167.802 56.123 167.976 55.8238C168.154 55.5207 168.243 55.1969 168.243 54.8522V53.7272C168.182 53.7878 168.065 53.8446 167.891 53.8976C167.72 53.9469 167.525 53.9904 167.305 54.0283C167.086 54.0624 166.872 54.0946 166.663 54.1249C166.455 54.1514 166.281 54.1741 166.141 54.1931C165.811 54.2347 165.51 54.3048 165.237 54.4033C164.968 54.5018 164.752 54.6438 164.589 54.8294C164.43 55.0113 164.351 55.2537 164.351 55.5567C164.351 55.9772 164.506 56.2954 164.817 56.5113C165.127 56.7234 165.523 56.8294 166.004 56.8294ZM173.903 46.3635V57.9999H172.205V46.3635H173.903ZM182.963 58.1931C182.41 58.1931 181.91 58.0908 181.463 57.8863C181.016 57.6779 180.662 57.3768 180.401 56.9829C180.143 56.5889 180.014 56.106 180.014 55.534C180.014 55.0416 180.109 54.6363 180.298 54.3181C180.488 53.9999 180.743 53.748 181.065 53.5624C181.387 53.3768 181.747 53.2366 182.145 53.1419C182.543 53.0472 182.948 52.9753 183.361 52.926C183.884 52.8654 184.308 52.8162 184.634 52.7783C184.959 52.7366 185.196 52.6704 185.344 52.5794C185.491 52.4885 185.565 52.3408 185.565 52.1363V52.0965C185.565 51.6003 185.425 51.2158 185.145 50.9431C184.868 50.6704 184.455 50.534 183.906 50.534C183.334 50.534 182.884 50.6609 182.554 50.9147C182.228 51.1647 182.003 51.4431 181.878 51.7499L180.281 51.3863C180.471 50.856 180.747 50.4279 181.111 50.1022C181.478 49.7726 181.901 49.534 182.378 49.3863C182.855 49.2347 183.357 49.159 183.884 49.159C184.232 49.159 184.601 49.2007 184.991 49.284C185.385 49.3635 185.753 49.5113 186.094 49.7272C186.438 49.9431 186.721 50.2518 186.94 50.6533C187.16 51.051 187.27 51.5681 187.27 52.2044V57.9999H185.611V56.8067H185.543C185.433 57.0264 185.268 57.2423 185.048 57.4544C184.829 57.6666 184.546 57.8427 184.202 57.9829C183.857 58.123 183.444 58.1931 182.963 58.1931ZM183.332 56.8294C183.802 56.8294 184.204 56.7366 184.537 56.551C184.874 56.3654 185.13 56.123 185.304 55.8238C185.482 55.5207 185.571 55.1969 185.571 54.8522V53.7272C185.51 53.7878 185.393 53.8446 185.219 53.8976C185.048 53.9469 184.853 53.9904 184.634 54.0283C184.414 54.0624 184.2 54.0946 183.991 54.1249C183.783 54.1514 183.609 54.1741 183.469 54.1931C183.139 54.2347 182.838 54.3048 182.565 54.4033C182.296 54.5018 182.08 54.6438 181.918 54.8294C181.759 55.0113 181.679 55.2537 181.679 55.5567C181.679 55.9772 181.834 56.2954 182.145 56.5113C182.455 56.7234 182.851 56.8294 183.332 56.8294ZM196.072 51.4033L194.533 51.676C194.468 51.4791 194.366 51.2916 194.226 51.1135C194.089 50.9355 193.904 50.7897 193.669 50.676C193.434 50.5624 193.141 50.5056 192.788 50.5056C192.307 50.5056 191.906 50.6135 191.584 50.8294C191.262 51.0416 191.101 51.3162 191.101 51.6533C191.101 51.945 191.209 52.1798 191.425 52.3579C191.641 52.5359 191.989 52.6817 192.47 52.7954L193.857 53.1135C194.66 53.2991 195.258 53.5851 195.652 53.9715C196.046 54.3579 196.243 54.8597 196.243 55.4772C196.243 55.9999 196.091 56.4658 195.788 56.8749C195.489 57.2802 195.071 57.5984 194.533 57.8294C193.999 58.0605 193.379 58.176 192.675 58.176C191.697 58.176 190.9 57.9677 190.283 57.551C189.665 57.1306 189.286 56.534 189.146 55.7613L190.788 55.5113C190.891 55.9393 191.101 56.2632 191.419 56.4829C191.737 56.6988 192.152 56.8067 192.663 56.8067C193.22 56.8067 193.665 56.6912 193.999 56.4601C194.332 56.2253 194.499 55.9393 194.499 55.6022C194.499 55.3294 194.396 55.1003 194.192 54.9147C193.991 54.7291 193.682 54.5889 193.266 54.4942L191.788 54.1704C190.974 53.9847 190.372 53.6893 189.982 53.284C189.595 52.8787 189.402 52.3654 189.402 51.7442C189.402 51.2291 189.546 50.7783 189.834 50.3919C190.122 50.0056 190.519 49.7044 191.027 49.4885C191.535 49.2688 192.116 49.159 192.771 49.159C193.714 49.159 194.457 49.3635 194.999 49.7726C195.54 50.1779 195.898 50.7215 196.072 51.4033ZM204.651 51.4033L203.111 51.676C203.046 51.4791 202.944 51.2916 202.804 51.1135C202.668 50.9355 202.482 50.7897 202.247 50.676C202.012 50.5624 201.719 50.5056 201.366 50.5056C200.885 50.5056 200.484 50.6135 200.162 50.8294C199.84 51.0416 199.679 51.3162 199.679 51.6533C199.679 51.945 199.787 52.1798 200.003 52.3579C200.219 52.5359 200.567 52.6817 201.048 52.7954L202.435 53.1135C203.238 53.2991 203.836 53.5851 204.23 53.9715C204.624 54.3579 204.821 54.8597 204.821 55.4772C204.821 55.9999 204.67 56.4658 204.366 56.8749C204.067 57.2802 203.649 57.5984 203.111 57.8294C202.577 58.0605 201.957 58.176 201.253 58.176C200.276 58.176 199.478 57.9677 198.861 57.551C198.243 57.1306 197.865 56.534 197.724 55.7613L199.366 55.5113C199.469 55.9393 199.679 56.2632 199.997 56.4829C200.315 56.6988 200.73 56.8067 201.241 56.8067C201.798 56.8067 202.243 56.6912 202.577 56.4601C202.91 56.2253 203.077 55.9393 203.077 55.6022C203.077 55.3294 202.974 55.1003 202.77 54.9147C202.569 54.7291 202.26 54.5889 201.844 54.4942L200.366 54.1704C199.552 53.9847 198.95 53.6893 198.56 53.284C198.173 52.8787 197.98 52.3654 197.98 51.7442C197.98 51.2291 198.124 50.7783 198.412 50.3919C198.7 50.0056 199.098 49.7044 199.605 49.4885C200.113 49.2688 200.694 49.159 201.349 49.159C202.293 49.159 203.035 49.3635 203.577 49.7726C204.118 50.1779 204.476 50.7215 204.651 51.4033ZM210.45 58.176C209.59 58.176 208.85 57.9923 208.229 57.6249C207.611 57.2537 207.134 56.7329 206.797 56.0624C206.464 55.3882 206.297 54.5984 206.297 53.6931C206.297 52.7991 206.464 52.0113 206.797 51.3294C207.134 50.6476 207.604 50.1154 208.206 49.7329C208.812 49.3503 209.52 49.159 210.331 49.159C210.823 49.159 211.301 49.2404 211.763 49.4033C212.225 49.5662 212.64 49.8219 213.007 50.1704C213.375 50.5188 213.664 50.9715 213.876 51.5283C214.089 52.0813 214.195 52.7537 214.195 53.5454V54.1476H207.257V52.8749H212.53C212.53 52.4279 212.439 52.0321 212.257 51.6874C212.075 51.3389 211.82 51.0643 211.49 50.8635C211.164 50.6628 210.782 50.5624 210.342 50.5624C209.865 50.5624 209.448 50.6798 209.092 50.9147C208.74 51.1457 208.467 51.4488 208.274 51.8238C208.085 52.195 207.99 52.5984 207.99 53.034V54.0283C207.99 54.6116 208.092 55.1079 208.297 55.5169C208.505 55.926 208.795 56.2385 209.166 56.4544C209.537 56.6666 209.971 56.7726 210.467 56.7726C210.789 56.7726 211.083 56.7272 211.348 56.6363C211.613 56.5416 211.842 56.4014 212.036 56.2158C212.229 56.0302 212.376 55.801 212.479 55.5283L214.087 55.8181C213.958 56.2916 213.727 56.7063 213.393 57.0624C213.064 57.4147 212.649 57.6893 212.149 57.8863C211.653 58.0794 211.087 58.176 210.45 58.176ZM220.153 49.2726V50.6363H215.386V49.2726H220.153ZM216.665 47.1817H218.364V55.4374C218.364 55.7669 218.413 56.0151 218.511 56.1817C218.61 56.3446 218.737 56.4563 218.892 56.5169C219.051 56.5738 219.223 56.6022 219.409 56.6022C219.545 56.6022 219.665 56.5927 219.767 56.5738C219.869 56.5548 219.949 56.5397 220.006 56.5283L220.312 57.9317C220.214 57.9696 220.074 58.0075 219.892 58.0454C219.71 58.087 219.483 58.1097 219.21 58.1135C218.763 58.1211 218.347 58.0416 217.96 57.8749C217.574 57.7082 217.261 57.4507 217.023 57.1022C216.784 56.7537 216.665 56.3162 216.665 55.7897V47.1817ZM228.432 51.4033L226.892 51.676C226.828 51.4791 226.725 51.2916 226.585 51.1135C226.449 50.9355 226.263 50.7897 226.028 50.676C225.794 50.5624 225.5 50.5056 225.148 50.5056C224.667 50.5056 224.265 50.6135 223.943 50.8294C223.621 51.0416 223.46 51.3162 223.46 51.6533C223.46 51.945 223.568 52.1798 223.784 52.3579C224 52.5359 224.348 52.6817 224.83 52.7954L226.216 53.1135C227.019 53.2991 227.617 53.5851 228.011 53.9715C228.405 54.3579 228.602 54.8597 228.602 55.4772C228.602 55.9999 228.451 56.4658 228.148 56.8749C227.848 57.2802 227.43 57.5984 226.892 57.8294C226.358 58.0605 225.739 58.176 225.034 58.176C224.057 58.176 223.259 57.9677 222.642 57.551C222.025 57.1306 221.646 56.534 221.506 55.7613L223.148 55.5113C223.25 55.9393 223.46 56.2632 223.778 56.4829C224.097 56.6988 224.511 56.8067 225.023 56.8067C225.58 56.8067 226.025 56.6912 226.358 56.4601C226.691 56.2253 226.858 55.9393 226.858 55.6022C226.858 55.3294 226.756 55.1003 226.551 54.9147C226.35 54.7291 226.042 54.5889 225.625 54.4942L224.148 54.1704C223.333 53.9847 222.731 53.6893 222.341 53.284C221.955 52.8787 221.761 52.3654 221.761 51.7442C221.761 51.2291 221.905 50.7783 222.193 50.3919C222.481 50.0056 222.879 49.7044 223.386 49.4885C223.894 49.2688 224.475 49.159 225.131 49.159C226.074 49.159 226.816 49.3635 227.358 49.7726C227.9 50.1779 228.258 50.7215 228.432 51.4033ZM238.858 49.2726V50.6363H233.926V49.2726H238.858ZM235.278 57.9999V48.2613C235.278 47.7158 235.398 47.2632 235.636 46.9033C235.875 46.5397 236.191 46.2688 236.585 46.0908C236.979 45.909 237.407 45.8181 237.869 45.8181C238.21 45.8181 238.502 45.8465 238.744 45.9033C238.987 45.9563 239.167 46.0056 239.284 46.051L238.886 47.426C238.807 47.4033 238.705 47.3768 238.58 47.3465C238.455 47.3124 238.303 47.2954 238.125 47.2954C237.712 47.2954 237.417 47.3976 237.239 47.6022C237.064 47.8067 236.977 48.1022 236.977 48.4885V57.9999H235.278ZM240.611 57.9999V49.2726H242.253V50.659H242.344C242.503 50.1893 242.783 49.82 243.185 49.551C243.59 49.2783 244.048 49.1419 244.56 49.1419C244.666 49.1419 244.791 49.1457 244.935 49.1533C245.082 49.1609 245.198 49.1704 245.281 49.1817V50.8067C245.213 50.7878 245.092 50.7669 244.918 50.7442C244.743 50.7177 244.569 50.7044 244.395 50.7044C243.993 50.7044 243.635 50.7897 243.321 50.9601C243.01 51.1268 242.764 51.3597 242.582 51.659C242.401 51.9544 242.31 52.2916 242.31 52.6704V57.9999H240.611ZM250.115 58.176C249.297 58.176 248.583 57.9885 247.973 57.6135C247.363 57.2385 246.89 56.7139 246.553 56.0397C246.215 55.3654 246.047 54.5776 246.047 53.676C246.047 52.7707 246.215 51.9791 246.553 51.301C246.89 50.623 247.363 50.0965 247.973 49.7215C248.583 49.3465 249.297 49.159 250.115 49.159C250.933 49.159 251.647 49.3465 252.257 49.7215C252.867 50.0965 253.34 50.623 253.678 51.301C254.015 51.9791 254.183 52.7707 254.183 53.676C254.183 54.5776 254.015 55.3654 253.678 56.0397C253.34 56.7139 252.867 57.2385 252.257 57.6135C251.647 57.9885 250.933 58.176 250.115 58.176ZM250.121 56.7499C250.651 56.7499 251.09 56.6097 251.439 56.3294C251.787 56.0491 252.045 55.676 252.212 55.2101C252.382 54.7442 252.467 54.231 252.467 53.6704C252.467 53.1135 252.382 52.6022 252.212 52.1363C252.045 51.6666 251.787 51.2897 251.439 51.0056C251.09 50.7215 250.651 50.5794 250.121 50.5794C249.587 50.5794 249.143 50.7215 248.791 51.0056C248.443 51.2897 248.183 51.6666 248.013 52.1363C247.846 52.6022 247.763 53.1135 247.763 53.6704C247.763 54.231 247.846 54.7442 248.013 55.2101C248.183 55.676 248.443 56.0491 248.791 56.3294C249.143 56.6097 249.587 56.7499 250.121 56.7499ZM256.08 57.9999V49.2726H257.71V50.6931H257.818C258 50.212 258.297 49.837 258.71 49.5681C259.123 49.2954 259.617 49.159 260.193 49.159C260.777 49.159 261.265 49.2954 261.659 49.5681C262.057 49.8408 262.35 50.2158 262.54 50.6931H262.631C262.839 50.2272 263.17 49.856 263.625 49.5794C264.08 49.2991 264.621 49.159 265.25 49.159C266.042 49.159 266.688 49.4071 267.188 49.9033C267.691 50.3995 267.943 51.1476 267.943 52.1476V57.9999H266.244V52.3067C266.244 51.7158 266.083 51.2878 265.761 51.0226C265.439 50.7575 265.055 50.6249 264.608 50.6249C264.055 50.6249 263.625 50.7954 263.318 51.1363C263.011 51.4734 262.858 51.9071 262.858 52.4374V57.9999H261.165V52.1988C261.165 51.7253 261.017 51.3446 260.722 51.0567C260.426 50.7688 260.042 50.6249 259.568 50.6249C259.246 50.6249 258.949 50.7101 258.676 50.8806C258.407 51.0472 258.189 51.2802 258.023 51.5794C257.86 51.8787 257.778 52.2253 257.778 52.6192V57.9999H256.08ZM16.1507 86.1931C15.5976 86.1931 15.0976 86.0908 14.6507 85.8863C14.2037 85.6779 13.8495 85.3768 13.5882 84.9829C13.3306 84.5889 13.2018 84.106 13.2018 83.534C13.2018 83.0416 13.2965 82.6363 13.4859 82.3181C13.6753 81.9999 13.931 81.748 14.2529 81.5624C14.5749 81.3768 14.9348 81.2366 15.3325 81.1419C15.7302 81.0472 16.1355 80.9753 16.5484 80.926C17.0711 80.8654 17.4954 80.8162 17.8211 80.7783C18.1469 80.7366 18.3836 80.6704 18.5313 80.5794C18.6791 80.4885 18.7529 80.3408 18.7529 80.1363V80.0965C18.7529 79.6003 18.6128 79.2158 18.3325 78.9431C18.056 78.6704 17.6431 78.534 17.0939 78.534C16.5219 78.534 16.0711 78.6609 15.7416 78.9147C15.4158 79.1647 15.1904 79.4431 15.0654 79.7499L13.4689 79.3863C13.6582 78.856 13.9348 78.4279 14.2984 78.1022C14.6658 77.7726 15.0882 77.534 15.5654 77.3863C16.0427 77.2347 16.5446 77.159 17.0711 77.159C17.4196 77.159 17.7889 77.2007 18.1791 77.284C18.573 77.3635 18.9404 77.5113 19.2813 77.7272C19.626 77.9431 19.9082 78.2518 20.1279 78.6533C20.3476 79.051 20.4575 79.5681 20.4575 80.2044V85.9999H18.7984V84.8067H18.7302C18.6204 85.0264 18.4556 85.2423 18.2359 85.4544C18.0162 85.6666 17.734 85.8427 17.3893 85.9829C17.0446 86.123 16.6317 86.1931 16.1507 86.1931ZM16.52 84.8294C16.9897 84.8294 17.3912 84.7366 17.7245 84.551C18.0617 84.3654 18.3173 84.123 18.4916 83.8238C18.6696 83.5207 18.7586 83.1969 18.7586 82.8522V81.7272C18.698 81.7878 18.5806 81.8446 18.4063 81.8976C18.2359 81.9469 18.0408 81.9904 17.8211 82.0283C17.6014 82.0624 17.3874 82.0946 17.1791 82.1249C16.9707 82.1514 16.7965 82.1741 16.6563 82.1931C16.3268 82.2347 16.0257 82.3048 15.7529 82.4033C15.484 82.5018 15.2681 82.6438 15.1052 82.8294C14.9461 83.0113 14.8666 83.2537 14.8666 83.5567C14.8666 83.9772 15.0219 84.2954 15.3325 84.5113C15.6431 84.7234 16.0389 84.8294 16.52 84.8294ZM24.4191 80.8181V85.9999H22.7203V77.2726H24.351V78.6931H24.4589C24.6597 78.231 24.9741 77.8597 25.4021 77.5794C25.8339 77.2991 26.3775 77.159 27.0328 77.159C27.6275 77.159 28.1483 77.284 28.5953 77.534C29.0422 77.7802 29.3888 78.1476 29.635 78.6363C29.8813 79.1249 30.0044 79.7291 30.0044 80.4488V85.9999H28.3055V80.6533C28.3055 80.0207 28.1407 79.5264 27.8112 79.1704C27.4816 78.8105 27.029 78.6306 26.4532 78.6306C26.0593 78.6306 25.7089 78.7158 25.4021 78.8863C25.0991 79.0567 24.8585 79.3067 24.6805 79.6363C24.5063 79.962 24.4191 80.356 24.4191 80.8181ZM33.0441 89.2726C32.7903 89.2726 32.5593 89.2518 32.351 89.2101C32.1426 89.1722 31.9873 89.1306 31.885 89.0851L32.2941 87.6931C32.6047 87.7764 32.8813 87.8124 33.1237 87.801C33.3661 87.7897 33.5801 87.6988 33.7657 87.5283C33.9551 87.3579 34.1218 87.0794 34.2657 86.6931L34.476 86.1135L31.2828 77.2726H33.101L35.3112 84.0454H35.4021L37.6123 77.2726H39.4362L35.8396 87.1647C35.6729 87.6192 35.4608 88.0037 35.2032 88.3181C34.9456 88.6363 34.6388 88.8749 34.2828 89.034C33.9267 89.1931 33.5138 89.2726 33.0441 89.2726ZM44.412 86.176C43.5939 86.176 42.8798 85.9885 42.27 85.6135C41.6601 85.2385 41.1867 84.7139 40.8495 84.0397C40.5124 83.3654 40.3439 82.5776 40.3439 81.676C40.3439 80.7707 40.5124 79.9791 40.8495 79.301C41.1867 78.623 41.6601 78.0965 42.27 77.7215C42.8798 77.3465 43.5939 77.159 44.412 77.159C45.2302 77.159 45.9442 77.3465 46.5541 77.7215C47.1639 78.0965 47.6374 78.623 47.9745 79.301C48.3117 79.9791 48.4802 80.7707 48.4802 81.676C48.4802 82.5776 48.3117 83.3654 47.9745 84.0397C47.6374 84.7139 47.1639 85.2385 46.5541 85.6135C45.9442 85.9885 45.2302 86.176 44.412 86.176ZM44.4177 84.7499C44.948 84.7499 45.3874 84.6097 45.7359 84.3294C46.0844 84.0491 46.342 83.676 46.5086 83.2101C46.6791 82.7442 46.7643 82.231 46.7643 81.6704C46.7643 81.1135 46.6791 80.6022 46.5086 80.1363C46.342 79.6666 46.0844 79.2897 45.7359 79.0056C45.3874 78.7215 44.948 78.5794 44.4177 78.5794C43.8836 78.5794 43.4404 78.7215 43.0882 79.0056C42.7397 79.2897 42.4802 79.6666 42.3098 80.1363C42.1431 80.6022 42.0598 81.1135 42.0598 81.6704C42.0598 82.231 42.1431 82.7442 42.3098 83.2101C42.4802 83.676 42.7397 84.0491 43.0882 84.3294C43.4404 84.6097 43.8836 84.7499 44.4177 84.7499ZM52.0754 80.8181V85.9999H50.3765V77.2726H52.0072V78.6931H52.1152C52.3159 78.231 52.6303 77.8597 53.0583 77.5794C53.4902 77.2991 54.0337 77.159 54.689 77.159C55.2837 77.159 55.8046 77.284 56.2515 77.534C56.6985 77.7802 57.0451 78.1476 57.2913 78.6363C57.5375 79.1249 57.6606 79.7291 57.6606 80.4488V85.9999H55.9617V80.6533C55.9617 80.0207 55.797 79.5264 55.4674 79.1704C55.1379 78.8105 54.6852 78.6306 54.1095 78.6306C53.7155 78.6306 53.3652 78.7158 53.0583 78.8863C52.7553 79.0567 52.5148 79.3067 52.3367 79.6363C52.1625 79.962 52.0754 80.356 52.0754 80.8181ZM63.7004 86.176C62.8405 86.176 62.1 85.9923 61.4788 85.6249C60.8614 85.2537 60.3841 84.7329 60.047 84.0624C59.7136 83.3882 59.547 82.5984 59.547 81.6931C59.547 80.7991 59.7136 80.0113 60.047 79.3294C60.3841 78.6476 60.8538 78.1154 61.4561 77.7329C62.0621 77.3503 62.7705 77.159 63.5811 77.159C64.0735 77.159 64.5508 77.2404 65.0129 77.4033C65.475 77.5662 65.8898 77.8219 66.2572 78.1704C66.6246 78.5188 66.9144 78.9715 67.1265 79.5283C67.3386 80.0813 67.4447 80.7537 67.4447 81.5454V82.1476H60.5072V80.8749H65.7799C65.7799 80.4279 65.689 80.0321 65.5072 79.6874C65.3254 79.3389 65.0697 79.0643 64.7402 78.8635C64.4144 78.6628 64.0318 78.5624 63.5924 78.5624C63.1152 78.5624 62.6985 78.6798 62.3424 78.9147C61.9902 79.1457 61.7174 79.4488 61.5242 79.8238C61.3349 80.195 61.2402 80.5984 61.2402 81.034V82.0283C61.2402 82.6116 61.3424 83.1079 61.547 83.5169C61.7553 83.926 62.0451 84.2385 62.4163 84.4544C62.7875 84.6666 63.2212 84.7726 63.7174 84.7726C64.0394 84.7726 64.333 84.7272 64.5981 84.6363C64.8633 84.5416 65.0924 84.4014 65.2856 84.2158C65.4788 84.0302 65.6265 83.801 65.7288 83.5283L67.3367 83.8181C67.208 84.2916 66.9769 84.7063 66.6436 85.0624C66.314 85.4147 65.8992 85.6893 65.3992 85.8863C64.903 86.0794 64.3367 86.176 63.7004 86.176ZM71.5399 84.409L71.4546 85.0283C71.3978 85.4829 71.3012 85.9563 71.1649 86.4488C71.0323 86.945 70.894 87.4052 70.7501 87.8294C70.6099 88.2537 70.4944 88.5908 70.4035 88.8408H69.199C69.2482 88.606 69.3164 88.2878 69.4035 87.8863C69.4906 87.4885 69.5759 87.0435 69.6592 86.551C69.7425 86.0586 69.805 85.5567 69.8467 85.0454L69.9035 84.409H71.5399ZM80.5257 86.1931C79.9726 86.1931 79.4726 86.0908 79.0257 85.8863C78.5787 85.6779 78.2245 85.3768 77.9632 84.9829C77.7056 84.5889 77.5768 84.106 77.5768 83.534C77.5768 83.0416 77.6715 82.6363 77.8609 82.3181C78.0503 81.9999 78.306 81.748 78.6279 81.5624C78.9499 81.3768 79.3098 81.2366 79.7075 81.1419C80.1052 81.0472 80.5105 80.9753 80.9234 80.926C81.4461 80.8654 81.8704 80.8162 82.1961 80.7783C82.5219 80.7366 82.7586 80.6704 82.9063 80.5794C83.0541 80.4885 83.1279 80.3408 83.1279 80.1363V80.0965C83.1279 79.6003 82.9878 79.2158 82.7075 78.9431C82.431 78.6704 82.0181 78.534 81.4689 78.534C80.8969 78.534 80.4461 78.6609 80.1166 78.9147C79.7908 79.1647 79.5654 79.4431 79.4404 79.7499L77.8439 79.3863C78.0332 78.856 78.3098 78.4279 78.6734 78.1022C79.0408 77.7726 79.4632 77.534 79.9404 77.3863C80.4177 77.2347 80.9196 77.159 81.4461 77.159C81.7946 77.159 82.1639 77.2007 82.5541 77.284C82.948 77.3635 83.3154 77.5113 83.6563 77.7272C84.001 77.9431 84.2832 78.2518 84.5029 78.6533C84.7226 79.051 84.8325 79.5681 84.8325 80.2044V85.9999H83.1734V84.8067H83.1052C82.9954 85.0264 82.8306 85.2423 82.6109 85.4544C82.3912 85.6666 82.109 85.8427 81.7643 85.9829C81.4196 86.123 81.0067 86.1931 80.5257 86.1931ZM80.895 84.8294C81.3647 84.8294 81.7662 84.7366 82.0995 84.551C82.4367 84.3654 82.6923 84.123 82.8666 83.8238C83.0446 83.5207 83.1336 83.1969 83.1336 82.8522V81.7272C83.073 81.7878 82.9556 81.8446 82.7813 81.8976C82.6109 81.9469 82.4158 81.9904 82.1961 82.0283C81.9764 82.0624 81.7624 82.0946 81.5541 82.1249C81.3457 82.1514 81.1715 82.1741 81.0313 82.1931C80.7018 82.2347 80.4007 82.3048 80.1279 82.4033C79.859 82.5018 79.6431 82.6438 79.4802 82.8294C79.3211 83.0113 79.2416 83.2537 79.2416 83.5567C79.2416 83.9772 79.3969 84.2954 79.7075 84.5113C80.0181 84.7234 80.4139 84.8294 80.895 84.8294ZM88.7941 80.8181V85.9999H87.0953V77.2726H88.726V78.6931H88.8339C89.0347 78.231 89.3491 77.8597 89.7771 77.5794C90.2089 77.2991 90.7525 77.159 91.4078 77.159C92.0025 77.159 92.5233 77.284 92.9703 77.534C93.4172 77.7802 93.7638 78.1476 94.01 78.6363C94.2563 79.1249 94.3794 79.7291 94.3794 80.4488V85.9999H92.6805V80.6533C92.6805 80.0207 92.5157 79.5264 92.1862 79.1704C91.8566 78.8105 91.404 78.6306 90.8282 78.6306C90.4343 78.6306 90.0839 78.7158 89.7771 78.8863C89.4741 79.0567 89.2335 79.3067 89.0555 79.6363C88.8813 79.962 88.7941 80.356 88.7941 80.8181ZM97.4191 89.2726C97.1653 89.2726 96.9343 89.2518 96.726 89.2101C96.5176 89.1722 96.3623 89.1306 96.26 89.0851L96.6691 87.6931C96.9797 87.7764 97.2563 87.8124 97.4987 87.801C97.7411 87.7897 97.9551 87.6988 98.1407 87.5283C98.3301 87.3579 98.4968 87.0794 98.6407 86.6931L98.851 86.1135L95.6578 77.2726H97.476L99.6862 84.0454H99.7771L101.987 77.2726H103.811L100.214 87.1647C100.048 87.6192 99.8358 88.0037 99.5782 88.3181C99.3206 88.6363 99.0138 88.8749 98.6578 89.034C98.3017 89.1931 97.8888 89.2726 97.4191 89.2726ZM107.3 85.9999L104.732 77.2726H106.487L108.197 83.6817H108.283L109.999 77.2726H111.754L113.459 83.6533H113.544L115.243 77.2726H116.999L114.436 85.9999H112.703L110.93 79.6988H110.8L109.027 85.9999H107.3ZM120.31 80.8181V85.9999H118.611V74.3635H120.287V78.6931H120.395C120.599 78.2234 120.912 77.8503 121.332 77.5738C121.753 77.2972 122.302 77.159 122.98 77.159C123.579 77.159 124.101 77.2821 124.548 77.5283C124.999 77.7745 125.348 78.1419 125.594 78.6306C125.844 79.1154 125.969 79.7215 125.969 80.4488V85.9999H124.27V80.6533C124.27 80.0132 124.105 79.5169 123.776 79.1647C123.446 78.8086 122.988 78.6306 122.401 78.6306C121.999 78.6306 121.639 78.7158 121.321 78.8863C121.007 79.0567 120.759 79.3067 120.577 79.6363C120.399 79.962 120.31 80.356 120.31 80.8181ZM131.997 86.176C131.137 86.176 130.397 85.9923 129.776 85.6249C129.158 85.2537 128.681 84.7329 128.344 84.0624C128.01 83.3882 127.844 82.5984 127.844 81.6931C127.844 80.7991 128.01 80.0113 128.344 79.3294C128.681 78.6476 129.151 78.1154 129.753 77.7329C130.359 77.3503 131.067 77.159 131.878 77.159C132.37 77.159 132.848 77.2404 133.31 77.4033C133.772 77.5662 134.187 77.8219 134.554 78.1704C134.921 78.5188 135.211 78.9715 135.423 79.5283C135.635 80.0813 135.741 80.7537 135.741 81.5454V82.1476H128.804V80.8749H134.077C134.077 80.4279 133.986 80.0321 133.804 79.6874C133.622 79.3389 133.366 79.0643 133.037 78.8635C132.711 78.6628 132.329 78.5624 131.889 78.5624C131.412 78.5624 130.995 78.6798 130.639 78.9147C130.287 79.1457 130.014 79.4488 129.821 79.8238C129.632 80.195 129.537 80.5984 129.537 81.034V82.0283C129.537 82.6116 129.639 83.1079 129.844 83.5169C130.052 83.926 130.342 84.2385 130.713 84.4544C131.084 84.6666 131.518 84.7726 132.014 84.7726C132.336 84.7726 132.63 84.7272 132.895 84.6363C133.16 84.5416 133.389 84.4014 133.582 84.2158C133.776 84.0302 133.923 83.801 134.026 83.5283L135.634 83.8181C135.505 84.2916 135.274 84.7063 134.94 85.0624C134.611 85.4147 134.196 85.6893 133.696 85.8863C133.2 86.0794 132.634 86.176 131.997 86.176ZM137.626 85.9999V77.2726H139.268V78.659H139.359C139.518 78.1893 139.799 77.82 140.2 77.551C140.606 77.2783 141.064 77.1419 141.575 77.1419C141.681 77.1419 141.806 77.1457 141.95 77.1533C142.098 77.1609 142.214 77.1704 142.297 77.1817V78.8067C142.229 78.7878 142.107 78.7669 141.933 78.7442C141.759 78.7177 141.585 78.7044 141.411 78.7044C141.009 78.7044 140.651 78.7897 140.337 78.9601C140.026 79.1268 139.78 79.3597 139.598 79.659C139.416 79.9544 139.325 80.2916 139.325 80.6704V85.9999H137.626ZM147.216 86.176C146.356 86.176 145.616 85.9923 144.994 85.6249C144.377 85.2537 143.9 84.7329 143.562 84.0624C143.229 83.3882 143.062 82.5984 143.062 81.6931C143.062 80.7991 143.229 80.0113 143.562 79.3294C143.9 78.6476 144.369 78.1154 144.972 77.7329C145.578 77.3503 146.286 77.159 147.097 77.159C147.589 77.159 148.066 77.2404 148.528 77.4033C148.991 77.5662 149.405 77.8219 149.773 78.1704C150.14 78.5188 150.43 78.9715 150.642 79.5283C150.854 80.0813 150.96 80.7537 150.96 81.5454V82.1476H144.023V80.8749H149.295C149.295 80.4279 149.205 80.0321 149.023 79.6874C148.841 79.3389 148.585 79.0643 148.256 78.8635C147.93 78.6628 147.547 78.5624 147.108 78.5624C146.631 78.5624 146.214 78.6798 145.858 78.9147C145.506 79.1457 145.233 79.4488 145.04 79.8238C144.85 80.195 144.756 80.5984 144.756 81.034V82.0283C144.756 82.6116 144.858 83.1079 145.062 83.5169C145.271 83.926 145.561 84.2385 145.932 84.4544C146.303 84.6666 146.737 84.7726 147.233 84.7726C147.555 84.7726 147.848 84.7272 148.114 84.6363C148.379 84.5416 148.608 84.4014 148.801 84.2158C148.994 84.0302 149.142 83.801 149.244 83.5283L150.852 83.8181C150.723 84.2916 150.492 84.7063 150.159 85.0624C149.83 85.4147 149.415 85.6893 148.915 85.8863C148.419 86.0794 147.852 86.176 147.216 86.176ZM155.055 84.409L154.97 85.0283C154.913 85.4829 154.817 85.9563 154.68 86.4488C154.548 86.945 154.41 87.4052 154.266 87.8294C154.125 88.2537 154.01 88.5908 153.919 88.8408H152.714C152.764 88.606 152.832 88.2878 152.919 87.8863C153.006 87.4885 153.091 87.0435 153.175 86.551C153.258 86.0586 153.321 85.5567 153.362 85.0454L153.419 84.409H155.055ZM161.501 85.9999V77.2726H163.2V85.9999H161.501ZM162.359 75.926C162.064 75.926 161.81 75.8276 161.598 75.6306C161.39 75.4298 161.286 75.1912 161.286 74.9147C161.286 74.6344 161.39 74.3957 161.598 74.1988C161.81 73.998 162.064 73.8976 162.359 73.8976C162.655 73.8976 162.907 73.998 163.115 74.1988C163.327 74.3957 163.433 74.6344 163.433 74.9147C163.433 75.1912 163.327 75.4298 163.115 75.6306C162.907 75.8276 162.655 75.926 162.359 75.926ZM167.185 80.8181V85.9999H165.486V77.2726H167.116V78.6931H167.224C167.425 78.231 167.74 77.8597 168.168 77.5794C168.599 77.2991 169.143 77.159 169.798 77.159C170.393 77.159 170.914 77.284 171.361 77.534C171.808 77.7802 172.154 78.1476 172.401 78.6363C172.647 79.1249 172.77 79.7291 172.77 80.4488V85.9999H171.071V80.6533C171.071 80.0207 170.906 79.5264 170.577 79.1704C170.247 78.8105 169.795 78.6306 169.219 78.6306C168.825 78.6306 168.474 78.7158 168.168 78.8863C167.865 79.0567 167.624 79.3067 167.446 79.6363C167.272 79.962 167.185 80.356 167.185 80.8181ZM181.588 79.4033L180.048 79.676C179.984 79.4791 179.882 79.2916 179.741 79.1135C179.605 78.9355 179.42 78.7897 179.185 78.676C178.95 78.5624 178.656 78.5056 178.304 78.5056C177.823 78.5056 177.421 78.6135 177.099 78.8294C176.777 79.0416 176.616 79.3162 176.616 79.6533C176.616 79.945 176.724 80.1798 176.94 80.3579C177.156 80.5359 177.505 80.6817 177.986 80.7954L179.372 81.1135C180.175 81.2991 180.774 81.5851 181.168 81.9715C181.562 82.3579 181.759 82.8597 181.759 83.4772C181.759 83.9999 181.607 84.4658 181.304 84.8749C181.005 85.2802 180.586 85.5984 180.048 85.8294C179.514 86.0605 178.895 86.176 178.19 86.176C177.213 86.176 176.416 85.9677 175.798 85.551C175.181 85.1306 174.802 84.534 174.662 83.7613L176.304 83.5113C176.406 83.9393 176.616 84.2632 176.935 84.4829C177.253 84.6988 177.668 84.8067 178.179 84.8067C178.736 84.8067 179.181 84.6912 179.514 84.4601C179.848 84.2253 180.014 83.9393 180.014 83.6022C180.014 83.3294 179.912 83.1003 179.707 82.9147C179.507 82.7291 179.198 82.5889 178.781 82.4942L177.304 82.1704C176.49 81.9847 175.887 81.6893 175.497 81.284C175.111 80.8787 174.918 80.3654 174.918 79.7442C174.918 79.2291 175.062 78.7783 175.349 78.3919C175.637 78.0056 176.035 77.7044 176.543 77.4885C177.05 77.2688 177.632 77.159 178.287 77.159C179.23 77.159 179.973 77.3635 180.514 77.7726C181.056 78.1779 181.414 78.7215 181.588 79.4033ZM187.7 77.2726V78.6363H182.933V77.2726H187.7ZM184.212 75.1817H185.911V83.4374C185.911 83.7669 185.96 84.0151 186.058 84.1817C186.157 84.3446 186.284 84.4563 186.439 84.5169C186.598 84.5738 186.77 84.6022 186.956 84.6022C187.092 84.6022 187.212 84.5927 187.314 84.5738C187.416 84.5548 187.496 84.5397 187.553 84.5283L187.859 85.9317C187.761 85.9696 187.621 86.0075 187.439 86.0454C187.257 86.087 187.03 86.1097 186.757 86.1135C186.31 86.1211 185.893 86.0416 185.507 85.8749C185.121 85.7082 184.808 85.4507 184.57 85.1022C184.331 84.7537 184.212 84.3162 184.212 83.7897V75.1817ZM192.119 86.1931C191.566 86.1931 191.066 86.0908 190.619 85.8863C190.172 85.6779 189.818 85.3768 189.557 84.9829C189.299 84.5889 189.17 84.106 189.17 83.534C189.17 83.0416 189.265 82.6363 189.455 82.3181C189.644 81.9999 189.9 81.748 190.222 81.5624C190.544 81.3768 190.903 81.2366 191.301 81.1419C191.699 81.0472 192.104 80.9753 192.517 80.926C193.04 80.8654 193.464 80.8162 193.79 80.7783C194.116 80.7366 194.352 80.6704 194.5 80.5794C194.648 80.4885 194.722 80.3408 194.722 80.1363V80.0965C194.722 79.6003 194.581 79.2158 194.301 78.9431C194.025 78.6704 193.612 78.534 193.062 78.534C192.491 78.534 192.04 78.6609 191.71 78.9147C191.384 79.1647 191.159 79.4431 191.034 79.7499L189.438 79.3863C189.627 78.856 189.903 78.4279 190.267 78.1022C190.634 77.7726 191.057 77.534 191.534 77.3863C192.011 77.2347 192.513 77.159 193.04 77.159C193.388 77.159 193.758 77.2007 194.148 77.284C194.542 77.3635 194.909 77.5113 195.25 77.7272C195.595 77.9431 195.877 78.2518 196.097 78.6533C196.316 79.051 196.426 79.5681 196.426 80.2044V85.9999H194.767V84.8067H194.699C194.589 85.0264 194.424 85.2423 194.205 85.4544C193.985 85.6666 193.703 85.8427 193.358 85.9829C193.013 86.123 192.6 86.1931 192.119 86.1931ZM192.489 84.8294C192.958 84.8294 193.36 84.7366 193.693 84.551C194.03 84.3654 194.286 84.123 194.46 83.8238C194.638 83.5207 194.727 83.1969 194.727 82.8522V81.7272C194.667 81.7878 194.549 81.8446 194.375 81.8976C194.205 81.9469 194.009 81.9904 193.79 82.0283C193.57 82.0624 193.356 82.0946 193.148 82.1249C192.939 82.1514 192.765 82.1741 192.625 82.1931C192.295 82.2347 191.994 82.3048 191.722 82.4033C191.453 82.5018 191.237 82.6438 191.074 82.8294C190.915 83.0113 190.835 83.2537 190.835 83.5567C190.835 83.9772 190.991 84.2954 191.301 84.5113C191.612 84.7234 192.008 84.8294 192.489 84.8294ZM200.388 80.8181V85.9999H198.689V77.2726H200.32V78.6931H200.428C200.628 78.231 200.943 77.8597 201.371 77.5794C201.803 77.2991 202.346 77.159 203.001 77.159C203.596 77.159 204.117 77.284 204.564 77.534C205.011 77.7802 205.357 78.1476 205.604 78.6363C205.85 79.1249 205.973 79.7291 205.973 80.4488V85.9999H204.274V80.6533C204.274 80.0207 204.109 79.5264 203.78 79.1704C203.45 78.8105 202.998 78.6306 202.422 78.6306C202.028 78.6306 201.678 78.7158 201.371 78.8863C201.068 79.0567 200.827 79.3067 200.649 79.6363C200.475 79.962 200.388 80.356 200.388 80.8181ZM212.325 77.2726V78.6363H207.558V77.2726H212.325ZM208.837 75.1817H210.536V83.4374C210.536 83.7669 210.585 84.0151 210.683 84.1817C210.782 84.3446 210.909 84.4563 211.064 84.5169C211.223 84.5738 211.395 84.6022 211.581 84.6022C211.717 84.6022 211.837 84.5927 211.939 84.5738C212.041 84.5548 212.121 84.5397 212.178 84.5283L212.484 85.9317C212.386 85.9696 212.246 86.0075 212.064 86.0454C211.882 86.087 211.655 86.1097 211.382 86.1135C210.935 86.1211 210.518 86.0416 210.132 85.8749C209.746 85.7082 209.433 85.4507 209.195 85.1022C208.956 84.7537 208.837 84.3162 208.837 83.7897V75.1817ZM216.091 74.3635V85.9999H214.392V74.3635H216.091ZM219.45 89.2726C219.196 89.2726 218.965 89.2518 218.757 89.2101C218.549 89.1722 218.393 89.1306 218.291 89.0851L218.7 87.6931C219.011 87.7764 219.287 87.8124 219.53 87.801C219.772 87.7897 219.986 87.6988 220.172 87.5283C220.361 87.3579 220.528 87.0794 220.672 86.6931L220.882 86.1135L217.689 77.2726H219.507L221.717 84.0454H221.808L224.018 77.2726H225.842L222.246 87.1647C222.079 87.6192 221.867 88.0037 221.609 88.3181C221.352 88.6363 221.045 88.8749 220.689 89.034C220.333 89.1931 219.92 89.2726 219.45 89.2726ZM235.06 86.1647C234.279 86.1647 233.607 86.0226 233.043 85.7385C232.482 85.4544 232.05 85.0681 231.747 84.5794C231.444 84.087 231.293 83.5302 231.293 82.909C231.293 82.4355 231.391 82.0151 231.588 81.6476C231.785 81.2764 232.06 80.9336 232.412 80.6192C232.764 80.3048 233.171 79.9885 233.634 79.6704L235.509 78.3465C235.827 78.1382 236.075 77.9185 236.253 77.6874C236.431 77.4526 236.52 77.1628 236.52 76.8181C236.52 76.5454 236.402 76.284 236.168 76.034C235.933 75.784 235.618 75.659 235.224 75.659C234.952 75.659 234.711 75.7253 234.503 75.8579C234.298 75.9904 234.137 76.1609 234.02 76.3692C233.906 76.5738 233.849 76.7897 233.849 77.0169C233.849 77.2821 233.921 77.5491 234.065 77.8181C234.213 78.087 234.402 78.3654 234.634 78.6533C234.865 78.9374 235.107 79.2329 235.361 79.5397L240.764 85.9999H238.844L234.372 80.7442C233.997 80.301 233.649 79.8844 233.327 79.4942C233.005 79.1003 232.743 78.7026 232.543 78.301C232.346 77.8957 232.247 77.4582 232.247 76.9885C232.247 76.4544 232.368 75.981 232.611 75.5681C232.857 75.1514 233.2 74.8257 233.639 74.5908C234.079 74.356 234.594 74.2385 235.185 74.2385C235.783 74.2385 236.296 74.356 236.724 74.5908C237.156 74.8219 237.488 75.1306 237.719 75.5169C237.954 75.8995 238.071 76.3181 238.071 76.7726C238.071 77.3257 237.933 77.8143 237.656 78.2385C237.384 78.659 237.007 79.0454 236.526 79.3976L234.19 81.1192C233.736 81.4526 233.42 81.7821 233.241 82.1079C233.067 82.4298 232.98 82.6817 232.98 82.8635C232.98 83.1969 233.065 83.5056 233.236 83.7897C233.41 84.0738 233.652 84.301 233.963 84.4715C234.277 84.6419 234.645 84.7272 235.065 84.7272C235.497 84.7272 235.918 84.6344 236.327 84.4488C236.74 84.2594 237.113 83.9885 237.446 83.6363C237.783 83.284 238.05 82.8616 238.247 82.3692C238.444 81.8768 238.543 81.3257 238.543 80.7158H240.077C240.077 81.4658 239.991 82.1003 239.821 82.6192C239.651 83.1344 239.444 83.5548 239.202 83.8806C238.963 84.2026 238.738 84.4544 238.526 84.6363C238.457 84.6969 238.393 84.7575 238.332 84.8181C238.272 84.8787 238.207 84.9393 238.139 84.9999C237.745 85.3976 237.268 85.6912 236.707 85.8806C236.151 86.07 235.601 86.1647 235.06 86.1647ZM250.483 77.2726V78.6363H245.551V77.2726H250.483ZM246.903 85.9999V76.2613C246.903 75.7158 247.023 75.2632 247.261 74.9033C247.5 74.5397 247.816 74.2688 248.21 74.0908C248.604 73.909 249.032 73.8181 249.494 73.8181C249.835 73.8181 250.127 73.8465 250.369 73.9033C250.612 73.9563 250.792 74.0056 250.909 74.051L250.511 75.426C250.432 75.4033 250.33 75.3768 250.205 75.3465C250.08 75.3124 249.928 75.2954 249.75 75.2954C249.337 75.2954 249.042 75.3976 248.864 75.6022C248.689 75.8067 248.602 76.1022 248.602 76.4885V85.9999H246.903ZM255.568 86.176C254.75 86.176 254.036 85.9885 253.426 85.6135C252.816 85.2385 252.343 84.7139 252.006 84.0397C251.669 83.3654 251.5 82.5776 251.5 81.676C251.5 80.7707 251.669 79.9791 252.006 79.301C252.343 78.623 252.816 78.0965 253.426 77.7215C254.036 77.3465 254.75 77.159 255.568 77.159C256.386 77.159 257.1 77.3465 257.71 77.7215C258.32 78.0965 258.794 78.623 259.131 79.301C259.468 79.9791 259.636 80.7707 259.636 81.676C259.636 82.5776 259.468 83.3654 259.131 84.0397C258.794 84.7139 258.32 85.2385 257.71 85.6135C257.1 85.9885 256.386 86.176 255.568 86.176ZM255.574 84.7499C256.104 84.7499 256.544 84.6097 256.892 84.3294C257.241 84.0491 257.498 83.676 257.665 83.2101C257.835 82.7442 257.92 82.231 257.92 81.6704C257.92 81.1135 257.835 80.6022 257.665 80.1363C257.498 79.6666 257.241 79.2897 256.892 79.0056C256.544 78.7215 256.104 78.5794 255.574 78.5794C255.04 78.5794 254.597 78.7215 254.244 79.0056C253.896 79.2897 253.636 79.6666 253.466 80.1363C253.299 80.6022 253.216 81.1135 253.216 81.6704C253.216 82.231 253.299 82.7442 253.466 83.2101C253.636 83.676 253.896 84.0491 254.244 84.3294C254.597 84.6097 255.04 84.7499 255.574 84.7499ZM261.533 85.9999V77.2726H263.175V78.659H263.266C263.425 78.1893 263.705 77.82 264.107 77.551C264.512 77.2783 264.97 77.1419 265.482 77.1419C265.588 77.1419 265.713 77.1457 265.857 77.1533C266.004 77.1609 266.12 77.1704 266.203 77.1817V78.8067C266.135 78.7878 266.014 78.7669 265.839 78.7442C265.665 78.7177 265.491 78.7044 265.317 78.7044C264.915 78.7044 264.557 78.7897 264.243 78.9601C263.932 79.1268 263.686 79.3597 263.504 79.659C263.322 79.9544 263.232 80.2916 263.232 80.6704V85.9999H261.533ZM84.2316 108.818V114H82.5328V105.273H84.1635V106.693H84.2714C84.4722 106.231 84.7866 105.86 85.2146 105.58C85.6464 105.299 86.19 105.159 86.8453 105.159C87.44 105.159 87.9608 105.284 88.4078 105.534C88.8547 105.78 89.2013 106.148 89.4475 106.636C89.6938 107.125 89.8169 107.729 89.8169 108.449V114H88.118V108.653C88.118 108.021 87.9532 107.527 87.6237 107.17C87.2941 106.811 86.8415 106.631 86.2657 106.631C85.8718 106.631 85.5214 106.716 85.2146 106.886C84.9116 107.057 84.671 107.307 84.493 107.636C84.3188 107.962 84.2316 108.356 84.2316 108.818ZM95.8566 114.176C94.9968 114.176 94.2563 113.992 93.635 113.625C93.0176 113.254 92.5403 112.733 92.2032 112.062C91.8699 111.388 91.7032 110.598 91.7032 109.693C91.7032 108.799 91.8699 108.011 92.2032 107.33C92.5403 106.648 93.01 106.116 93.6123 105.733C94.2184 105.35 94.9267 105.159 95.7373 105.159C96.2297 105.159 96.707 105.241 97.1691 105.403C97.6313 105.566 98.046 105.822 98.4135 106.17C98.7809 106.519 99.0706 106.972 99.2828 107.528C99.4949 108.081 99.601 108.754 99.601 109.545V110.148H92.6635V108.875H97.9362C97.9362 108.428 97.8453 108.032 97.6635 107.688C97.4816 107.339 97.226 107.064 96.8964 106.864C96.5706 106.663 96.1881 106.562 95.7487 106.562C95.2714 106.562 94.8547 106.68 94.4987 106.915C94.1464 107.146 93.8737 107.449 93.6805 107.824C93.4911 108.195 93.3964 108.598 93.3964 109.034V110.028C93.3964 110.612 93.4987 111.108 93.7032 111.517C93.9116 111.926 94.2013 112.239 94.5725 112.455C94.9438 112.667 95.3775 112.773 95.8737 112.773C96.1956 112.773 96.4892 112.727 96.7544 112.636C97.0195 112.542 97.2487 112.402 97.4419 112.216C97.635 112.03 97.7828 111.801 97.885 111.528L99.493 111.818C99.3642 112.292 99.1331 112.706 98.7998 113.062C98.4703 113.415 98.0555 113.689 97.5555 113.886C97.0593 114.08 96.493 114.176 95.8566 114.176ZM104.026 114.193C103.473 114.193 102.973 114.091 102.526 113.886C102.079 113.678 101.724 113.377 101.463 112.983C101.205 112.589 101.077 112.106 101.077 111.534C101.077 111.042 101.171 110.636 101.361 110.318C101.55 110 101.806 109.748 102.128 109.562C102.45 109.377 102.81 109.237 103.207 109.142C103.605 109.047 104.01 108.975 104.423 108.926C104.946 108.866 105.37 108.816 105.696 108.778C106.022 108.737 106.259 108.67 106.406 108.58C106.554 108.489 106.628 108.341 106.628 108.136V108.097C106.628 107.6 106.488 107.216 106.207 106.943C105.931 106.67 105.518 106.534 104.969 106.534C104.397 106.534 103.946 106.661 103.616 106.915C103.291 107.165 103.065 107.443 102.94 107.75L101.344 107.386C101.533 106.856 101.81 106.428 102.173 106.102C102.541 105.773 102.963 105.534 103.44 105.386C103.918 105.235 104.42 105.159 104.946 105.159C105.295 105.159 105.664 105.201 106.054 105.284C106.448 105.364 106.815 105.511 107.156 105.727C107.501 105.943 107.783 106.252 108.003 106.653C108.223 107.051 108.332 107.568 108.332 108.205V114H106.673V112.807H106.605C106.495 113.027 106.33 113.242 106.111 113.455C105.891 113.667 105.609 113.843 105.264 113.983C104.92 114.123 104.507 114.193 104.026 114.193ZM104.395 112.83C104.865 112.83 105.266 112.737 105.599 112.551C105.937 112.366 106.192 112.123 106.366 111.824C106.545 111.521 106.634 111.197 106.634 110.852V109.727C106.573 109.788 106.455 109.845 106.281 109.898C106.111 109.947 105.916 109.991 105.696 110.028C105.476 110.062 105.262 110.095 105.054 110.125C104.846 110.152 104.671 110.174 104.531 110.193C104.202 110.235 103.901 110.305 103.628 110.403C103.359 110.502 103.143 110.644 102.98 110.83C102.821 111.011 102.741 111.254 102.741 111.557C102.741 111.977 102.897 112.295 103.207 112.511C103.518 112.723 103.914 112.83 104.395 112.83ZM110.595 114V105.273H112.237V106.659H112.328C112.487 106.189 112.768 105.82 113.169 105.551C113.574 105.278 114.033 105.142 114.544 105.142C114.65 105.142 114.775 105.146 114.919 105.153C115.067 105.161 115.182 105.17 115.266 105.182V106.807C115.197 106.788 115.076 106.767 114.902 106.744C114.728 106.718 114.554 106.705 114.379 106.705C113.978 106.705 113.62 106.79 113.305 106.96C112.995 107.127 112.749 107.36 112.567 107.659C112.385 107.955 112.294 108.292 112.294 108.67V114H110.595ZM121.362 108.347V109.818H116.203V108.347H121.362ZM123.445 114V112.835L128.172 106.83V106.75H123.598V105.273H130.291V106.511L125.746 112.443V112.523H130.45V114H123.445ZM135.966 114.176C135.106 114.176 134.366 113.992 133.744 113.625C133.127 113.254 132.65 112.733 132.312 112.062C131.979 111.388 131.812 110.598 131.812 109.693C131.812 108.799 131.979 108.011 132.312 107.33C132.65 106.648 133.119 106.116 133.722 105.733C134.328 105.35 135.036 105.159 135.847 105.159C136.339 105.159 136.816 105.241 137.278 105.403C137.741 105.566 138.155 105.822 138.523 106.17C138.89 106.519 139.18 106.972 139.392 107.528C139.604 108.081 139.71 108.754 139.71 109.545V110.148H132.773V108.875H138.045C138.045 108.428 137.955 108.032 137.773 107.688C137.591 107.339 137.335 107.064 137.006 106.864C136.68 106.663 136.297 106.562 135.858 106.562C135.381 106.562 134.964 106.68 134.608 106.915C134.256 107.146 133.983 107.449 133.79 107.824C133.6 108.195 133.506 108.598 133.506 109.034V110.028C133.506 110.612 133.608 111.108 133.812 111.517C134.021 111.926 134.311 112.239 134.682 112.455C135.053 112.667 135.487 112.773 135.983 112.773C136.305 112.773 136.598 112.727 136.864 112.636C137.129 112.542 137.358 112.402 137.551 112.216C137.744 112.03 137.892 111.801 137.994 111.528L139.602 111.818C139.473 112.292 139.242 112.706 138.909 113.062C138.58 113.415 138.165 113.689 137.665 113.886C137.169 114.08 136.602 114.176 135.966 114.176ZM141.595 114V105.273H143.237V106.659H143.328C143.487 106.189 143.768 105.82 144.169 105.551C144.574 105.278 145.033 105.142 145.544 105.142C145.65 105.142 145.775 105.146 145.919 105.153C146.067 105.161 146.182 105.17 146.266 105.182V106.807C146.197 106.788 146.076 106.767 145.902 106.744C145.728 106.718 145.554 106.705 145.379 106.705C144.978 106.705 144.62 106.79 144.305 106.96C143.995 107.127 143.749 107.36 143.567 107.659C143.385 107.955 143.294 108.292 143.294 108.67V114H141.595ZM151.099 114.176C150.281 114.176 149.567 113.989 148.957 113.614C148.348 113.239 147.874 112.714 147.537 112.04C147.2 111.366 147.031 110.578 147.031 109.676C147.031 108.771 147.2 107.979 147.537 107.301C147.874 106.623 148.348 106.097 148.957 105.722C149.567 105.347 150.281 105.159 151.099 105.159C151.918 105.159 152.632 105.347 153.241 105.722C153.851 106.097 154.325 106.623 154.662 107.301C154.999 107.979 155.168 108.771 155.168 109.676C155.168 110.578 154.999 111.366 154.662 112.04C154.325 112.714 153.851 113.239 153.241 113.614C152.632 113.989 151.918 114.176 151.099 114.176ZM151.105 112.75C151.635 112.75 152.075 112.61 152.423 112.33C152.772 112.049 153.029 111.676 153.196 111.21C153.366 110.744 153.452 110.231 153.452 109.67C153.452 109.114 153.366 108.602 153.196 108.136C153.029 107.667 152.772 107.29 152.423 107.006C152.075 106.722 151.635 106.58 151.105 106.58C150.571 106.58 150.128 106.722 149.776 107.006C149.427 107.29 149.168 107.667 148.997 108.136C148.83 108.602 148.747 109.114 148.747 109.67C148.747 110.231 148.83 110.744 148.997 111.21C149.168 111.676 149.427 112.049 149.776 112.33C150.128 112.61 150.571 112.75 151.105 112.75ZM165.452 105.273V106.636H160.52V105.273H165.452ZM161.872 114V104.261C161.872 103.716 161.991 103.263 162.23 102.903C162.469 102.54 162.785 102.269 163.179 102.091C163.573 101.909 164.001 101.818 164.463 101.818C164.804 101.818 165.096 101.847 165.338 101.903C165.58 101.956 165.76 102.006 165.878 102.051L165.48 103.426C165.401 103.403 165.298 103.377 165.173 103.347C165.048 103.312 164.897 103.295 164.719 103.295C164.306 103.295 164.01 103.398 163.832 103.602C163.658 103.807 163.571 104.102 163.571 104.489V114H161.872ZM170.622 114.176C169.762 114.176 169.022 113.992 168.401 113.625C167.783 113.254 167.306 112.733 166.969 112.062C166.635 111.388 166.469 110.598 166.469 109.693C166.469 108.799 166.635 108.011 166.969 107.33C167.306 106.648 167.776 106.116 168.378 105.733C168.984 105.35 169.692 105.159 170.503 105.159C170.995 105.159 171.473 105.241 171.935 105.403C172.397 105.566 172.812 105.822 173.179 106.17C173.546 106.519 173.836 106.972 174.048 107.528C174.26 108.081 174.366 108.754 174.366 109.545V110.148H167.429V108.875H172.702C172.702 108.428 172.611 108.032 172.429 107.688C172.247 107.339 171.991 107.064 171.662 106.864C171.336 106.663 170.954 106.562 170.514 106.562C170.037 106.562 169.62 106.68 169.264 106.915C168.912 107.146 168.639 107.449 168.446 107.824C168.257 108.195 168.162 108.598 168.162 109.034V110.028C168.162 110.612 168.264 111.108 168.469 111.517C168.677 111.926 168.967 112.239 169.338 112.455C169.709 112.667 170.143 112.773 170.639 112.773C170.961 112.773 171.255 112.727 171.52 112.636C171.785 112.542 172.014 112.402 172.207 112.216C172.401 112.03 172.548 111.801 172.651 111.528L174.259 111.818C174.13 112.292 173.899 112.706 173.565 113.062C173.236 113.415 172.821 113.689 172.321 113.886C171.825 114.08 171.259 114.176 170.622 114.176ZM180.013 114.176C179.153 114.176 178.412 113.992 177.791 113.625C177.174 113.254 176.696 112.733 176.359 112.062C176.026 111.388 175.859 110.598 175.859 109.693C175.859 108.799 176.026 108.011 176.359 107.33C176.696 106.648 177.166 106.116 177.768 105.733C178.375 105.35 179.083 105.159 179.893 105.159C180.386 105.159 180.863 105.241 181.325 105.403C181.787 105.566 182.202 105.822 182.57 106.17C182.937 106.519 183.227 106.972 183.439 107.528C183.651 108.081 183.757 108.754 183.757 109.545V110.148H176.82V108.875H182.092C182.092 108.428 182.001 108.032 181.82 107.688C181.638 107.339 181.382 107.064 181.053 106.864C180.727 106.663 180.344 106.562 179.905 106.562C179.428 106.562 179.011 106.68 178.655 106.915C178.303 107.146 178.03 107.449 177.837 107.824C177.647 108.195 177.553 108.598 177.553 109.034V110.028C177.553 110.612 177.655 111.108 177.859 111.517C178.068 111.926 178.357 112.239 178.729 112.455C179.1 112.667 179.534 112.773 180.03 112.773C180.352 112.773 180.645 112.727 180.911 112.636C181.176 112.542 181.405 112.402 181.598 112.216C181.791 112.03 181.939 111.801 182.041 111.528L183.649 111.818C183.52 112.292 183.289 112.706 182.956 113.062C182.626 113.415 182.212 113.689 181.712 113.886C181.215 114.08 180.649 114.176 180.013 114.176ZM192.182 107.403L190.642 107.676C190.578 107.479 190.475 107.292 190.335 107.114C190.199 106.936 190.013 106.79 189.778 106.676C189.544 106.562 189.25 106.506 188.898 106.506C188.417 106.506 188.015 106.614 187.693 106.83C187.371 107.042 187.21 107.316 187.21 107.653C187.21 107.945 187.318 108.18 187.534 108.358C187.75 108.536 188.098 108.682 188.58 108.795L189.966 109.114C190.769 109.299 191.367 109.585 191.761 109.972C192.155 110.358 192.352 110.86 192.352 111.477C192.352 112 192.201 112.466 191.898 112.875C191.598 113.28 191.18 113.598 190.642 113.83C190.108 114.061 189.489 114.176 188.784 114.176C187.807 114.176 187.009 113.968 186.392 113.551C185.775 113.131 185.396 112.534 185.256 111.761L186.898 111.511C187 111.939 187.21 112.263 187.528 112.483C187.847 112.699 188.261 112.807 188.773 112.807C189.33 112.807 189.775 112.691 190.108 112.46C190.441 112.225 190.608 111.939 190.608 111.602C190.608 111.33 190.506 111.1 190.301 110.915C190.1 110.729 189.792 110.589 189.375 110.494L187.898 110.17C187.083 109.985 186.481 109.689 186.091 109.284C185.705 108.879 185.511 108.366 185.511 107.744C185.511 107.229 185.655 106.778 185.943 106.392C186.231 106.006 186.629 105.705 187.136 105.489C187.644 105.269 188.225 105.159 188.881 105.159C189.824 105.159 190.566 105.364 191.108 105.773C191.65 106.178 192.008 106.722 192.182 107.403ZM195.339 114.108C195.029 114.108 194.762 113.998 194.538 113.778C194.315 113.555 194.203 113.286 194.203 112.972C194.203 112.661 194.315 112.396 194.538 112.176C194.762 111.953 195.029 111.841 195.339 111.841C195.65 111.841 195.917 111.953 196.141 112.176C196.364 112.396 196.476 112.661 196.476 112.972C196.476 113.18 196.423 113.371 196.317 113.545C196.214 113.716 196.078 113.852 195.908 113.955C195.737 114.057 195.548 114.108 195.339 114.108Z" fill="#333333"/>
<path opacity="0.3" d="M152 158C152 156.895 151.105 156 150 156C148.895 156 148 156.895 148 158C148 159.105 148.895 160 150 160C151.105 160 152 159.105 152 158Z" fill="#707070"/>
<path d="M134 158C134 155.791 132.209 154 130 154C127.791 154 126 155.791 126 158C126 160.209 127.791 162 130 162C132.209 162 134 160.209 134 158Z" fill="#3700B3"/>
<path opacity="0.3" d="M143 158C143 156.895 142.105 156 141 156C139.895 156 139 156.895 139 158C139 159.105 139.895 160 141 160C142.105 160 143 159.105 143 158Z" fill="#707070"/>
</svg>
